G04 #@! TF.GenerationSoftware,KiCad,Pcbnew,(5.1.0-0)*
G04 #@! TF.CreationDate,2019-04-12T23:41:18+08:00*
G04 #@! TF.ProjectId,Ulticontroller_adapter,556c7469-636f-46e7-9472-6f6c6c65725f,rev?*
G04 #@! TF.SameCoordinates,Original*
G04 #@! TF.FileFunction,Soldermask,Top*
G04 #@! TF.FilePolarity,Negative*
%FSLAX46Y46*%
G04 Gerber Fmt 4.6, Leading zero omitted, Abs format (unit mm)*
G04 Created by KiCad (PCBNEW (5.1.0-0)) date 2019-04-12 23:41:18*
%MOMM*%
%LPD*%
G04 APERTURE LIST*
%ADD10C,0.100000*%
G04 APERTURE END LIST*
D10*
G36*
X125361000Y-131711000D02*
G01*
X123559000Y-131711000D01*
X123559000Y-129909000D01*
X125361000Y-129909000D01*
X125361000Y-131711000D01*
X125361000Y-131711000D01*
G37*
G36*
X124570442Y-127375518D02*
G01*
X124636627Y-127382037D01*
X124806466Y-127433557D01*
X124962991Y-127517222D01*
X124998729Y-127546552D01*
X125100186Y-127629814D01*
X125183448Y-127731271D01*
X125212778Y-127767009D01*
X125296443Y-127923534D01*
X125347963Y-128093373D01*
X125365359Y-128270000D01*
X125347963Y-128446627D01*
X125296443Y-128616466D01*
X125212778Y-128772991D01*
X125183448Y-128808729D01*
X125100186Y-128910186D01*
X124998729Y-128993448D01*
X124962991Y-129022778D01*
X124806466Y-129106443D01*
X124636627Y-129157963D01*
X124570442Y-129164482D01*
X124504260Y-129171000D01*
X124415740Y-129171000D01*
X124349558Y-129164482D01*
X124283373Y-129157963D01*
X124113534Y-129106443D01*
X123957009Y-129022778D01*
X123921271Y-128993448D01*
X123819814Y-128910186D01*
X123736552Y-128808729D01*
X123707222Y-128772991D01*
X123623557Y-128616466D01*
X123572037Y-128446627D01*
X123554641Y-128270000D01*
X123572037Y-128093373D01*
X123623557Y-127923534D01*
X123707222Y-127767009D01*
X123736552Y-127731271D01*
X123819814Y-127629814D01*
X123921271Y-127546552D01*
X123957009Y-127517222D01*
X124113534Y-127433557D01*
X124283373Y-127382037D01*
X124349558Y-127375518D01*
X124415740Y-127369000D01*
X124504260Y-127369000D01*
X124570442Y-127375518D01*
X124570442Y-127375518D01*
G37*
G36*
X124570443Y-124835519D02*
G01*
X124636627Y-124842037D01*
X124806466Y-124893557D01*
X124962991Y-124977222D01*
X124998729Y-125006552D01*
X125100186Y-125089814D01*
X125183448Y-125191271D01*
X125212778Y-125227009D01*
X125296443Y-125383534D01*
X125347963Y-125553373D01*
X125365359Y-125730000D01*
X125347963Y-125906627D01*
X125296443Y-126076466D01*
X125212778Y-126232991D01*
X125183448Y-126268729D01*
X125100186Y-126370186D01*
X124998729Y-126453448D01*
X124962991Y-126482778D01*
X124806466Y-126566443D01*
X124636627Y-126617963D01*
X124570442Y-126624482D01*
X124504260Y-126631000D01*
X124415740Y-126631000D01*
X124349558Y-126624482D01*
X124283373Y-126617963D01*
X124113534Y-126566443D01*
X123957009Y-126482778D01*
X123921271Y-126453448D01*
X123819814Y-126370186D01*
X123736552Y-126268729D01*
X123707222Y-126232991D01*
X123623557Y-126076466D01*
X123572037Y-125906627D01*
X123554641Y-125730000D01*
X123572037Y-125553373D01*
X123623557Y-125383534D01*
X123707222Y-125227009D01*
X123736552Y-125191271D01*
X123819814Y-125089814D01*
X123921271Y-125006552D01*
X123957009Y-124977222D01*
X124113534Y-124893557D01*
X124283373Y-124842037D01*
X124349557Y-124835519D01*
X124415740Y-124829000D01*
X124504260Y-124829000D01*
X124570443Y-124835519D01*
X124570443Y-124835519D01*
G37*
G36*
X132259294Y-122288633D02*
G01*
X132431695Y-122340931D01*
X132590583Y-122425858D01*
X132729849Y-122540151D01*
X132844142Y-122679417D01*
X132929069Y-122838305D01*
X132981367Y-123010706D01*
X132999025Y-123190000D01*
X132981367Y-123369294D01*
X132929069Y-123541695D01*
X132844142Y-123700583D01*
X132729849Y-123839849D01*
X132590583Y-123954142D01*
X132431695Y-124039069D01*
X132259294Y-124091367D01*
X132124931Y-124104600D01*
X132035069Y-124104600D01*
X131900706Y-124091367D01*
X131728305Y-124039069D01*
X131569417Y-123954142D01*
X131430151Y-123839849D01*
X131315858Y-123700583D01*
X131230931Y-123541695D01*
X131178633Y-123369294D01*
X131160975Y-123190000D01*
X131178633Y-123010706D01*
X131230931Y-122838305D01*
X131315858Y-122679417D01*
X131430151Y-122540151D01*
X131569417Y-122425858D01*
X131728305Y-122340931D01*
X131900706Y-122288633D01*
X132035069Y-122275400D01*
X132124931Y-122275400D01*
X132259294Y-122288633D01*
X132259294Y-122288633D01*
G37*
G36*
X129719294Y-122288633D02*
G01*
X129891695Y-122340931D01*
X130050583Y-122425858D01*
X130189849Y-122540151D01*
X130304142Y-122679417D01*
X130389069Y-122838305D01*
X130441367Y-123010706D01*
X130459025Y-123190000D01*
X130441367Y-123369294D01*
X130389069Y-123541695D01*
X130304142Y-123700583D01*
X130189849Y-123839849D01*
X130050583Y-123954142D01*
X129891695Y-124039069D01*
X129719294Y-124091367D01*
X129584931Y-124104600D01*
X129495069Y-124104600D01*
X129360706Y-124091367D01*
X129188305Y-124039069D01*
X129029417Y-123954142D01*
X128890151Y-123839849D01*
X128775858Y-123700583D01*
X128690931Y-123541695D01*
X128638633Y-123369294D01*
X128620975Y-123190000D01*
X128638633Y-123010706D01*
X128690931Y-122838305D01*
X128775858Y-122679417D01*
X128890151Y-122540151D01*
X129029417Y-122425858D01*
X129188305Y-122340931D01*
X129360706Y-122288633D01*
X129495069Y-122275400D01*
X129584931Y-122275400D01*
X129719294Y-122288633D01*
X129719294Y-122288633D01*
G37*
G36*
X124570443Y-122295519D02*
G01*
X124636627Y-122302037D01*
X124806466Y-122353557D01*
X124962991Y-122437222D01*
X124998729Y-122466552D01*
X125100186Y-122549814D01*
X125183448Y-122651271D01*
X125212778Y-122687009D01*
X125212779Y-122687011D01*
X125293648Y-122838304D01*
X125296443Y-122843534D01*
X125347963Y-123013373D01*
X125365359Y-123190000D01*
X125347963Y-123366627D01*
X125296443Y-123536466D01*
X125296442Y-123536468D01*
X125254611Y-123614728D01*
X125212778Y-123692991D01*
X125206547Y-123700583D01*
X125100186Y-123830186D01*
X124998729Y-123913448D01*
X124962991Y-123942778D01*
X124806466Y-124026443D01*
X124636627Y-124077963D01*
X124570442Y-124084482D01*
X124504260Y-124091000D01*
X124415740Y-124091000D01*
X124349558Y-124084482D01*
X124283373Y-124077963D01*
X124113534Y-124026443D01*
X123957009Y-123942778D01*
X123921271Y-123913448D01*
X123819814Y-123830186D01*
X123713453Y-123700583D01*
X123707222Y-123692991D01*
X123665389Y-123614728D01*
X123623558Y-123536468D01*
X123623557Y-123536466D01*
X123572037Y-123366627D01*
X123554641Y-123190000D01*
X123572037Y-123013373D01*
X123623557Y-122843534D01*
X123626353Y-122838304D01*
X123707221Y-122687011D01*
X123707222Y-122687009D01*
X123736552Y-122651271D01*
X123819814Y-122549814D01*
X123921271Y-122466552D01*
X123957009Y-122437222D01*
X124113534Y-122353557D01*
X124283373Y-122302037D01*
X124349557Y-122295519D01*
X124415740Y-122289000D01*
X124504260Y-122289000D01*
X124570443Y-122295519D01*
X124570443Y-122295519D01*
G37*
G36*
X132259294Y-119748633D02*
G01*
X132431695Y-119800931D01*
X132590583Y-119885858D01*
X132729849Y-120000151D01*
X132844142Y-120139417D01*
X132929069Y-120298305D01*
X132981367Y-120470706D01*
X132999025Y-120650000D01*
X132981367Y-120829294D01*
X132929069Y-121001695D01*
X132844142Y-121160583D01*
X132729849Y-121299849D01*
X132590583Y-121414142D01*
X132431695Y-121499069D01*
X132259294Y-121551367D01*
X132124931Y-121564600D01*
X132035069Y-121564600D01*
X131900706Y-121551367D01*
X131728305Y-121499069D01*
X131569417Y-121414142D01*
X131430151Y-121299849D01*
X131315858Y-121160583D01*
X131230931Y-121001695D01*
X131178633Y-120829294D01*
X131160975Y-120650000D01*
X131178633Y-120470706D01*
X131230931Y-120298305D01*
X131315858Y-120139417D01*
X131430151Y-120000151D01*
X131569417Y-119885858D01*
X131728305Y-119800931D01*
X131900706Y-119748633D01*
X132035069Y-119735400D01*
X132124931Y-119735400D01*
X132259294Y-119748633D01*
X132259294Y-119748633D01*
G37*
G36*
X129719294Y-119748633D02*
G01*
X129891695Y-119800931D01*
X130050583Y-119885858D01*
X130189849Y-120000151D01*
X130304142Y-120139417D01*
X130389069Y-120298305D01*
X130441367Y-120470706D01*
X130459025Y-120650000D01*
X130441367Y-120829294D01*
X130389069Y-121001695D01*
X130304142Y-121160583D01*
X130189849Y-121299849D01*
X130050583Y-121414142D01*
X129891695Y-121499069D01*
X129719294Y-121551367D01*
X129584931Y-121564600D01*
X129495069Y-121564600D01*
X129360706Y-121551367D01*
X129188305Y-121499069D01*
X129029417Y-121414142D01*
X128890151Y-121299849D01*
X128775858Y-121160583D01*
X128690931Y-121001695D01*
X128638633Y-120829294D01*
X128620975Y-120650000D01*
X128638633Y-120470706D01*
X128690931Y-120298305D01*
X128775858Y-120139417D01*
X128890151Y-120000151D01*
X129029417Y-119885858D01*
X129188305Y-119800931D01*
X129360706Y-119748633D01*
X129495069Y-119735400D01*
X129584931Y-119735400D01*
X129719294Y-119748633D01*
X129719294Y-119748633D01*
G37*
G36*
X124570442Y-119755518D02*
G01*
X124636627Y-119762037D01*
X124806466Y-119813557D01*
X124962991Y-119897222D01*
X124998729Y-119926552D01*
X125100186Y-120009814D01*
X125183448Y-120111271D01*
X125212778Y-120147009D01*
X125212779Y-120147011D01*
X125293648Y-120298304D01*
X125296443Y-120303534D01*
X125347963Y-120473373D01*
X125365359Y-120650000D01*
X125347963Y-120826627D01*
X125296443Y-120996466D01*
X125296442Y-120996468D01*
X125254611Y-121074728D01*
X125212778Y-121152991D01*
X125206547Y-121160583D01*
X125100186Y-121290186D01*
X124998729Y-121373448D01*
X124962991Y-121402778D01*
X124806466Y-121486443D01*
X124636627Y-121537963D01*
X124570443Y-121544481D01*
X124504260Y-121551000D01*
X124415740Y-121551000D01*
X124349557Y-121544481D01*
X124283373Y-121537963D01*
X124113534Y-121486443D01*
X123957009Y-121402778D01*
X123921271Y-121373448D01*
X123819814Y-121290186D01*
X123713453Y-121160583D01*
X123707222Y-121152991D01*
X123665390Y-121074729D01*
X123623558Y-120996468D01*
X123623557Y-120996466D01*
X123572037Y-120826627D01*
X123554641Y-120650000D01*
X123572037Y-120473373D01*
X123623557Y-120303534D01*
X123626353Y-120298304D01*
X123707221Y-120147011D01*
X123707222Y-120147009D01*
X123736552Y-120111271D01*
X123819814Y-120009814D01*
X123921271Y-119926552D01*
X123957009Y-119897222D01*
X124113534Y-119813557D01*
X124283373Y-119762037D01*
X124349558Y-119755518D01*
X124415740Y-119749000D01*
X124504260Y-119749000D01*
X124570442Y-119755518D01*
X124570442Y-119755518D01*
G37*
G36*
X132259294Y-117208633D02*
G01*
X132431695Y-117260931D01*
X132590583Y-117345858D01*
X132729849Y-117460151D01*
X132844142Y-117599417D01*
X132929069Y-117758305D01*
X132981367Y-117930706D01*
X132999025Y-118110000D01*
X132981367Y-118289294D01*
X132929069Y-118461695D01*
X132844142Y-118620583D01*
X132729849Y-118759849D01*
X132590583Y-118874142D01*
X132431695Y-118959069D01*
X132259294Y-119011367D01*
X132124931Y-119024600D01*
X132035069Y-119024600D01*
X131900706Y-119011367D01*
X131728305Y-118959069D01*
X131569417Y-118874142D01*
X131430151Y-118759849D01*
X131315858Y-118620583D01*
X131230931Y-118461695D01*
X131178633Y-118289294D01*
X131160975Y-118110000D01*
X131178633Y-117930706D01*
X131230931Y-117758305D01*
X131315858Y-117599417D01*
X131430151Y-117460151D01*
X131569417Y-117345858D01*
X131728305Y-117260931D01*
X131900706Y-117208633D01*
X132035069Y-117195400D01*
X132124931Y-117195400D01*
X132259294Y-117208633D01*
X132259294Y-117208633D01*
G37*
G36*
X129719294Y-117208633D02*
G01*
X129891695Y-117260931D01*
X130050583Y-117345858D01*
X130189849Y-117460151D01*
X130304142Y-117599417D01*
X130389069Y-117758305D01*
X130441367Y-117930706D01*
X130459025Y-118110000D01*
X130441367Y-118289294D01*
X130389069Y-118461695D01*
X130304142Y-118620583D01*
X130189849Y-118759849D01*
X130050583Y-118874142D01*
X129891695Y-118959069D01*
X129719294Y-119011367D01*
X129584931Y-119024600D01*
X129495069Y-119024600D01*
X129360706Y-119011367D01*
X129188305Y-118959069D01*
X129029417Y-118874142D01*
X128890151Y-118759849D01*
X128775858Y-118620583D01*
X128690931Y-118461695D01*
X128638633Y-118289294D01*
X128620975Y-118110000D01*
X128638633Y-117930706D01*
X128690931Y-117758305D01*
X128775858Y-117599417D01*
X128890151Y-117460151D01*
X129029417Y-117345858D01*
X129188305Y-117260931D01*
X129360706Y-117208633D01*
X129495069Y-117195400D01*
X129584931Y-117195400D01*
X129719294Y-117208633D01*
X129719294Y-117208633D01*
G37*
G36*
X124570443Y-117215519D02*
G01*
X124636627Y-117222037D01*
X124806466Y-117273557D01*
X124962991Y-117357222D01*
X124998729Y-117386552D01*
X125100186Y-117469814D01*
X125183448Y-117571271D01*
X125212778Y-117607009D01*
X125212779Y-117607011D01*
X125293648Y-117758304D01*
X125296443Y-117763534D01*
X125347963Y-117933373D01*
X125365359Y-118110000D01*
X125347963Y-118286627D01*
X125296443Y-118456466D01*
X125296442Y-118456468D01*
X125254611Y-118534728D01*
X125212778Y-118612991D01*
X125206547Y-118620583D01*
X125100186Y-118750186D01*
X124998729Y-118833448D01*
X124962991Y-118862778D01*
X124806466Y-118946443D01*
X124636627Y-118997963D01*
X124570443Y-119004481D01*
X124504260Y-119011000D01*
X124415740Y-119011000D01*
X124349557Y-119004481D01*
X124283373Y-118997963D01*
X124113534Y-118946443D01*
X123957009Y-118862778D01*
X123921271Y-118833448D01*
X123819814Y-118750186D01*
X123713453Y-118620583D01*
X123707222Y-118612991D01*
X123665389Y-118534728D01*
X123623558Y-118456468D01*
X123623557Y-118456466D01*
X123572037Y-118286627D01*
X123554641Y-118110000D01*
X123572037Y-117933373D01*
X123623557Y-117763534D01*
X123626353Y-117758304D01*
X123707221Y-117607011D01*
X123707222Y-117607009D01*
X123736552Y-117571271D01*
X123819814Y-117469814D01*
X123921271Y-117386552D01*
X123957009Y-117357222D01*
X124113534Y-117273557D01*
X124283373Y-117222037D01*
X124349557Y-117215519D01*
X124415740Y-117209000D01*
X124504260Y-117209000D01*
X124570443Y-117215519D01*
X124570443Y-117215519D01*
G37*
G36*
X132259294Y-114668633D02*
G01*
X132431695Y-114720931D01*
X132590583Y-114805858D01*
X132729849Y-114920151D01*
X132844142Y-115059417D01*
X132929069Y-115218305D01*
X132981367Y-115390706D01*
X132999025Y-115570000D01*
X132981367Y-115749294D01*
X132929069Y-115921695D01*
X132844142Y-116080583D01*
X132729849Y-116219849D01*
X132590583Y-116334142D01*
X132431695Y-116419069D01*
X132259294Y-116471367D01*
X132124931Y-116484600D01*
X132035069Y-116484600D01*
X131900706Y-116471367D01*
X131728305Y-116419069D01*
X131569417Y-116334142D01*
X131430151Y-116219849D01*
X131315858Y-116080583D01*
X131230931Y-115921695D01*
X131178633Y-115749294D01*
X131160975Y-115570000D01*
X131178633Y-115390706D01*
X131230931Y-115218305D01*
X131315858Y-115059417D01*
X131430151Y-114920151D01*
X131569417Y-114805858D01*
X131728305Y-114720931D01*
X131900706Y-114668633D01*
X132035069Y-114655400D01*
X132124931Y-114655400D01*
X132259294Y-114668633D01*
X132259294Y-114668633D01*
G37*
G36*
X129719294Y-114668633D02*
G01*
X129891695Y-114720931D01*
X130050583Y-114805858D01*
X130189849Y-114920151D01*
X130304142Y-115059417D01*
X130389069Y-115218305D01*
X130441367Y-115390706D01*
X130459025Y-115570000D01*
X130441367Y-115749294D01*
X130389069Y-115921695D01*
X130304142Y-116080583D01*
X130189849Y-116219849D01*
X130050583Y-116334142D01*
X129891695Y-116419069D01*
X129719294Y-116471367D01*
X129584931Y-116484600D01*
X129495069Y-116484600D01*
X129360706Y-116471367D01*
X129188305Y-116419069D01*
X129029417Y-116334142D01*
X128890151Y-116219849D01*
X128775858Y-116080583D01*
X128690931Y-115921695D01*
X128638633Y-115749294D01*
X128620975Y-115570000D01*
X128638633Y-115390706D01*
X128690931Y-115218305D01*
X128775858Y-115059417D01*
X128890151Y-114920151D01*
X129029417Y-114805858D01*
X129188305Y-114720931D01*
X129360706Y-114668633D01*
X129495069Y-114655400D01*
X129584931Y-114655400D01*
X129719294Y-114668633D01*
X129719294Y-114668633D01*
G37*
G36*
X124570443Y-114675519D02*
G01*
X124636627Y-114682037D01*
X124806466Y-114733557D01*
X124962991Y-114817222D01*
X124998729Y-114846552D01*
X125100186Y-114929814D01*
X125183448Y-115031271D01*
X125212778Y-115067009D01*
X125212779Y-115067011D01*
X125293648Y-115218304D01*
X125296443Y-115223534D01*
X125347963Y-115393373D01*
X125365359Y-115570000D01*
X125347963Y-115746627D01*
X125296443Y-115916466D01*
X125296442Y-115916468D01*
X125254610Y-115994729D01*
X125212778Y-116072991D01*
X125206547Y-116080583D01*
X125100186Y-116210186D01*
X124998729Y-116293448D01*
X124962991Y-116322778D01*
X124806466Y-116406443D01*
X124636627Y-116457963D01*
X124570442Y-116464482D01*
X124504260Y-116471000D01*
X124415740Y-116471000D01*
X124349558Y-116464482D01*
X124283373Y-116457963D01*
X124113534Y-116406443D01*
X123957009Y-116322778D01*
X123921271Y-116293448D01*
X123819814Y-116210186D01*
X123713453Y-116080583D01*
X123707222Y-116072991D01*
X123665390Y-115994729D01*
X123623558Y-115916468D01*
X123623557Y-115916466D01*
X123572037Y-115746627D01*
X123554641Y-115570000D01*
X123572037Y-115393373D01*
X123623557Y-115223534D01*
X123626353Y-115218304D01*
X123707221Y-115067011D01*
X123707222Y-115067009D01*
X123736552Y-115031271D01*
X123819814Y-114929814D01*
X123921271Y-114846552D01*
X123957009Y-114817222D01*
X124113534Y-114733557D01*
X124283373Y-114682037D01*
X124349557Y-114675519D01*
X124415740Y-114669000D01*
X124504260Y-114669000D01*
X124570443Y-114675519D01*
X124570443Y-114675519D01*
G37*
G36*
X130454600Y-113944600D02*
G01*
X128625400Y-113944600D01*
X128625400Y-112115400D01*
X130454600Y-112115400D01*
X130454600Y-113944600D01*
X130454600Y-113944600D01*
G37*
G36*
X132259294Y-112128633D02*
G01*
X132431695Y-112180931D01*
X132590583Y-112265858D01*
X132729849Y-112380151D01*
X132844142Y-112519417D01*
X132929069Y-112678305D01*
X132981367Y-112850706D01*
X132999025Y-113030000D01*
X132981367Y-113209294D01*
X132929069Y-113381695D01*
X132844142Y-113540583D01*
X132729849Y-113679849D01*
X132590583Y-113794142D01*
X132431695Y-113879069D01*
X132259294Y-113931367D01*
X132124931Y-113944600D01*
X132035069Y-113944600D01*
X131900706Y-113931367D01*
X131728305Y-113879069D01*
X131569417Y-113794142D01*
X131430151Y-113679849D01*
X131315858Y-113540583D01*
X131230931Y-113381695D01*
X131178633Y-113209294D01*
X131160975Y-113030000D01*
X131178633Y-112850706D01*
X131230931Y-112678305D01*
X131315858Y-112519417D01*
X131430151Y-112380151D01*
X131569417Y-112265858D01*
X131728305Y-112180931D01*
X131900706Y-112128633D01*
X132035069Y-112115400D01*
X132124931Y-112115400D01*
X132259294Y-112128633D01*
X132259294Y-112128633D01*
G37*
G36*
X124570443Y-112135519D02*
G01*
X124636627Y-112142037D01*
X124806466Y-112193557D01*
X124962991Y-112277222D01*
X124998729Y-112306552D01*
X125100186Y-112389814D01*
X125183448Y-112491271D01*
X125212778Y-112527009D01*
X125212779Y-112527011D01*
X125293648Y-112678304D01*
X125296443Y-112683534D01*
X125347963Y-112853373D01*
X125365359Y-113030000D01*
X125347963Y-113206627D01*
X125296443Y-113376466D01*
X125296442Y-113376468D01*
X125254611Y-113454728D01*
X125212778Y-113532991D01*
X125206547Y-113540583D01*
X125100186Y-113670186D01*
X124998729Y-113753448D01*
X124962991Y-113782778D01*
X124806466Y-113866443D01*
X124636627Y-113917963D01*
X124570443Y-113924481D01*
X124504260Y-113931000D01*
X124415740Y-113931000D01*
X124349557Y-113924481D01*
X124283373Y-113917963D01*
X124113534Y-113866443D01*
X123957009Y-113782778D01*
X123921271Y-113753448D01*
X123819814Y-113670186D01*
X123713453Y-113540583D01*
X123707222Y-113532991D01*
X123665390Y-113454729D01*
X123623558Y-113376468D01*
X123623557Y-113376466D01*
X123572037Y-113206627D01*
X123554641Y-113030000D01*
X123572037Y-112853373D01*
X123623557Y-112683534D01*
X123626353Y-112678304D01*
X123707221Y-112527011D01*
X123707222Y-112527009D01*
X123736552Y-112491271D01*
X123819814Y-112389814D01*
X123921271Y-112306552D01*
X123957009Y-112277222D01*
X124113534Y-112193557D01*
X124283373Y-112142037D01*
X124349557Y-112135519D01*
X124415740Y-112129000D01*
X124504260Y-112129000D01*
X124570443Y-112135519D01*
X124570443Y-112135519D01*
G37*
G36*
X120760443Y-112135519D02*
G01*
X120826627Y-112142037D01*
X120996466Y-112193557D01*
X121152991Y-112277222D01*
X121188729Y-112306552D01*
X121290186Y-112389814D01*
X121373448Y-112491271D01*
X121402778Y-112527009D01*
X121402779Y-112527011D01*
X121483648Y-112678304D01*
X121486443Y-112683534D01*
X121537963Y-112853373D01*
X121555359Y-113030000D01*
X121537963Y-113206627D01*
X121486443Y-113376466D01*
X121486442Y-113376468D01*
X121444611Y-113454728D01*
X121402778Y-113532991D01*
X121396547Y-113540583D01*
X121290186Y-113670186D01*
X121188729Y-113753448D01*
X121152991Y-113782778D01*
X120996466Y-113866443D01*
X120826627Y-113917963D01*
X120760443Y-113924481D01*
X120694260Y-113931000D01*
X120605740Y-113931000D01*
X120539557Y-113924481D01*
X120473373Y-113917963D01*
X120303534Y-113866443D01*
X120147009Y-113782778D01*
X120111271Y-113753448D01*
X120009814Y-113670186D01*
X119903453Y-113540583D01*
X119897222Y-113532991D01*
X119855390Y-113454729D01*
X119813558Y-113376468D01*
X119813557Y-113376466D01*
X119762037Y-113206627D01*
X119744641Y-113030000D01*
X119762037Y-112853373D01*
X119813557Y-112683534D01*
X119816353Y-112678304D01*
X119897221Y-112527011D01*
X119897222Y-112527009D01*
X119926552Y-112491271D01*
X120009814Y-112389814D01*
X120111271Y-112306552D01*
X120147009Y-112277222D01*
X120303534Y-112193557D01*
X120473373Y-112142037D01*
X120539557Y-112135519D01*
X120605740Y-112129000D01*
X120694260Y-112129000D01*
X120760443Y-112135519D01*
X120760443Y-112135519D01*
G37*
G36*
X118220443Y-112135519D02*
G01*
X118286627Y-112142037D01*
X118456466Y-112193557D01*
X118612991Y-112277222D01*
X118648729Y-112306552D01*
X118750186Y-112389814D01*
X118833448Y-112491271D01*
X118862778Y-112527009D01*
X118862779Y-112527011D01*
X118943648Y-112678304D01*
X118946443Y-112683534D01*
X118997963Y-112853373D01*
X119015359Y-113030000D01*
X118997963Y-113206627D01*
X118946443Y-113376466D01*
X118946442Y-113376468D01*
X118904611Y-113454728D01*
X118862778Y-113532991D01*
X118856547Y-113540583D01*
X118750186Y-113670186D01*
X118648729Y-113753448D01*
X118612991Y-113782778D01*
X118456466Y-113866443D01*
X118286627Y-113917963D01*
X118220443Y-113924481D01*
X118154260Y-113931000D01*
X118065740Y-113931000D01*
X117999557Y-113924481D01*
X117933373Y-113917963D01*
X117763534Y-113866443D01*
X117607009Y-113782778D01*
X117571271Y-113753448D01*
X117469814Y-113670186D01*
X117363453Y-113540583D01*
X117357222Y-113532991D01*
X117315390Y-113454729D01*
X117273558Y-113376468D01*
X117273557Y-113376466D01*
X117222037Y-113206627D01*
X117204641Y-113030000D01*
X117222037Y-112853373D01*
X117273557Y-112683534D01*
X117276353Y-112678304D01*
X117357221Y-112527011D01*
X117357222Y-112527009D01*
X117386552Y-112491271D01*
X117469814Y-112389814D01*
X117571271Y-112306552D01*
X117607009Y-112277222D01*
X117763534Y-112193557D01*
X117933373Y-112142037D01*
X117999557Y-112135519D01*
X118065740Y-112129000D01*
X118154260Y-112129000D01*
X118220443Y-112135519D01*
X118220443Y-112135519D01*
G37*
G36*
X114410443Y-112135519D02*
G01*
X114476627Y-112142037D01*
X114646466Y-112193557D01*
X114802991Y-112277222D01*
X114838729Y-112306552D01*
X114940186Y-112389814D01*
X115023448Y-112491271D01*
X115052778Y-112527009D01*
X115052779Y-112527011D01*
X115133648Y-112678304D01*
X115136443Y-112683534D01*
X115187963Y-112853373D01*
X115205359Y-113030000D01*
X115187963Y-113206627D01*
X115136443Y-113376466D01*
X115136442Y-113376468D01*
X115094611Y-113454728D01*
X115052778Y-113532991D01*
X115046547Y-113540583D01*
X114940186Y-113670186D01*
X114838729Y-113753448D01*
X114802991Y-113782778D01*
X114646466Y-113866443D01*
X114476627Y-113917963D01*
X114410443Y-113924481D01*
X114344260Y-113931000D01*
X114255740Y-113931000D01*
X114189557Y-113924481D01*
X114123373Y-113917963D01*
X113953534Y-113866443D01*
X113797009Y-113782778D01*
X113761271Y-113753448D01*
X113659814Y-113670186D01*
X113553453Y-113540583D01*
X113547222Y-113532991D01*
X113505390Y-113454729D01*
X113463558Y-113376468D01*
X113463557Y-113376466D01*
X113412037Y-113206627D01*
X113394641Y-113030000D01*
X113412037Y-112853373D01*
X113463557Y-112683534D01*
X113466353Y-112678304D01*
X113547221Y-112527011D01*
X113547222Y-112527009D01*
X113576552Y-112491271D01*
X113659814Y-112389814D01*
X113761271Y-112306552D01*
X113797009Y-112277222D01*
X113953534Y-112193557D01*
X114123373Y-112142037D01*
X114189557Y-112135519D01*
X114255740Y-112129000D01*
X114344260Y-112129000D01*
X114410443Y-112135519D01*
X114410443Y-112135519D01*
G37*
G36*
X111870443Y-112135519D02*
G01*
X111936627Y-112142037D01*
X112106466Y-112193557D01*
X112262991Y-112277222D01*
X112298729Y-112306552D01*
X112400186Y-112389814D01*
X112483448Y-112491271D01*
X112512778Y-112527009D01*
X112512779Y-112527011D01*
X112593648Y-112678304D01*
X112596443Y-112683534D01*
X112647963Y-112853373D01*
X112665359Y-113030000D01*
X112647963Y-113206627D01*
X112596443Y-113376466D01*
X112596442Y-113376468D01*
X112554611Y-113454728D01*
X112512778Y-113532991D01*
X112506547Y-113540583D01*
X112400186Y-113670186D01*
X112298729Y-113753448D01*
X112262991Y-113782778D01*
X112106466Y-113866443D01*
X111936627Y-113917963D01*
X111870443Y-113924481D01*
X111804260Y-113931000D01*
X111715740Y-113931000D01*
X111649557Y-113924481D01*
X111583373Y-113917963D01*
X111413534Y-113866443D01*
X111257009Y-113782778D01*
X111221271Y-113753448D01*
X111119814Y-113670186D01*
X111013453Y-113540583D01*
X111007222Y-113532991D01*
X110965390Y-113454729D01*
X110923558Y-113376468D01*
X110923557Y-113376466D01*
X110872037Y-113206627D01*
X110854641Y-113030000D01*
X110872037Y-112853373D01*
X110923557Y-112683534D01*
X110926353Y-112678304D01*
X111007221Y-112527011D01*
X111007222Y-112527009D01*
X111036552Y-112491271D01*
X111119814Y-112389814D01*
X111221271Y-112306552D01*
X111257009Y-112277222D01*
X111413534Y-112193557D01*
X111583373Y-112142037D01*
X111649557Y-112135519D01*
X111715740Y-112129000D01*
X111804260Y-112129000D01*
X111870443Y-112135519D01*
X111870443Y-112135519D01*
G37*
G36*
X114410442Y-109595518D02*
G01*
X114476627Y-109602037D01*
X114646466Y-109653557D01*
X114802991Y-109737222D01*
X114838729Y-109766552D01*
X114940186Y-109849814D01*
X115023448Y-109951271D01*
X115052778Y-109987009D01*
X115136443Y-110143534D01*
X115187963Y-110313373D01*
X115205359Y-110490000D01*
X115187963Y-110666627D01*
X115136443Y-110836466D01*
X115052778Y-110992991D01*
X115023448Y-111028729D01*
X114940186Y-111130186D01*
X114838729Y-111213448D01*
X114802991Y-111242778D01*
X114646466Y-111326443D01*
X114476627Y-111377963D01*
X114410443Y-111384481D01*
X114344260Y-111391000D01*
X114255740Y-111391000D01*
X114189557Y-111384481D01*
X114123373Y-111377963D01*
X113953534Y-111326443D01*
X113797009Y-111242778D01*
X113761271Y-111213448D01*
X113659814Y-111130186D01*
X113576552Y-111028729D01*
X113547222Y-110992991D01*
X113463557Y-110836466D01*
X113412037Y-110666627D01*
X113394641Y-110490000D01*
X113412037Y-110313373D01*
X113463557Y-110143534D01*
X113547222Y-109987009D01*
X113576552Y-109951271D01*
X113659814Y-109849814D01*
X113761271Y-109766552D01*
X113797009Y-109737222D01*
X113953534Y-109653557D01*
X114123373Y-109602037D01*
X114189558Y-109595518D01*
X114255740Y-109589000D01*
X114344260Y-109589000D01*
X114410442Y-109595518D01*
X114410442Y-109595518D01*
G37*
G36*
X124570442Y-109595518D02*
G01*
X124636627Y-109602037D01*
X124806466Y-109653557D01*
X124962991Y-109737222D01*
X124998729Y-109766552D01*
X125100186Y-109849814D01*
X125183448Y-109951271D01*
X125212778Y-109987009D01*
X125296443Y-110143534D01*
X125347963Y-110313373D01*
X125365359Y-110490000D01*
X125347963Y-110666627D01*
X125296443Y-110836466D01*
X125212778Y-110992991D01*
X125183448Y-111028729D01*
X125100186Y-111130186D01*
X124998729Y-111213448D01*
X124962991Y-111242778D01*
X124806466Y-111326443D01*
X124636627Y-111377963D01*
X124570443Y-111384481D01*
X124504260Y-111391000D01*
X124415740Y-111391000D01*
X124349557Y-111384481D01*
X124283373Y-111377963D01*
X124113534Y-111326443D01*
X123957009Y-111242778D01*
X123921271Y-111213448D01*
X123819814Y-111130186D01*
X123736552Y-111028729D01*
X123707222Y-110992991D01*
X123623557Y-110836466D01*
X123572037Y-110666627D01*
X123554641Y-110490000D01*
X123572037Y-110313373D01*
X123623557Y-110143534D01*
X123707222Y-109987009D01*
X123736552Y-109951271D01*
X123819814Y-109849814D01*
X123921271Y-109766552D01*
X123957009Y-109737222D01*
X124113534Y-109653557D01*
X124283373Y-109602037D01*
X124349558Y-109595518D01*
X124415740Y-109589000D01*
X124504260Y-109589000D01*
X124570442Y-109595518D01*
X124570442Y-109595518D01*
G37*
G36*
X111870442Y-109595518D02*
G01*
X111936627Y-109602037D01*
X112106466Y-109653557D01*
X112262991Y-109737222D01*
X112298729Y-109766552D01*
X112400186Y-109849814D01*
X112483448Y-109951271D01*
X112512778Y-109987009D01*
X112596443Y-110143534D01*
X112647963Y-110313373D01*
X112665359Y-110490000D01*
X112647963Y-110666627D01*
X112596443Y-110836466D01*
X112512778Y-110992991D01*
X112483448Y-111028729D01*
X112400186Y-111130186D01*
X112298729Y-111213448D01*
X112262991Y-111242778D01*
X112106466Y-111326443D01*
X111936627Y-111377963D01*
X111870443Y-111384481D01*
X111804260Y-111391000D01*
X111715740Y-111391000D01*
X111649557Y-111384481D01*
X111583373Y-111377963D01*
X111413534Y-111326443D01*
X111257009Y-111242778D01*
X111221271Y-111213448D01*
X111119814Y-111130186D01*
X111036552Y-111028729D01*
X111007222Y-110992991D01*
X110923557Y-110836466D01*
X110872037Y-110666627D01*
X110854641Y-110490000D01*
X110872037Y-110313373D01*
X110923557Y-110143534D01*
X111007222Y-109987009D01*
X111036552Y-109951271D01*
X111119814Y-109849814D01*
X111221271Y-109766552D01*
X111257009Y-109737222D01*
X111413534Y-109653557D01*
X111583373Y-109602037D01*
X111649558Y-109595518D01*
X111715740Y-109589000D01*
X111804260Y-109589000D01*
X111870442Y-109595518D01*
X111870442Y-109595518D01*
G37*
G36*
X118220442Y-109595518D02*
G01*
X118286627Y-109602037D01*
X118456466Y-109653557D01*
X118612991Y-109737222D01*
X118648729Y-109766552D01*
X118750186Y-109849814D01*
X118833448Y-109951271D01*
X118862778Y-109987009D01*
X118946443Y-110143534D01*
X118997963Y-110313373D01*
X119015359Y-110490000D01*
X118997963Y-110666627D01*
X118946443Y-110836466D01*
X118862778Y-110992991D01*
X118833448Y-111028729D01*
X118750186Y-111130186D01*
X118648729Y-111213448D01*
X118612991Y-111242778D01*
X118456466Y-111326443D01*
X118286627Y-111377963D01*
X118220443Y-111384481D01*
X118154260Y-111391000D01*
X118065740Y-111391000D01*
X117999557Y-111384481D01*
X117933373Y-111377963D01*
X117763534Y-111326443D01*
X117607009Y-111242778D01*
X117571271Y-111213448D01*
X117469814Y-111130186D01*
X117386552Y-111028729D01*
X117357222Y-110992991D01*
X117273557Y-110836466D01*
X117222037Y-110666627D01*
X117204641Y-110490000D01*
X117222037Y-110313373D01*
X117273557Y-110143534D01*
X117357222Y-109987009D01*
X117386552Y-109951271D01*
X117469814Y-109849814D01*
X117571271Y-109766552D01*
X117607009Y-109737222D01*
X117763534Y-109653557D01*
X117933373Y-109602037D01*
X117999558Y-109595518D01*
X118065740Y-109589000D01*
X118154260Y-109589000D01*
X118220442Y-109595518D01*
X118220442Y-109595518D01*
G37*
G36*
X120760442Y-109595518D02*
G01*
X120826627Y-109602037D01*
X120996466Y-109653557D01*
X121152991Y-109737222D01*
X121188729Y-109766552D01*
X121290186Y-109849814D01*
X121373448Y-109951271D01*
X121402778Y-109987009D01*
X121486443Y-110143534D01*
X121537963Y-110313373D01*
X121555359Y-110490000D01*
X121537963Y-110666627D01*
X121486443Y-110836466D01*
X121402778Y-110992991D01*
X121373448Y-111028729D01*
X121290186Y-111130186D01*
X121188729Y-111213448D01*
X121152991Y-111242778D01*
X120996466Y-111326443D01*
X120826627Y-111377963D01*
X120760443Y-111384481D01*
X120694260Y-111391000D01*
X120605740Y-111391000D01*
X120539557Y-111384481D01*
X120473373Y-111377963D01*
X120303534Y-111326443D01*
X120147009Y-111242778D01*
X120111271Y-111213448D01*
X120009814Y-111130186D01*
X119926552Y-111028729D01*
X119897222Y-110992991D01*
X119813557Y-110836466D01*
X119762037Y-110666627D01*
X119744641Y-110490000D01*
X119762037Y-110313373D01*
X119813557Y-110143534D01*
X119897222Y-109987009D01*
X119926552Y-109951271D01*
X120009814Y-109849814D01*
X120111271Y-109766552D01*
X120147009Y-109737222D01*
X120303534Y-109653557D01*
X120473373Y-109602037D01*
X120539558Y-109595518D01*
X120605740Y-109589000D01*
X120694260Y-109589000D01*
X120760442Y-109595518D01*
X120760442Y-109595518D01*
G37*
G36*
X111870442Y-107055518D02*
G01*
X111936627Y-107062037D01*
X112106466Y-107113557D01*
X112262991Y-107197222D01*
X112298729Y-107226552D01*
X112400186Y-107309814D01*
X112483448Y-107411271D01*
X112512778Y-107447009D01*
X112596443Y-107603534D01*
X112647963Y-107773373D01*
X112665359Y-107950000D01*
X112647963Y-108126627D01*
X112596443Y-108296466D01*
X112512778Y-108452991D01*
X112483448Y-108488729D01*
X112400186Y-108590186D01*
X112298729Y-108673448D01*
X112262991Y-108702778D01*
X112106466Y-108786443D01*
X111936627Y-108837963D01*
X111870442Y-108844482D01*
X111804260Y-108851000D01*
X111715740Y-108851000D01*
X111649558Y-108844482D01*
X111583373Y-108837963D01*
X111413534Y-108786443D01*
X111257009Y-108702778D01*
X111221271Y-108673448D01*
X111119814Y-108590186D01*
X111036552Y-108488729D01*
X111007222Y-108452991D01*
X110923557Y-108296466D01*
X110872037Y-108126627D01*
X110854641Y-107950000D01*
X110872037Y-107773373D01*
X110923557Y-107603534D01*
X111007222Y-107447009D01*
X111036552Y-107411271D01*
X111119814Y-107309814D01*
X111221271Y-107226552D01*
X111257009Y-107197222D01*
X111413534Y-107113557D01*
X111583373Y-107062037D01*
X111649558Y-107055518D01*
X111715740Y-107049000D01*
X111804260Y-107049000D01*
X111870442Y-107055518D01*
X111870442Y-107055518D01*
G37*
G36*
X118220442Y-107055518D02*
G01*
X118286627Y-107062037D01*
X118456466Y-107113557D01*
X118612991Y-107197222D01*
X118648729Y-107226552D01*
X118750186Y-107309814D01*
X118833448Y-107411271D01*
X118862778Y-107447009D01*
X118946443Y-107603534D01*
X118997963Y-107773373D01*
X119015359Y-107950000D01*
X118997963Y-108126627D01*
X118946443Y-108296466D01*
X118862778Y-108452991D01*
X118833448Y-108488729D01*
X118750186Y-108590186D01*
X118648729Y-108673448D01*
X118612991Y-108702778D01*
X118456466Y-108786443D01*
X118286627Y-108837963D01*
X118220442Y-108844482D01*
X118154260Y-108851000D01*
X118065740Y-108851000D01*
X117999558Y-108844482D01*
X117933373Y-108837963D01*
X117763534Y-108786443D01*
X117607009Y-108702778D01*
X117571271Y-108673448D01*
X117469814Y-108590186D01*
X117386552Y-108488729D01*
X117357222Y-108452991D01*
X117273557Y-108296466D01*
X117222037Y-108126627D01*
X117204641Y-107950000D01*
X117222037Y-107773373D01*
X117273557Y-107603534D01*
X117357222Y-107447009D01*
X117386552Y-107411271D01*
X117469814Y-107309814D01*
X117571271Y-107226552D01*
X117607009Y-107197222D01*
X117763534Y-107113557D01*
X117933373Y-107062037D01*
X117999558Y-107055518D01*
X118065740Y-107049000D01*
X118154260Y-107049000D01*
X118220442Y-107055518D01*
X118220442Y-107055518D01*
G37*
G36*
X120760442Y-107055518D02*
G01*
X120826627Y-107062037D01*
X120996466Y-107113557D01*
X121152991Y-107197222D01*
X121188729Y-107226552D01*
X121290186Y-107309814D01*
X121373448Y-107411271D01*
X121402778Y-107447009D01*
X121486443Y-107603534D01*
X121537963Y-107773373D01*
X121555359Y-107950000D01*
X121537963Y-108126627D01*
X121486443Y-108296466D01*
X121402778Y-108452991D01*
X121373448Y-108488729D01*
X121290186Y-108590186D01*
X121188729Y-108673448D01*
X121152991Y-108702778D01*
X120996466Y-108786443D01*
X120826627Y-108837963D01*
X120760442Y-108844482D01*
X120694260Y-108851000D01*
X120605740Y-108851000D01*
X120539558Y-108844482D01*
X120473373Y-108837963D01*
X120303534Y-108786443D01*
X120147009Y-108702778D01*
X120111271Y-108673448D01*
X120009814Y-108590186D01*
X119926552Y-108488729D01*
X119897222Y-108452991D01*
X119813557Y-108296466D01*
X119762037Y-108126627D01*
X119744641Y-107950000D01*
X119762037Y-107773373D01*
X119813557Y-107603534D01*
X119897222Y-107447009D01*
X119926552Y-107411271D01*
X120009814Y-107309814D01*
X120111271Y-107226552D01*
X120147009Y-107197222D01*
X120303534Y-107113557D01*
X120473373Y-107062037D01*
X120539558Y-107055518D01*
X120605740Y-107049000D01*
X120694260Y-107049000D01*
X120760442Y-107055518D01*
X120760442Y-107055518D01*
G37*
G36*
X114410442Y-107055518D02*
G01*
X114476627Y-107062037D01*
X114646466Y-107113557D01*
X114802991Y-107197222D01*
X114838729Y-107226552D01*
X114940186Y-107309814D01*
X115023448Y-107411271D01*
X115052778Y-107447009D01*
X115136443Y-107603534D01*
X115187963Y-107773373D01*
X115205359Y-107950000D01*
X115187963Y-108126627D01*
X115136443Y-108296466D01*
X115052778Y-108452991D01*
X115023448Y-108488729D01*
X114940186Y-108590186D01*
X114838729Y-108673448D01*
X114802991Y-108702778D01*
X114646466Y-108786443D01*
X114476627Y-108837963D01*
X114410442Y-108844482D01*
X114344260Y-108851000D01*
X114255740Y-108851000D01*
X114189558Y-108844482D01*
X114123373Y-108837963D01*
X113953534Y-108786443D01*
X113797009Y-108702778D01*
X113761271Y-108673448D01*
X113659814Y-108590186D01*
X113576552Y-108488729D01*
X113547222Y-108452991D01*
X113463557Y-108296466D01*
X113412037Y-108126627D01*
X113394641Y-107950000D01*
X113412037Y-107773373D01*
X113463557Y-107603534D01*
X113547222Y-107447009D01*
X113576552Y-107411271D01*
X113659814Y-107309814D01*
X113761271Y-107226552D01*
X113797009Y-107197222D01*
X113953534Y-107113557D01*
X114123373Y-107062037D01*
X114189558Y-107055518D01*
X114255740Y-107049000D01*
X114344260Y-107049000D01*
X114410442Y-107055518D01*
X114410442Y-107055518D01*
G37*
G36*
X124570442Y-107055518D02*
G01*
X124636627Y-107062037D01*
X124806466Y-107113557D01*
X124962991Y-107197222D01*
X124998729Y-107226552D01*
X125100186Y-107309814D01*
X125183448Y-107411271D01*
X125212778Y-107447009D01*
X125296443Y-107603534D01*
X125347963Y-107773373D01*
X125365359Y-107950000D01*
X125347963Y-108126627D01*
X125296443Y-108296466D01*
X125212778Y-108452991D01*
X125183448Y-108488729D01*
X125100186Y-108590186D01*
X124998729Y-108673448D01*
X124962991Y-108702778D01*
X124806466Y-108786443D01*
X124636627Y-108837963D01*
X124570442Y-108844482D01*
X124504260Y-108851000D01*
X124415740Y-108851000D01*
X124349558Y-108844482D01*
X124283373Y-108837963D01*
X124113534Y-108786443D01*
X123957009Y-108702778D01*
X123921271Y-108673448D01*
X123819814Y-108590186D01*
X123736552Y-108488729D01*
X123707222Y-108452991D01*
X123623557Y-108296466D01*
X123572037Y-108126627D01*
X123554641Y-107950000D01*
X123572037Y-107773373D01*
X123623557Y-107603534D01*
X123707222Y-107447009D01*
X123736552Y-107411271D01*
X123819814Y-107309814D01*
X123921271Y-107226552D01*
X123957009Y-107197222D01*
X124113534Y-107113557D01*
X124283373Y-107062037D01*
X124349558Y-107055518D01*
X124415740Y-107049000D01*
X124504260Y-107049000D01*
X124570442Y-107055518D01*
X124570442Y-107055518D01*
G37*
G36*
X124570443Y-104515519D02*
G01*
X124636627Y-104522037D01*
X124806466Y-104573557D01*
X124962991Y-104657222D01*
X124998729Y-104686552D01*
X125100186Y-104769814D01*
X125183448Y-104871271D01*
X125212778Y-104907009D01*
X125296443Y-105063534D01*
X125347963Y-105233373D01*
X125365359Y-105410000D01*
X125347963Y-105586627D01*
X125296443Y-105756466D01*
X125212778Y-105912991D01*
X125183448Y-105948729D01*
X125100186Y-106050186D01*
X124998729Y-106133448D01*
X124962991Y-106162778D01*
X124806466Y-106246443D01*
X124636627Y-106297963D01*
X124570442Y-106304482D01*
X124504260Y-106311000D01*
X124415740Y-106311000D01*
X124349558Y-106304482D01*
X124283373Y-106297963D01*
X124113534Y-106246443D01*
X123957009Y-106162778D01*
X123921271Y-106133448D01*
X123819814Y-106050186D01*
X123736552Y-105948729D01*
X123707222Y-105912991D01*
X123623557Y-105756466D01*
X123572037Y-105586627D01*
X123554641Y-105410000D01*
X123572037Y-105233373D01*
X123623557Y-105063534D01*
X123707222Y-104907009D01*
X123736552Y-104871271D01*
X123819814Y-104769814D01*
X123921271Y-104686552D01*
X123957009Y-104657222D01*
X124113534Y-104573557D01*
X124283373Y-104522037D01*
X124349557Y-104515519D01*
X124415740Y-104509000D01*
X124504260Y-104509000D01*
X124570443Y-104515519D01*
X124570443Y-104515519D01*
G37*
G36*
X120760443Y-104515519D02*
G01*
X120826627Y-104522037D01*
X120996466Y-104573557D01*
X121152991Y-104657222D01*
X121188729Y-104686552D01*
X121290186Y-104769814D01*
X121373448Y-104871271D01*
X121402778Y-104907009D01*
X121486443Y-105063534D01*
X121537963Y-105233373D01*
X121555359Y-105410000D01*
X121537963Y-105586627D01*
X121486443Y-105756466D01*
X121402778Y-105912991D01*
X121373448Y-105948729D01*
X121290186Y-106050186D01*
X121188729Y-106133448D01*
X121152991Y-106162778D01*
X120996466Y-106246443D01*
X120826627Y-106297963D01*
X120760442Y-106304482D01*
X120694260Y-106311000D01*
X120605740Y-106311000D01*
X120539558Y-106304482D01*
X120473373Y-106297963D01*
X120303534Y-106246443D01*
X120147009Y-106162778D01*
X120111271Y-106133448D01*
X120009814Y-106050186D01*
X119926552Y-105948729D01*
X119897222Y-105912991D01*
X119813557Y-105756466D01*
X119762037Y-105586627D01*
X119744641Y-105410000D01*
X119762037Y-105233373D01*
X119813557Y-105063534D01*
X119897222Y-104907009D01*
X119926552Y-104871271D01*
X120009814Y-104769814D01*
X120111271Y-104686552D01*
X120147009Y-104657222D01*
X120303534Y-104573557D01*
X120473373Y-104522037D01*
X120539557Y-104515519D01*
X120605740Y-104509000D01*
X120694260Y-104509000D01*
X120760443Y-104515519D01*
X120760443Y-104515519D01*
G37*
G36*
X118220443Y-104515519D02*
G01*
X118286627Y-104522037D01*
X118456466Y-104573557D01*
X118612991Y-104657222D01*
X118648729Y-104686552D01*
X118750186Y-104769814D01*
X118833448Y-104871271D01*
X118862778Y-104907009D01*
X118946443Y-105063534D01*
X118997963Y-105233373D01*
X119015359Y-105410000D01*
X118997963Y-105586627D01*
X118946443Y-105756466D01*
X118862778Y-105912991D01*
X118833448Y-105948729D01*
X118750186Y-106050186D01*
X118648729Y-106133448D01*
X118612991Y-106162778D01*
X118456466Y-106246443D01*
X118286627Y-106297963D01*
X118220442Y-106304482D01*
X118154260Y-106311000D01*
X118065740Y-106311000D01*
X117999558Y-106304482D01*
X117933373Y-106297963D01*
X117763534Y-106246443D01*
X117607009Y-106162778D01*
X117571271Y-106133448D01*
X117469814Y-106050186D01*
X117386552Y-105948729D01*
X117357222Y-105912991D01*
X117273557Y-105756466D01*
X117222037Y-105586627D01*
X117204641Y-105410000D01*
X117222037Y-105233373D01*
X117273557Y-105063534D01*
X117357222Y-104907009D01*
X117386552Y-104871271D01*
X117469814Y-104769814D01*
X117571271Y-104686552D01*
X117607009Y-104657222D01*
X117763534Y-104573557D01*
X117933373Y-104522037D01*
X117999557Y-104515519D01*
X118065740Y-104509000D01*
X118154260Y-104509000D01*
X118220443Y-104515519D01*
X118220443Y-104515519D01*
G37*
G36*
X114410443Y-104515519D02*
G01*
X114476627Y-104522037D01*
X114646466Y-104573557D01*
X114802991Y-104657222D01*
X114838729Y-104686552D01*
X114940186Y-104769814D01*
X115023448Y-104871271D01*
X115052778Y-104907009D01*
X115136443Y-105063534D01*
X115187963Y-105233373D01*
X115205359Y-105410000D01*
X115187963Y-105586627D01*
X115136443Y-105756466D01*
X115052778Y-105912991D01*
X115023448Y-105948729D01*
X114940186Y-106050186D01*
X114838729Y-106133448D01*
X114802991Y-106162778D01*
X114646466Y-106246443D01*
X114476627Y-106297963D01*
X114410442Y-106304482D01*
X114344260Y-106311000D01*
X114255740Y-106311000D01*
X114189558Y-106304482D01*
X114123373Y-106297963D01*
X113953534Y-106246443D01*
X113797009Y-106162778D01*
X113761271Y-106133448D01*
X113659814Y-106050186D01*
X113576552Y-105948729D01*
X113547222Y-105912991D01*
X113463557Y-105756466D01*
X113412037Y-105586627D01*
X113394641Y-105410000D01*
X113412037Y-105233373D01*
X113463557Y-105063534D01*
X113547222Y-104907009D01*
X113576552Y-104871271D01*
X113659814Y-104769814D01*
X113761271Y-104686552D01*
X113797009Y-104657222D01*
X113953534Y-104573557D01*
X114123373Y-104522037D01*
X114189557Y-104515519D01*
X114255740Y-104509000D01*
X114344260Y-104509000D01*
X114410443Y-104515519D01*
X114410443Y-104515519D01*
G37*
G36*
X111870443Y-104515519D02*
G01*
X111936627Y-104522037D01*
X112106466Y-104573557D01*
X112262991Y-104657222D01*
X112298729Y-104686552D01*
X112400186Y-104769814D01*
X112483448Y-104871271D01*
X112512778Y-104907009D01*
X112596443Y-105063534D01*
X112647963Y-105233373D01*
X112665359Y-105410000D01*
X112647963Y-105586627D01*
X112596443Y-105756466D01*
X112512778Y-105912991D01*
X112483448Y-105948729D01*
X112400186Y-106050186D01*
X112298729Y-106133448D01*
X112262991Y-106162778D01*
X112106466Y-106246443D01*
X111936627Y-106297963D01*
X111870442Y-106304482D01*
X111804260Y-106311000D01*
X111715740Y-106311000D01*
X111649558Y-106304482D01*
X111583373Y-106297963D01*
X111413534Y-106246443D01*
X111257009Y-106162778D01*
X111221271Y-106133448D01*
X111119814Y-106050186D01*
X111036552Y-105948729D01*
X111007222Y-105912991D01*
X110923557Y-105756466D01*
X110872037Y-105586627D01*
X110854641Y-105410000D01*
X110872037Y-105233373D01*
X110923557Y-105063534D01*
X111007222Y-104907009D01*
X111036552Y-104871271D01*
X111119814Y-104769814D01*
X111221271Y-104686552D01*
X111257009Y-104657222D01*
X111413534Y-104573557D01*
X111583373Y-104522037D01*
X111649557Y-104515519D01*
X111715740Y-104509000D01*
X111804260Y-104509000D01*
X111870443Y-104515519D01*
X111870443Y-104515519D01*
G37*
G36*
X118220442Y-101975518D02*
G01*
X118286627Y-101982037D01*
X118456466Y-102033557D01*
X118612991Y-102117222D01*
X118648729Y-102146552D01*
X118750186Y-102229814D01*
X118833448Y-102331271D01*
X118862778Y-102367009D01*
X118946443Y-102523534D01*
X118997963Y-102693373D01*
X119015359Y-102870000D01*
X118997963Y-103046627D01*
X118946443Y-103216466D01*
X118862778Y-103372991D01*
X118833448Y-103408729D01*
X118750186Y-103510186D01*
X118648729Y-103593448D01*
X118612991Y-103622778D01*
X118456466Y-103706443D01*
X118286627Y-103757963D01*
X118220443Y-103764481D01*
X118154260Y-103771000D01*
X118065740Y-103771000D01*
X117999557Y-103764481D01*
X117933373Y-103757963D01*
X117763534Y-103706443D01*
X117607009Y-103622778D01*
X117571271Y-103593448D01*
X117469814Y-103510186D01*
X117386552Y-103408729D01*
X117357222Y-103372991D01*
X117273557Y-103216466D01*
X117222037Y-103046627D01*
X117204641Y-102870000D01*
X117222037Y-102693373D01*
X117273557Y-102523534D01*
X117357222Y-102367009D01*
X117386552Y-102331271D01*
X117469814Y-102229814D01*
X117571271Y-102146552D01*
X117607009Y-102117222D01*
X117763534Y-102033557D01*
X117933373Y-101982037D01*
X117999558Y-101975518D01*
X118065740Y-101969000D01*
X118154260Y-101969000D01*
X118220442Y-101975518D01*
X118220442Y-101975518D01*
G37*
G36*
X114410442Y-101975518D02*
G01*
X114476627Y-101982037D01*
X114646466Y-102033557D01*
X114802991Y-102117222D01*
X114838729Y-102146552D01*
X114940186Y-102229814D01*
X115023448Y-102331271D01*
X115052778Y-102367009D01*
X115136443Y-102523534D01*
X115187963Y-102693373D01*
X115205359Y-102870000D01*
X115187963Y-103046627D01*
X115136443Y-103216466D01*
X115052778Y-103372991D01*
X115023448Y-103408729D01*
X114940186Y-103510186D01*
X114838729Y-103593448D01*
X114802991Y-103622778D01*
X114646466Y-103706443D01*
X114476627Y-103757963D01*
X114410443Y-103764481D01*
X114344260Y-103771000D01*
X114255740Y-103771000D01*
X114189557Y-103764481D01*
X114123373Y-103757963D01*
X113953534Y-103706443D01*
X113797009Y-103622778D01*
X113761271Y-103593448D01*
X113659814Y-103510186D01*
X113576552Y-103408729D01*
X113547222Y-103372991D01*
X113463557Y-103216466D01*
X113412037Y-103046627D01*
X113394641Y-102870000D01*
X113412037Y-102693373D01*
X113463557Y-102523534D01*
X113547222Y-102367009D01*
X113576552Y-102331271D01*
X113659814Y-102229814D01*
X113761271Y-102146552D01*
X113797009Y-102117222D01*
X113953534Y-102033557D01*
X114123373Y-101982037D01*
X114189558Y-101975518D01*
X114255740Y-101969000D01*
X114344260Y-101969000D01*
X114410442Y-101975518D01*
X114410442Y-101975518D01*
G37*
G36*
X124570442Y-101975518D02*
G01*
X124636627Y-101982037D01*
X124806466Y-102033557D01*
X124962991Y-102117222D01*
X124998729Y-102146552D01*
X125100186Y-102229814D01*
X125183448Y-102331271D01*
X125212778Y-102367009D01*
X125296443Y-102523534D01*
X125347963Y-102693373D01*
X125365359Y-102870000D01*
X125347963Y-103046627D01*
X125296443Y-103216466D01*
X125212778Y-103372991D01*
X125183448Y-103408729D01*
X125100186Y-103510186D01*
X124998729Y-103593448D01*
X124962991Y-103622778D01*
X124806466Y-103706443D01*
X124636627Y-103757963D01*
X124570443Y-103764481D01*
X124504260Y-103771000D01*
X124415740Y-103771000D01*
X124349557Y-103764481D01*
X124283373Y-103757963D01*
X124113534Y-103706443D01*
X123957009Y-103622778D01*
X123921271Y-103593448D01*
X123819814Y-103510186D01*
X123736552Y-103408729D01*
X123707222Y-103372991D01*
X123623557Y-103216466D01*
X123572037Y-103046627D01*
X123554641Y-102870000D01*
X123572037Y-102693373D01*
X123623557Y-102523534D01*
X123707222Y-102367009D01*
X123736552Y-102331271D01*
X123819814Y-102229814D01*
X123921271Y-102146552D01*
X123957009Y-102117222D01*
X124113534Y-102033557D01*
X124283373Y-101982037D01*
X124349558Y-101975518D01*
X124415740Y-101969000D01*
X124504260Y-101969000D01*
X124570442Y-101975518D01*
X124570442Y-101975518D01*
G37*
G36*
X111870442Y-101975518D02*
G01*
X111936627Y-101982037D01*
X112106466Y-102033557D01*
X112262991Y-102117222D01*
X112298729Y-102146552D01*
X112400186Y-102229814D01*
X112483448Y-102331271D01*
X112512778Y-102367009D01*
X112596443Y-102523534D01*
X112647963Y-102693373D01*
X112665359Y-102870000D01*
X112647963Y-103046627D01*
X112596443Y-103216466D01*
X112512778Y-103372991D01*
X112483448Y-103408729D01*
X112400186Y-103510186D01*
X112298729Y-103593448D01*
X112262991Y-103622778D01*
X112106466Y-103706443D01*
X111936627Y-103757963D01*
X111870443Y-103764481D01*
X111804260Y-103771000D01*
X111715740Y-103771000D01*
X111649557Y-103764481D01*
X111583373Y-103757963D01*
X111413534Y-103706443D01*
X111257009Y-103622778D01*
X111221271Y-103593448D01*
X111119814Y-103510186D01*
X111036552Y-103408729D01*
X111007222Y-103372991D01*
X110923557Y-103216466D01*
X110872037Y-103046627D01*
X110854641Y-102870000D01*
X110872037Y-102693373D01*
X110923557Y-102523534D01*
X111007222Y-102367009D01*
X111036552Y-102331271D01*
X111119814Y-102229814D01*
X111221271Y-102146552D01*
X111257009Y-102117222D01*
X111413534Y-102033557D01*
X111583373Y-101982037D01*
X111649558Y-101975518D01*
X111715740Y-101969000D01*
X111804260Y-101969000D01*
X111870442Y-101975518D01*
X111870442Y-101975518D01*
G37*
G36*
X120760442Y-101975518D02*
G01*
X120826627Y-101982037D01*
X120996466Y-102033557D01*
X121152991Y-102117222D01*
X121188729Y-102146552D01*
X121290186Y-102229814D01*
X121373448Y-102331271D01*
X121402778Y-102367009D01*
X121486443Y-102523534D01*
X121537963Y-102693373D01*
X121555359Y-102870000D01*
X121537963Y-103046627D01*
X121486443Y-103216466D01*
X121402778Y-103372991D01*
X121373448Y-103408729D01*
X121290186Y-103510186D01*
X121188729Y-103593448D01*
X121152991Y-103622778D01*
X120996466Y-103706443D01*
X120826627Y-103757963D01*
X120760443Y-103764481D01*
X120694260Y-103771000D01*
X120605740Y-103771000D01*
X120539557Y-103764481D01*
X120473373Y-103757963D01*
X120303534Y-103706443D01*
X120147009Y-103622778D01*
X120111271Y-103593448D01*
X120009814Y-103510186D01*
X119926552Y-103408729D01*
X119897222Y-103372991D01*
X119813557Y-103216466D01*
X119762037Y-103046627D01*
X119744641Y-102870000D01*
X119762037Y-102693373D01*
X119813557Y-102523534D01*
X119897222Y-102367009D01*
X119926552Y-102331271D01*
X120009814Y-102229814D01*
X120111271Y-102146552D01*
X120147009Y-102117222D01*
X120303534Y-102033557D01*
X120473373Y-101982037D01*
X120539558Y-101975518D01*
X120605740Y-101969000D01*
X120694260Y-101969000D01*
X120760442Y-101975518D01*
X120760442Y-101975518D01*
G37*
G36*
X129719294Y-100698633D02*
G01*
X129891695Y-100750931D01*
X130050583Y-100835858D01*
X130189849Y-100950151D01*
X130304142Y-101089417D01*
X130389069Y-101248305D01*
X130441367Y-101420706D01*
X130459025Y-101600000D01*
X130441367Y-101779294D01*
X130389069Y-101951695D01*
X130304142Y-102110583D01*
X130189849Y-102249849D01*
X130050583Y-102364142D01*
X129891695Y-102449069D01*
X129719294Y-102501367D01*
X129584931Y-102514600D01*
X129495069Y-102514600D01*
X129360706Y-102501367D01*
X129188305Y-102449069D01*
X129029417Y-102364142D01*
X128890151Y-102249849D01*
X128775858Y-102110583D01*
X128690931Y-101951695D01*
X128638633Y-101779294D01*
X128620975Y-101600000D01*
X128638633Y-101420706D01*
X128690931Y-101248305D01*
X128775858Y-101089417D01*
X128890151Y-100950151D01*
X129029417Y-100835858D01*
X129188305Y-100750931D01*
X129360706Y-100698633D01*
X129495069Y-100685400D01*
X129584931Y-100685400D01*
X129719294Y-100698633D01*
X129719294Y-100698633D01*
G37*
G36*
X132259294Y-100698633D02*
G01*
X132431695Y-100750931D01*
X132590583Y-100835858D01*
X132729849Y-100950151D01*
X132844142Y-101089417D01*
X132929069Y-101248305D01*
X132981367Y-101420706D01*
X132999025Y-101600000D01*
X132981367Y-101779294D01*
X132929069Y-101951695D01*
X132844142Y-102110583D01*
X132729849Y-102249849D01*
X132590583Y-102364142D01*
X132431695Y-102449069D01*
X132259294Y-102501367D01*
X132124931Y-102514600D01*
X132035069Y-102514600D01*
X131900706Y-102501367D01*
X131728305Y-102449069D01*
X131569417Y-102364142D01*
X131430151Y-102249849D01*
X131315858Y-102110583D01*
X131230931Y-101951695D01*
X131178633Y-101779294D01*
X131160975Y-101600000D01*
X131178633Y-101420706D01*
X131230931Y-101248305D01*
X131315858Y-101089417D01*
X131430151Y-100950151D01*
X131569417Y-100835858D01*
X131728305Y-100750931D01*
X131900706Y-100698633D01*
X132035069Y-100685400D01*
X132124931Y-100685400D01*
X132259294Y-100698633D01*
X132259294Y-100698633D01*
G37*
G36*
X112661000Y-101231000D02*
G01*
X110859000Y-101231000D01*
X110859000Y-99429000D01*
X112661000Y-99429000D01*
X112661000Y-101231000D01*
X112661000Y-101231000D01*
G37*
G36*
X114410443Y-99435519D02*
G01*
X114476627Y-99442037D01*
X114646466Y-99493557D01*
X114802991Y-99577222D01*
X114838729Y-99606552D01*
X114940186Y-99689814D01*
X115023448Y-99791271D01*
X115052778Y-99827009D01*
X115136443Y-99983534D01*
X115187963Y-100153373D01*
X115205359Y-100330000D01*
X115187963Y-100506627D01*
X115136443Y-100676466D01*
X115052778Y-100832991D01*
X115050425Y-100835858D01*
X114940186Y-100970186D01*
X114838729Y-101053448D01*
X114802991Y-101082778D01*
X114646466Y-101166443D01*
X114476627Y-101217963D01*
X114410443Y-101224481D01*
X114344260Y-101231000D01*
X114255740Y-101231000D01*
X114189558Y-101224482D01*
X114123373Y-101217963D01*
X113953534Y-101166443D01*
X113797009Y-101082778D01*
X113761271Y-101053448D01*
X113659814Y-100970186D01*
X113549575Y-100835858D01*
X113547222Y-100832991D01*
X113463557Y-100676466D01*
X113412037Y-100506627D01*
X113394641Y-100330000D01*
X113412037Y-100153373D01*
X113463557Y-99983534D01*
X113547222Y-99827009D01*
X113576552Y-99791271D01*
X113659814Y-99689814D01*
X113761271Y-99606552D01*
X113797009Y-99577222D01*
X113953534Y-99493557D01*
X114123373Y-99442037D01*
X114189558Y-99435518D01*
X114255740Y-99429000D01*
X114344260Y-99429000D01*
X114410443Y-99435519D01*
X114410443Y-99435519D01*
G37*
G36*
X118220443Y-99435519D02*
G01*
X118286627Y-99442037D01*
X118456466Y-99493557D01*
X118612991Y-99577222D01*
X118648729Y-99606552D01*
X118750186Y-99689814D01*
X118833448Y-99791271D01*
X118862778Y-99827009D01*
X118946443Y-99983534D01*
X118997963Y-100153373D01*
X119015359Y-100330000D01*
X118997963Y-100506627D01*
X118946443Y-100676466D01*
X118862778Y-100832991D01*
X118860425Y-100835858D01*
X118750186Y-100970186D01*
X118648729Y-101053448D01*
X118612991Y-101082778D01*
X118456466Y-101166443D01*
X118286627Y-101217963D01*
X118220443Y-101224481D01*
X118154260Y-101231000D01*
X118065740Y-101231000D01*
X117999558Y-101224482D01*
X117933373Y-101217963D01*
X117763534Y-101166443D01*
X117607009Y-101082778D01*
X117571271Y-101053448D01*
X117469814Y-100970186D01*
X117359575Y-100835858D01*
X117357222Y-100832991D01*
X117273557Y-100676466D01*
X117222037Y-100506627D01*
X117204641Y-100330000D01*
X117222037Y-100153373D01*
X117273557Y-99983534D01*
X117357222Y-99827009D01*
X117386552Y-99791271D01*
X117469814Y-99689814D01*
X117571271Y-99606552D01*
X117607009Y-99577222D01*
X117763534Y-99493557D01*
X117933373Y-99442037D01*
X117999558Y-99435518D01*
X118065740Y-99429000D01*
X118154260Y-99429000D01*
X118220443Y-99435519D01*
X118220443Y-99435519D01*
G37*
G36*
X124570443Y-99435519D02*
G01*
X124636627Y-99442037D01*
X124806466Y-99493557D01*
X124962991Y-99577222D01*
X124998729Y-99606552D01*
X125100186Y-99689814D01*
X125183448Y-99791271D01*
X125212778Y-99827009D01*
X125296443Y-99983534D01*
X125347963Y-100153373D01*
X125365359Y-100330000D01*
X125347963Y-100506627D01*
X125296443Y-100676466D01*
X125212778Y-100832991D01*
X125210425Y-100835858D01*
X125100186Y-100970186D01*
X124998729Y-101053448D01*
X124962991Y-101082778D01*
X124806466Y-101166443D01*
X124636627Y-101217963D01*
X124570443Y-101224481D01*
X124504260Y-101231000D01*
X124415740Y-101231000D01*
X124349558Y-101224482D01*
X124283373Y-101217963D01*
X124113534Y-101166443D01*
X123957009Y-101082778D01*
X123921271Y-101053448D01*
X123819814Y-100970186D01*
X123709575Y-100835858D01*
X123707222Y-100832991D01*
X123623557Y-100676466D01*
X123572037Y-100506627D01*
X123554641Y-100330000D01*
X123572037Y-100153373D01*
X123623557Y-99983534D01*
X123707222Y-99827009D01*
X123736552Y-99791271D01*
X123819814Y-99689814D01*
X123921271Y-99606552D01*
X123957009Y-99577222D01*
X124113534Y-99493557D01*
X124283373Y-99442037D01*
X124349558Y-99435518D01*
X124415740Y-99429000D01*
X124504260Y-99429000D01*
X124570443Y-99435519D01*
X124570443Y-99435519D01*
G37*
G36*
X120760443Y-99435519D02*
G01*
X120826627Y-99442037D01*
X120996466Y-99493557D01*
X121152991Y-99577222D01*
X121188729Y-99606552D01*
X121290186Y-99689814D01*
X121373448Y-99791271D01*
X121402778Y-99827009D01*
X121486443Y-99983534D01*
X121537963Y-100153373D01*
X121555359Y-100330000D01*
X121537963Y-100506627D01*
X121486443Y-100676466D01*
X121402778Y-100832991D01*
X121400425Y-100835858D01*
X121290186Y-100970186D01*
X121188729Y-101053448D01*
X121152991Y-101082778D01*
X120996466Y-101166443D01*
X120826627Y-101217963D01*
X120760443Y-101224481D01*
X120694260Y-101231000D01*
X120605740Y-101231000D01*
X120539558Y-101224482D01*
X120473373Y-101217963D01*
X120303534Y-101166443D01*
X120147009Y-101082778D01*
X120111271Y-101053448D01*
X120009814Y-100970186D01*
X119899575Y-100835858D01*
X119897222Y-100832991D01*
X119813557Y-100676466D01*
X119762037Y-100506627D01*
X119744641Y-100330000D01*
X119762037Y-100153373D01*
X119813557Y-99983534D01*
X119897222Y-99827009D01*
X119926552Y-99791271D01*
X120009814Y-99689814D01*
X120111271Y-99606552D01*
X120147009Y-99577222D01*
X120303534Y-99493557D01*
X120473373Y-99442037D01*
X120539558Y-99435518D01*
X120605740Y-99429000D01*
X120694260Y-99429000D01*
X120760443Y-99435519D01*
X120760443Y-99435519D01*
G37*
G36*
X132259294Y-98158633D02*
G01*
X132431695Y-98210931D01*
X132590583Y-98295858D01*
X132729849Y-98410151D01*
X132844142Y-98549417D01*
X132929069Y-98708305D01*
X132981367Y-98880706D01*
X132999025Y-99060000D01*
X132981367Y-99239294D01*
X132929069Y-99411695D01*
X132844142Y-99570583D01*
X132729849Y-99709849D01*
X132590583Y-99824142D01*
X132431695Y-99909069D01*
X132259294Y-99961367D01*
X132124931Y-99974600D01*
X132035069Y-99974600D01*
X131900706Y-99961367D01*
X131728305Y-99909069D01*
X131569417Y-99824142D01*
X131430151Y-99709849D01*
X131315858Y-99570583D01*
X131230931Y-99411695D01*
X131178633Y-99239294D01*
X131160975Y-99060000D01*
X131178633Y-98880706D01*
X131230931Y-98708305D01*
X131315858Y-98549417D01*
X131430151Y-98410151D01*
X131569417Y-98295858D01*
X131728305Y-98210931D01*
X131900706Y-98158633D01*
X132035069Y-98145400D01*
X132124931Y-98145400D01*
X132259294Y-98158633D01*
X132259294Y-98158633D01*
G37*
G36*
X129719294Y-98158633D02*
G01*
X129891695Y-98210931D01*
X130050583Y-98295858D01*
X130189849Y-98410151D01*
X130304142Y-98549417D01*
X130389069Y-98708305D01*
X130441367Y-98880706D01*
X130459025Y-99060000D01*
X130441367Y-99239294D01*
X130389069Y-99411695D01*
X130304142Y-99570583D01*
X130189849Y-99709849D01*
X130050583Y-99824142D01*
X129891695Y-99909069D01*
X129719294Y-99961367D01*
X129584931Y-99974600D01*
X129495069Y-99974600D01*
X129360706Y-99961367D01*
X129188305Y-99909069D01*
X129029417Y-99824142D01*
X128890151Y-99709849D01*
X128775858Y-99570583D01*
X128690931Y-99411695D01*
X128638633Y-99239294D01*
X128620975Y-99060000D01*
X128638633Y-98880706D01*
X128690931Y-98708305D01*
X128775858Y-98549417D01*
X128890151Y-98410151D01*
X129029417Y-98295858D01*
X129188305Y-98210931D01*
X129360706Y-98158633D01*
X129495069Y-98145400D01*
X129584931Y-98145400D01*
X129719294Y-98158633D01*
X129719294Y-98158633D01*
G37*
G36*
X124570442Y-96895518D02*
G01*
X124636627Y-96902037D01*
X124806466Y-96953557D01*
X124962991Y-97037222D01*
X124998729Y-97066552D01*
X125100186Y-97149814D01*
X125183448Y-97251271D01*
X125212778Y-97287009D01*
X125296443Y-97443534D01*
X125347963Y-97613373D01*
X125365359Y-97790000D01*
X125347963Y-97966627D01*
X125296443Y-98136466D01*
X125212778Y-98292991D01*
X125210425Y-98295858D01*
X125100186Y-98430186D01*
X124998729Y-98513448D01*
X124962991Y-98542778D01*
X124806466Y-98626443D01*
X124636627Y-98677963D01*
X124570442Y-98684482D01*
X124504260Y-98691000D01*
X124415740Y-98691000D01*
X124349558Y-98684482D01*
X124283373Y-98677963D01*
X124113534Y-98626443D01*
X123957009Y-98542778D01*
X123921271Y-98513448D01*
X123819814Y-98430186D01*
X123709575Y-98295858D01*
X123707222Y-98292991D01*
X123623557Y-98136466D01*
X123572037Y-97966627D01*
X123554641Y-97790000D01*
X123572037Y-97613373D01*
X123623557Y-97443534D01*
X123707222Y-97287009D01*
X123736552Y-97251271D01*
X123819814Y-97149814D01*
X123921271Y-97066552D01*
X123957009Y-97037222D01*
X124113534Y-96953557D01*
X124283373Y-96902037D01*
X124349558Y-96895518D01*
X124415740Y-96889000D01*
X124504260Y-96889000D01*
X124570442Y-96895518D01*
X124570442Y-96895518D01*
G37*
G36*
X120760442Y-96895518D02*
G01*
X120826627Y-96902037D01*
X120996466Y-96953557D01*
X121152991Y-97037222D01*
X121188729Y-97066552D01*
X121290186Y-97149814D01*
X121373448Y-97251271D01*
X121402778Y-97287009D01*
X121486443Y-97443534D01*
X121537963Y-97613373D01*
X121555359Y-97790000D01*
X121537963Y-97966627D01*
X121486443Y-98136466D01*
X121402778Y-98292991D01*
X121400425Y-98295858D01*
X121290186Y-98430186D01*
X121188729Y-98513448D01*
X121152991Y-98542778D01*
X120996466Y-98626443D01*
X120826627Y-98677963D01*
X120760442Y-98684482D01*
X120694260Y-98691000D01*
X120605740Y-98691000D01*
X120539558Y-98684482D01*
X120473373Y-98677963D01*
X120303534Y-98626443D01*
X120147009Y-98542778D01*
X120111271Y-98513448D01*
X120009814Y-98430186D01*
X119899575Y-98295858D01*
X119897222Y-98292991D01*
X119813557Y-98136466D01*
X119762037Y-97966627D01*
X119744641Y-97790000D01*
X119762037Y-97613373D01*
X119813557Y-97443534D01*
X119897222Y-97287009D01*
X119926552Y-97251271D01*
X120009814Y-97149814D01*
X120111271Y-97066552D01*
X120147009Y-97037222D01*
X120303534Y-96953557D01*
X120473373Y-96902037D01*
X120539558Y-96895518D01*
X120605740Y-96889000D01*
X120694260Y-96889000D01*
X120760442Y-96895518D01*
X120760442Y-96895518D01*
G37*
G36*
X118220442Y-96895518D02*
G01*
X118286627Y-96902037D01*
X118456466Y-96953557D01*
X118612991Y-97037222D01*
X118648729Y-97066552D01*
X118750186Y-97149814D01*
X118833448Y-97251271D01*
X118862778Y-97287009D01*
X118946443Y-97443534D01*
X118997963Y-97613373D01*
X119015359Y-97790000D01*
X118997963Y-97966627D01*
X118946443Y-98136466D01*
X118862778Y-98292991D01*
X118860425Y-98295858D01*
X118750186Y-98430186D01*
X118648729Y-98513448D01*
X118612991Y-98542778D01*
X118456466Y-98626443D01*
X118286627Y-98677963D01*
X118220442Y-98684482D01*
X118154260Y-98691000D01*
X118065740Y-98691000D01*
X117999558Y-98684482D01*
X117933373Y-98677963D01*
X117763534Y-98626443D01*
X117607009Y-98542778D01*
X117571271Y-98513448D01*
X117469814Y-98430186D01*
X117359575Y-98295858D01*
X117357222Y-98292991D01*
X117273557Y-98136466D01*
X117222037Y-97966627D01*
X117204641Y-97790000D01*
X117222037Y-97613373D01*
X117273557Y-97443534D01*
X117357222Y-97287009D01*
X117386552Y-97251271D01*
X117469814Y-97149814D01*
X117571271Y-97066552D01*
X117607009Y-97037222D01*
X117763534Y-96953557D01*
X117933373Y-96902037D01*
X117999558Y-96895518D01*
X118065740Y-96889000D01*
X118154260Y-96889000D01*
X118220442Y-96895518D01*
X118220442Y-96895518D01*
G37*
G36*
X129719294Y-95618633D02*
G01*
X129891695Y-95670931D01*
X130050583Y-95755858D01*
X130189849Y-95870151D01*
X130304142Y-96009417D01*
X130389069Y-96168305D01*
X130441367Y-96340706D01*
X130459025Y-96520000D01*
X130441367Y-96699294D01*
X130389069Y-96871695D01*
X130304142Y-97030583D01*
X130189849Y-97169849D01*
X130050583Y-97284142D01*
X129891695Y-97369069D01*
X129719294Y-97421367D01*
X129584931Y-97434600D01*
X129495069Y-97434600D01*
X129360706Y-97421367D01*
X129188305Y-97369069D01*
X129029417Y-97284142D01*
X128890151Y-97169849D01*
X128775858Y-97030583D01*
X128690931Y-96871695D01*
X128638633Y-96699294D01*
X128620975Y-96520000D01*
X128638633Y-96340706D01*
X128690931Y-96168305D01*
X128775858Y-96009417D01*
X128890151Y-95870151D01*
X129029417Y-95755858D01*
X129188305Y-95670931D01*
X129360706Y-95618633D01*
X129495069Y-95605400D01*
X129584931Y-95605400D01*
X129719294Y-95618633D01*
X129719294Y-95618633D01*
G37*
G36*
X132259294Y-95618633D02*
G01*
X132431695Y-95670931D01*
X132590583Y-95755858D01*
X132729849Y-95870151D01*
X132844142Y-96009417D01*
X132929069Y-96168305D01*
X132981367Y-96340706D01*
X132999025Y-96520000D01*
X132981367Y-96699294D01*
X132929069Y-96871695D01*
X132844142Y-97030583D01*
X132729849Y-97169849D01*
X132590583Y-97284142D01*
X132431695Y-97369069D01*
X132259294Y-97421367D01*
X132124931Y-97434600D01*
X132035069Y-97434600D01*
X131900706Y-97421367D01*
X131728305Y-97369069D01*
X131569417Y-97284142D01*
X131430151Y-97169849D01*
X131315858Y-97030583D01*
X131230931Y-96871695D01*
X131178633Y-96699294D01*
X131160975Y-96520000D01*
X131178633Y-96340706D01*
X131230931Y-96168305D01*
X131315858Y-96009417D01*
X131430151Y-95870151D01*
X131569417Y-95755858D01*
X131728305Y-95670931D01*
X131900706Y-95618633D01*
X132035069Y-95605400D01*
X132124931Y-95605400D01*
X132259294Y-95618633D01*
X132259294Y-95618633D01*
G37*
G36*
X124570442Y-94355518D02*
G01*
X124636627Y-94362037D01*
X124806466Y-94413557D01*
X124962991Y-94497222D01*
X124998729Y-94526552D01*
X125100186Y-94609814D01*
X125183448Y-94711271D01*
X125212778Y-94747009D01*
X125296443Y-94903534D01*
X125347963Y-95073373D01*
X125365359Y-95250000D01*
X125347963Y-95426627D01*
X125296443Y-95596466D01*
X125212778Y-95752991D01*
X125210425Y-95755858D01*
X125100186Y-95890186D01*
X124998729Y-95973448D01*
X124962991Y-96002778D01*
X124806466Y-96086443D01*
X124636627Y-96137963D01*
X124570443Y-96144481D01*
X124504260Y-96151000D01*
X124415740Y-96151000D01*
X124349558Y-96144482D01*
X124283373Y-96137963D01*
X124113534Y-96086443D01*
X123957009Y-96002778D01*
X123921271Y-95973448D01*
X123819814Y-95890186D01*
X123709575Y-95755858D01*
X123707222Y-95752991D01*
X123623557Y-95596466D01*
X123572037Y-95426627D01*
X123554641Y-95250000D01*
X123572037Y-95073373D01*
X123623557Y-94903534D01*
X123707222Y-94747009D01*
X123736552Y-94711271D01*
X123819814Y-94609814D01*
X123921271Y-94526552D01*
X123957009Y-94497222D01*
X124113534Y-94413557D01*
X124283373Y-94362037D01*
X124349557Y-94355519D01*
X124415740Y-94349000D01*
X124504260Y-94349000D01*
X124570442Y-94355518D01*
X124570442Y-94355518D01*
G37*
G36*
X120760442Y-94355518D02*
G01*
X120826627Y-94362037D01*
X120996466Y-94413557D01*
X121152991Y-94497222D01*
X121188729Y-94526552D01*
X121290186Y-94609814D01*
X121373448Y-94711271D01*
X121402778Y-94747009D01*
X121486443Y-94903534D01*
X121537963Y-95073373D01*
X121555359Y-95250000D01*
X121537963Y-95426627D01*
X121486443Y-95596466D01*
X121402778Y-95752991D01*
X121400425Y-95755858D01*
X121290186Y-95890186D01*
X121188729Y-95973448D01*
X121152991Y-96002778D01*
X120996466Y-96086443D01*
X120826627Y-96137963D01*
X120760443Y-96144481D01*
X120694260Y-96151000D01*
X120605740Y-96151000D01*
X120539558Y-96144482D01*
X120473373Y-96137963D01*
X120303534Y-96086443D01*
X120147009Y-96002778D01*
X120111271Y-95973448D01*
X120009814Y-95890186D01*
X119899575Y-95755858D01*
X119897222Y-95752991D01*
X119813557Y-95596466D01*
X119762037Y-95426627D01*
X119744641Y-95250000D01*
X119762037Y-95073373D01*
X119813557Y-94903534D01*
X119897222Y-94747009D01*
X119926552Y-94711271D01*
X120009814Y-94609814D01*
X120111271Y-94526552D01*
X120147009Y-94497222D01*
X120303534Y-94413557D01*
X120473373Y-94362037D01*
X120539557Y-94355519D01*
X120605740Y-94349000D01*
X120694260Y-94349000D01*
X120760442Y-94355518D01*
X120760442Y-94355518D01*
G37*
G36*
X119011000Y-96151000D02*
G01*
X117209000Y-96151000D01*
X117209000Y-94349000D01*
X119011000Y-94349000D01*
X119011000Y-96151000D01*
X119011000Y-96151000D01*
G37*
G36*
X132259294Y-93078633D02*
G01*
X132431695Y-93130931D01*
X132590583Y-93215858D01*
X132729849Y-93330151D01*
X132844142Y-93469417D01*
X132929069Y-93628305D01*
X132981367Y-93800706D01*
X132999025Y-93980000D01*
X132981367Y-94159294D01*
X132929069Y-94331695D01*
X132844142Y-94490583D01*
X132729849Y-94629849D01*
X132590583Y-94744142D01*
X132431695Y-94829069D01*
X132259294Y-94881367D01*
X132124931Y-94894600D01*
X132035069Y-94894600D01*
X131900706Y-94881367D01*
X131728305Y-94829069D01*
X131569417Y-94744142D01*
X131430151Y-94629849D01*
X131315858Y-94490583D01*
X131230931Y-94331695D01*
X131178633Y-94159294D01*
X131160975Y-93980000D01*
X131178633Y-93800706D01*
X131230931Y-93628305D01*
X131315858Y-93469417D01*
X131430151Y-93330151D01*
X131569417Y-93215858D01*
X131728305Y-93130931D01*
X131900706Y-93078633D01*
X132035069Y-93065400D01*
X132124931Y-93065400D01*
X132259294Y-93078633D01*
X132259294Y-93078633D01*
G37*
G36*
X129719294Y-93078633D02*
G01*
X129891695Y-93130931D01*
X130050583Y-93215858D01*
X130189849Y-93330151D01*
X130304142Y-93469417D01*
X130389069Y-93628305D01*
X130441367Y-93800706D01*
X130459025Y-93980000D01*
X130441367Y-94159294D01*
X130389069Y-94331695D01*
X130304142Y-94490583D01*
X130189849Y-94629849D01*
X130050583Y-94744142D01*
X129891695Y-94829069D01*
X129719294Y-94881367D01*
X129584931Y-94894600D01*
X129495069Y-94894600D01*
X129360706Y-94881367D01*
X129188305Y-94829069D01*
X129029417Y-94744142D01*
X128890151Y-94629849D01*
X128775858Y-94490583D01*
X128690931Y-94331695D01*
X128638633Y-94159294D01*
X128620975Y-93980000D01*
X128638633Y-93800706D01*
X128690931Y-93628305D01*
X128775858Y-93469417D01*
X128890151Y-93330151D01*
X129029417Y-93215858D01*
X129188305Y-93130931D01*
X129360706Y-93078633D01*
X129495069Y-93065400D01*
X129584931Y-93065400D01*
X129719294Y-93078633D01*
X129719294Y-93078633D01*
G37*
G36*
X124570442Y-91815518D02*
G01*
X124636627Y-91822037D01*
X124806466Y-91873557D01*
X124962991Y-91957222D01*
X124998729Y-91986552D01*
X125100186Y-92069814D01*
X125183448Y-92171271D01*
X125212778Y-92207009D01*
X125296443Y-92363534D01*
X125347963Y-92533373D01*
X125365359Y-92710000D01*
X125347963Y-92886627D01*
X125296443Y-93056466D01*
X125212778Y-93212991D01*
X125210425Y-93215858D01*
X125100186Y-93350186D01*
X124998729Y-93433448D01*
X124962991Y-93462778D01*
X124806466Y-93546443D01*
X124636627Y-93597963D01*
X124570442Y-93604482D01*
X124504260Y-93611000D01*
X124415740Y-93611000D01*
X124349557Y-93604481D01*
X124283373Y-93597963D01*
X124113534Y-93546443D01*
X123957009Y-93462778D01*
X123921271Y-93433448D01*
X123819814Y-93350186D01*
X123709575Y-93215858D01*
X123707222Y-93212991D01*
X123623557Y-93056466D01*
X123572037Y-92886627D01*
X123554641Y-92710000D01*
X123572037Y-92533373D01*
X123623557Y-92363534D01*
X123707222Y-92207009D01*
X123736552Y-92171271D01*
X123819814Y-92069814D01*
X123921271Y-91986552D01*
X123957009Y-91957222D01*
X124113534Y-91873557D01*
X124283373Y-91822037D01*
X124349558Y-91815518D01*
X124415740Y-91809000D01*
X124504260Y-91809000D01*
X124570442Y-91815518D01*
X124570442Y-91815518D01*
G37*
G36*
X132259294Y-90538633D02*
G01*
X132431695Y-90590931D01*
X132590583Y-90675858D01*
X132729849Y-90790151D01*
X132844142Y-90929417D01*
X132929069Y-91088305D01*
X132981367Y-91260706D01*
X132999025Y-91440000D01*
X132981367Y-91619294D01*
X132929069Y-91791695D01*
X132844142Y-91950583D01*
X132729849Y-92089849D01*
X132590583Y-92204142D01*
X132431695Y-92289069D01*
X132259294Y-92341367D01*
X132124931Y-92354600D01*
X132035069Y-92354600D01*
X131900706Y-92341367D01*
X131728305Y-92289069D01*
X131569417Y-92204142D01*
X131430151Y-92089849D01*
X131315858Y-91950583D01*
X131230931Y-91791695D01*
X131178633Y-91619294D01*
X131160975Y-91440000D01*
X131178633Y-91260706D01*
X131230931Y-91088305D01*
X131315858Y-90929417D01*
X131430151Y-90790151D01*
X131569417Y-90675858D01*
X131728305Y-90590931D01*
X131900706Y-90538633D01*
X132035069Y-90525400D01*
X132124931Y-90525400D01*
X132259294Y-90538633D01*
X132259294Y-90538633D01*
G37*
G36*
X130454600Y-92354600D02*
G01*
X128625400Y-92354600D01*
X128625400Y-90525400D01*
X130454600Y-90525400D01*
X130454600Y-92354600D01*
X130454600Y-92354600D01*
G37*
G36*
X124570443Y-89275519D02*
G01*
X124636627Y-89282037D01*
X124806466Y-89333557D01*
X124962991Y-89417222D01*
X124998729Y-89446552D01*
X125100186Y-89529814D01*
X125183448Y-89631271D01*
X125212778Y-89667009D01*
X125296443Y-89823534D01*
X125347963Y-89993373D01*
X125365359Y-90170000D01*
X125347963Y-90346627D01*
X125296443Y-90516466D01*
X125212778Y-90672991D01*
X125210425Y-90675858D01*
X125100186Y-90810186D01*
X124998729Y-90893448D01*
X124962991Y-90922778D01*
X124806466Y-91006443D01*
X124636627Y-91057963D01*
X124570442Y-91064482D01*
X124504260Y-91071000D01*
X124415740Y-91071000D01*
X124349558Y-91064482D01*
X124283373Y-91057963D01*
X124113534Y-91006443D01*
X123957009Y-90922778D01*
X123921271Y-90893448D01*
X123819814Y-90810186D01*
X123709575Y-90675858D01*
X123707222Y-90672991D01*
X123623557Y-90516466D01*
X123572037Y-90346627D01*
X123554641Y-90170000D01*
X123572037Y-89993373D01*
X123623557Y-89823534D01*
X123707222Y-89667009D01*
X123736552Y-89631271D01*
X123819814Y-89529814D01*
X123921271Y-89446552D01*
X123957009Y-89417222D01*
X124113534Y-89333557D01*
X124283373Y-89282037D01*
X124349557Y-89275519D01*
X124415740Y-89269000D01*
X124504260Y-89269000D01*
X124570443Y-89275519D01*
X124570443Y-89275519D01*
G37*
G36*
X112661000Y-88531000D02*
G01*
X110859000Y-88531000D01*
X110859000Y-86729000D01*
X112661000Y-86729000D01*
X112661000Y-88531000D01*
X112661000Y-88531000D01*
G37*
G36*
X119490442Y-86735518D02*
G01*
X119556627Y-86742037D01*
X119726466Y-86793557D01*
X119882991Y-86877222D01*
X119918729Y-86906552D01*
X120020186Y-86989814D01*
X120103448Y-87091271D01*
X120132778Y-87127009D01*
X120216443Y-87283534D01*
X120267963Y-87453373D01*
X120285359Y-87630000D01*
X120267963Y-87806627D01*
X120216443Y-87976466D01*
X120132778Y-88132991D01*
X120103448Y-88168729D01*
X120020186Y-88270186D01*
X119918729Y-88353448D01*
X119882991Y-88382778D01*
X119726466Y-88466443D01*
X119556627Y-88517963D01*
X119490442Y-88524482D01*
X119424260Y-88531000D01*
X119335740Y-88531000D01*
X119269558Y-88524482D01*
X119203373Y-88517963D01*
X119033534Y-88466443D01*
X118877009Y-88382778D01*
X118841271Y-88353448D01*
X118739814Y-88270186D01*
X118656552Y-88168729D01*
X118627222Y-88132991D01*
X118543557Y-87976466D01*
X118492037Y-87806627D01*
X118474641Y-87630000D01*
X118492037Y-87453373D01*
X118543557Y-87283534D01*
X118627222Y-87127009D01*
X118656552Y-87091271D01*
X118739814Y-86989814D01*
X118841271Y-86906552D01*
X118877009Y-86877222D01*
X119033534Y-86793557D01*
X119203373Y-86742037D01*
X119269558Y-86735518D01*
X119335740Y-86729000D01*
X119424260Y-86729000D01*
X119490442Y-86735518D01*
X119490442Y-86735518D01*
G37*
G36*
X116950442Y-86735518D02*
G01*
X117016627Y-86742037D01*
X117186466Y-86793557D01*
X117342991Y-86877222D01*
X117378729Y-86906552D01*
X117480186Y-86989814D01*
X117563448Y-87091271D01*
X117592778Y-87127009D01*
X117676443Y-87283534D01*
X117727963Y-87453373D01*
X117745359Y-87630000D01*
X117727963Y-87806627D01*
X117676443Y-87976466D01*
X117592778Y-88132991D01*
X117563448Y-88168729D01*
X117480186Y-88270186D01*
X117378729Y-88353448D01*
X117342991Y-88382778D01*
X117186466Y-88466443D01*
X117016627Y-88517963D01*
X116950442Y-88524482D01*
X116884260Y-88531000D01*
X116795740Y-88531000D01*
X116729558Y-88524482D01*
X116663373Y-88517963D01*
X116493534Y-88466443D01*
X116337009Y-88382778D01*
X116301271Y-88353448D01*
X116199814Y-88270186D01*
X116116552Y-88168729D01*
X116087222Y-88132991D01*
X116003557Y-87976466D01*
X115952037Y-87806627D01*
X115934641Y-87630000D01*
X115952037Y-87453373D01*
X116003557Y-87283534D01*
X116087222Y-87127009D01*
X116116552Y-87091271D01*
X116199814Y-86989814D01*
X116301271Y-86906552D01*
X116337009Y-86877222D01*
X116493534Y-86793557D01*
X116663373Y-86742037D01*
X116729558Y-86735518D01*
X116795740Y-86729000D01*
X116884260Y-86729000D01*
X116950442Y-86735518D01*
X116950442Y-86735518D01*
G37*
G36*
X114410442Y-86735518D02*
G01*
X114476627Y-86742037D01*
X114646466Y-86793557D01*
X114802991Y-86877222D01*
X114838729Y-86906552D01*
X114940186Y-86989814D01*
X115023448Y-87091271D01*
X115052778Y-87127009D01*
X115136443Y-87283534D01*
X115187963Y-87453373D01*
X115205359Y-87630000D01*
X115187963Y-87806627D01*
X115136443Y-87976466D01*
X115052778Y-88132991D01*
X115023448Y-88168729D01*
X114940186Y-88270186D01*
X114838729Y-88353448D01*
X114802991Y-88382778D01*
X114646466Y-88466443D01*
X114476627Y-88517963D01*
X114410442Y-88524482D01*
X114344260Y-88531000D01*
X114255740Y-88531000D01*
X114189558Y-88524482D01*
X114123373Y-88517963D01*
X113953534Y-88466443D01*
X113797009Y-88382778D01*
X113761271Y-88353448D01*
X113659814Y-88270186D01*
X113576552Y-88168729D01*
X113547222Y-88132991D01*
X113463557Y-87976466D01*
X113412037Y-87806627D01*
X113394641Y-87630000D01*
X113412037Y-87453373D01*
X113463557Y-87283534D01*
X113547222Y-87127009D01*
X113576552Y-87091271D01*
X113659814Y-86989814D01*
X113761271Y-86906552D01*
X113797009Y-86877222D01*
X113953534Y-86793557D01*
X114123373Y-86742037D01*
X114189558Y-86735518D01*
X114255740Y-86729000D01*
X114344260Y-86729000D01*
X114410442Y-86735518D01*
X114410442Y-86735518D01*
G37*
G36*
X124570442Y-86735518D02*
G01*
X124636627Y-86742037D01*
X124806466Y-86793557D01*
X124962991Y-86877222D01*
X124998729Y-86906552D01*
X125100186Y-86989814D01*
X125183448Y-87091271D01*
X125212778Y-87127009D01*
X125296443Y-87283534D01*
X125347963Y-87453373D01*
X125365359Y-87630000D01*
X125347963Y-87806627D01*
X125296443Y-87976466D01*
X125212778Y-88132991D01*
X125183448Y-88168729D01*
X125100186Y-88270186D01*
X124998729Y-88353448D01*
X124962991Y-88382778D01*
X124806466Y-88466443D01*
X124636627Y-88517963D01*
X124570442Y-88524482D01*
X124504260Y-88531000D01*
X124415740Y-88531000D01*
X124349558Y-88524482D01*
X124283373Y-88517963D01*
X124113534Y-88466443D01*
X123957009Y-88382778D01*
X123921271Y-88353448D01*
X123819814Y-88270186D01*
X123736552Y-88168729D01*
X123707222Y-88132991D01*
X123623557Y-87976466D01*
X123572037Y-87806627D01*
X123554641Y-87630000D01*
X123572037Y-87453373D01*
X123623557Y-87283534D01*
X123707222Y-87127009D01*
X123736552Y-87091271D01*
X123819814Y-86989814D01*
X123921271Y-86906552D01*
X123957009Y-86877222D01*
X124113534Y-86793557D01*
X124283373Y-86742037D01*
X124349558Y-86735518D01*
X124415740Y-86729000D01*
X124504260Y-86729000D01*
X124570442Y-86735518D01*
X124570442Y-86735518D01*
G37*
M02*
