M48
; DRILL file {KiCad (5.1.0-0)} date 
; FORMAT={-:-/ absolute / metric / decimal}
; #@! TF.CreationDate,2019-04-12T23:42:54+08:00
; #@! TF.GenerationSoftware,Kicad,Pcbnew,(5.1.0-0)
; #@! TF.FileFunction,Plated,1,2,PTH
FMAT,2
METRIC
T1C0.400
T2C1.000
T3C1.016
%
G90
G05
T1
X113.03Y-115.316
X114.554Y-95.25
X116.84Y-104.14
X122.174Y-115.316
X127.0Y-108.585
X130.81Y-107.315
X133.604Y-130.81
X135.89Y-132.08
X137.16Y-133.35
X139.065Y-91.44
T2
X118.11Y-95.25
X118.11Y-97.79
X118.11Y-100.33
X118.11Y-102.87
X118.11Y-105.41
X111.76Y-100.33
X111.76Y-102.87
X111.76Y-105.41
X118.11Y-107.95
X111.76Y-110.49
X111.76Y-113.03
X114.3Y-100.33
X114.3Y-102.87
X114.3Y-105.41
X114.3Y-107.95
X114.3Y-110.49
X114.3Y-113.03
X118.11Y-110.49
X111.76Y-107.95
X118.11Y-113.03
X120.65Y-95.25
X120.65Y-97.79
X120.65Y-100.33
X120.65Y-102.87
X120.65Y-105.41
X120.65Y-107.95
X120.65Y-110.49
X120.65Y-113.03
X111.76Y-87.63
X114.3Y-87.63
X116.84Y-87.63
X119.38Y-87.63
X124.46Y-87.63
X124.46Y-90.17
X124.46Y-92.71
X124.46Y-95.25
X124.46Y-97.79
X124.46Y-100.33
X124.46Y-102.87
X124.46Y-105.41
X124.46Y-107.95
X124.46Y-110.49
X124.46Y-113.03
X124.46Y-115.57
X124.46Y-118.11
X124.46Y-120.65
X124.46Y-123.19
X124.46Y-125.73
X124.46Y-128.27
X124.46Y-130.81
T3
X129.54Y-91.44
X129.54Y-93.98
X129.54Y-96.52
X129.54Y-99.06
X129.54Y-101.6
X132.08Y-91.44
X132.08Y-93.98
X132.08Y-96.52
X132.08Y-99.06
X132.08Y-101.6
X129.54Y-113.03
X129.54Y-115.57
X129.54Y-118.11
X129.54Y-120.65
X129.54Y-123.19
X132.08Y-113.03
X132.08Y-115.57
X132.08Y-118.11
X132.08Y-120.65
X132.08Y-123.19
T0
M30
