G04 #@! TF.GenerationSoftware,KiCad,Pcbnew,(5.1.0-0)*
G04 #@! TF.CreationDate,2019-04-12T23:41:18+08:00*
G04 #@! TF.ProjectId,Ulticontroller_adapter,556c7469-636f-46e7-9472-6f6c6c65725f,rev?*
G04 #@! TF.SameCoordinates,Original*
G04 #@! TF.FileFunction,Copper,L2,Bot*
G04 #@! TF.FilePolarity,Positive*
%FSLAX46Y46*%
G04 Gerber Fmt 4.6, Leading zero omitted, Abs format (unit mm)*
G04 Created by KiCad (PCBNEW (5.1.0-0)) date 2019-04-12 23:41:18*
%MOMM*%
%LPD*%
G04 APERTURE LIST*
%ADD10O,1.700000X1.700000*%
%ADD11R,1.700000X1.700000*%
%ADD12O,1.727200X1.727200*%
%ADD13R,1.727200X1.727200*%
%ADD14C,0.800000*%
%ADD15C,0.250000*%
%ADD16C,0.500000*%
%ADD17C,0.254000*%
G04 APERTURE END LIST*
D10*
X124460000Y-87630000D03*
X124460000Y-90170000D03*
X124460000Y-92710000D03*
X124460000Y-95250000D03*
X124460000Y-97790000D03*
X124460000Y-100330000D03*
X124460000Y-102870000D03*
X124460000Y-105410000D03*
X124460000Y-107950000D03*
X124460000Y-110490000D03*
X124460000Y-113030000D03*
X124460000Y-115570000D03*
X124460000Y-118110000D03*
X124460000Y-120650000D03*
X124460000Y-123190000D03*
X124460000Y-125730000D03*
X124460000Y-128270000D03*
D11*
X124460000Y-130810000D03*
D10*
X120650000Y-113030000D03*
X118110000Y-113030000D03*
X120650000Y-110490000D03*
X118110000Y-110490000D03*
X120650000Y-107950000D03*
X118110000Y-107950000D03*
X120650000Y-105410000D03*
X118110000Y-105410000D03*
X120650000Y-102870000D03*
X118110000Y-102870000D03*
X120650000Y-100330000D03*
X118110000Y-100330000D03*
X120650000Y-97790000D03*
X118110000Y-97790000D03*
X120650000Y-95250000D03*
D11*
X118110000Y-95250000D03*
X111760000Y-100330000D03*
D10*
X114300000Y-100330000D03*
X111760000Y-102870000D03*
X114300000Y-102870000D03*
X111760000Y-105410000D03*
X114300000Y-105410000D03*
X111760000Y-107950000D03*
X114300000Y-107950000D03*
X111760000Y-110490000D03*
X114300000Y-110490000D03*
X111760000Y-113030000D03*
X114300000Y-113030000D03*
X119380000Y-87630000D03*
X116840000Y-87630000D03*
X114300000Y-87630000D03*
D11*
X111760000Y-87630000D03*
D12*
X132080000Y-101600000D03*
X129540000Y-101600000D03*
X132080000Y-99060000D03*
X129540000Y-99060000D03*
X132080000Y-96520000D03*
X129540000Y-96520000D03*
X132080000Y-93980000D03*
X129540000Y-93980000D03*
X132080000Y-91440000D03*
D13*
X129540000Y-91440000D03*
D12*
X132080000Y-123190000D03*
X129540000Y-123190000D03*
X132080000Y-120650000D03*
X129540000Y-120650000D03*
X132080000Y-118110000D03*
X129540000Y-118110000D03*
X132080000Y-115570000D03*
X129540000Y-115570000D03*
X132080000Y-113030000D03*
D13*
X129540000Y-113030000D03*
D14*
X116840000Y-104140000D03*
X139065000Y-91440000D03*
X133604000Y-130810000D03*
X122174000Y-115316000D03*
X113030000Y-115316006D03*
X130810000Y-107315000D03*
X127000000Y-108585000D03*
X137160000Y-133350000D03*
X135890000Y-132080000D03*
X114554000Y-95250000D03*
D15*
X127635000Y-98425000D02*
X127000000Y-97790000D01*
X127000000Y-97790000D02*
X124460000Y-97790000D01*
X130728601Y-109138601D02*
X127635000Y-106045000D01*
X130728601Y-114218601D02*
X130728601Y-109138601D01*
X127635000Y-106045000D02*
X127635000Y-98425000D01*
X132080000Y-115570000D02*
X130728601Y-114218601D01*
X120555001Y-86454999D02*
X133444999Y-86454999D01*
X119380000Y-87630000D02*
X120555001Y-86454999D01*
X133444999Y-86454999D02*
X136525000Y-89535000D01*
X130403599Y-117246401D02*
X129540000Y-118110000D01*
X130728601Y-116921399D02*
X130403599Y-117246401D01*
X132487731Y-116921399D02*
X130728601Y-116921399D01*
X136525000Y-112884130D02*
X132487731Y-116921399D01*
X136525000Y-89535000D02*
X136525000Y-112884130D01*
X122428000Y-133350000D02*
X122428000Y-117856000D01*
X119634000Y-115062000D02*
X117348000Y-115062000D01*
X130302000Y-133604000D02*
X122682000Y-133604000D01*
X129540000Y-120650000D02*
X130810000Y-121920000D01*
X130810000Y-121920000D02*
X130810000Y-133096000D01*
X130810000Y-133096000D02*
X130302000Y-133604000D01*
X122682000Y-133604000D02*
X122428000Y-133350000D01*
X122428000Y-117856000D02*
X119634000Y-115062000D01*
X117348000Y-115062000D02*
X116839992Y-114553992D01*
X116840000Y-105918000D02*
X116839992Y-105918008D01*
X116840000Y-104140000D02*
X116840000Y-105918000D01*
X116839992Y-105918008D02*
X116839992Y-105663954D01*
X116839992Y-114553992D02*
X116839992Y-105918008D01*
X111760000Y-107950000D02*
X113030000Y-109220000D01*
X113030000Y-109220000D02*
X113030000Y-114750321D01*
X113030000Y-114750321D02*
X113030000Y-115316006D01*
D16*
X122428000Y-100330000D02*
X120650000Y-100330000D01*
X122428000Y-97028000D02*
X122428000Y-100330000D01*
X120650000Y-95250000D02*
X122428000Y-97028000D01*
D15*
X129540000Y-93980000D02*
X130810000Y-95250000D01*
X130810000Y-95250000D02*
X130810000Y-102089130D01*
X130810000Y-102089130D02*
X130810000Y-104775000D01*
X130810000Y-104775000D02*
X130810000Y-107315000D01*
X130810000Y-107315000D02*
X130810000Y-107315000D01*
X111760000Y-88730000D02*
X111760000Y-87630000D01*
X112565000Y-89535000D02*
X111760000Y-88730000D01*
X130810000Y-107315000D02*
X135255000Y-102870000D01*
X135255000Y-90170000D02*
X133985000Y-88900000D01*
X135255000Y-102870000D02*
X135255000Y-90170000D01*
X121285000Y-89535000D02*
X112565000Y-89535000D01*
X121920000Y-88900000D02*
X121285000Y-89535000D01*
X133985000Y-88900000D02*
X121920000Y-88900000D01*
X127000000Y-125730000D02*
X127000000Y-108585000D01*
X124460000Y-128270000D02*
X127000000Y-125730000D01*
X136760001Y-133749999D02*
X137160000Y-133350000D01*
X136144000Y-134366000D02*
X136760001Y-133749999D01*
X122174000Y-134366000D02*
X136144000Y-134366000D01*
X121666000Y-133858000D02*
X122174000Y-134366000D01*
X121666000Y-118364000D02*
X121666000Y-133858000D01*
X119126000Y-115824000D02*
X121666000Y-118364000D01*
X117094000Y-115824000D02*
X119126000Y-115824000D01*
X116205000Y-114935000D02*
X117094000Y-115824000D01*
X116205000Y-106553000D02*
X116205000Y-114935000D01*
X115062000Y-105410000D02*
X116205000Y-106553000D01*
X114300000Y-105410000D02*
X115062000Y-105410000D01*
X137160000Y-132080000D02*
X135890000Y-132080000D01*
X138176000Y-133096000D02*
X137160000Y-132080000D01*
X136652000Y-135382000D02*
X138176000Y-133858000D01*
X120904000Y-118872000D02*
X120904000Y-134366000D01*
X120904000Y-134366000D02*
X121920000Y-135382000D01*
X118618000Y-116586000D02*
X120904000Y-118872000D01*
X116840000Y-116586000D02*
X118618000Y-116586000D01*
X115570000Y-115316000D02*
X116840000Y-116586000D01*
X115570000Y-107480998D02*
X115570000Y-115316000D01*
X111760000Y-105410000D02*
X113124999Y-106774999D01*
X114864001Y-106774999D02*
X115570000Y-107480998D01*
X138176000Y-133858000D02*
X138176000Y-133096000D01*
X121920000Y-135382000D02*
X136652000Y-135382000D01*
X113124999Y-106774999D02*
X114864001Y-106774999D01*
X116332000Y-91948000D02*
X119063002Y-91948000D01*
X119063002Y-91948000D02*
X123635002Y-96520000D01*
X116078000Y-101092000D02*
X116078000Y-98552000D01*
X113284000Y-94996000D02*
X116332000Y-91948000D01*
X128318686Y-96520000D02*
X129540000Y-96520000D01*
X116078000Y-98552000D02*
X113284000Y-95758000D01*
X113284000Y-95758000D02*
X113284000Y-94996000D01*
X123635002Y-96520000D02*
X128318686Y-96520000D01*
X114300000Y-102870000D02*
X116078000Y-101092000D01*
X132943599Y-100736401D02*
X132080000Y-101600000D01*
X133985000Y-99695000D02*
X132943599Y-100736401D01*
X133985000Y-90805000D02*
X133985000Y-99695000D01*
X133350000Y-90170000D02*
X133985000Y-90805000D01*
X127227798Y-91440000D02*
X128497798Y-90170000D01*
X122237500Y-90487500D02*
X123190000Y-91440000D01*
X123190000Y-91440000D02*
X127227798Y-91440000D01*
X115252500Y-90487500D02*
X122237500Y-90487500D01*
X128497798Y-90170000D02*
X133350000Y-90170000D01*
X111506000Y-96520000D02*
X111506000Y-94234000D01*
X112935001Y-99389538D02*
X112935001Y-97949001D01*
X111506000Y-94234000D02*
X115252500Y-90487500D01*
X112939999Y-101690001D02*
X112939999Y-99394536D01*
X112935001Y-97949001D02*
X111506000Y-96520000D01*
X112939999Y-99394536D02*
X112935001Y-99389538D01*
X111760000Y-102870000D02*
X112939999Y-101690001D01*
X113792000Y-99822000D02*
X114300000Y-100330000D01*
X113792000Y-97536000D02*
X113792000Y-99822000D01*
X123190000Y-93980000D02*
X120396000Y-91186000D01*
X112268000Y-94742000D02*
X112268000Y-96012000D01*
X130891399Y-92791399D02*
X128579197Y-92791399D01*
X127390596Y-93980000D02*
X123190000Y-93980000D01*
X120396000Y-91186000D02*
X115824000Y-91186000D01*
X128579197Y-92791399D02*
X127390596Y-93980000D01*
X112268000Y-96012000D02*
X113792000Y-97536000D01*
X115824000Y-91186000D02*
X112268000Y-94742000D01*
X132080000Y-93980000D02*
X130891399Y-92791399D01*
X115062000Y-95250000D02*
X115062000Y-95250000D01*
X118110000Y-95250000D02*
X114554000Y-95250000D01*
D17*
G36*
X140533395Y-85869843D02*
G01*
X140725765Y-85921388D01*
X140906260Y-86005555D01*
X141069390Y-86119780D01*
X141210220Y-86260610D01*
X141324445Y-86423740D01*
X141408612Y-86604235D01*
X141460157Y-86796605D01*
X141478000Y-87000548D01*
X141478000Y-137154452D01*
X141460157Y-137358395D01*
X141408612Y-137550765D01*
X141324445Y-137731260D01*
X141210220Y-137894390D01*
X141069390Y-138035220D01*
X140906260Y-138149445D01*
X140725765Y-138233612D01*
X140533395Y-138285157D01*
X140329452Y-138303000D01*
X122179548Y-138303000D01*
X121975605Y-138285157D01*
X121783235Y-138233612D01*
X121602740Y-138149445D01*
X121439610Y-138035220D01*
X121298780Y-137894390D01*
X121184555Y-137731260D01*
X121100388Y-137550765D01*
X121048843Y-137358395D01*
X121031000Y-137154452D01*
X121031000Y-135567802D01*
X121356201Y-135893003D01*
X121379999Y-135922001D01*
X121408997Y-135945799D01*
X121495723Y-136016974D01*
X121627753Y-136087546D01*
X121771014Y-136131003D01*
X121882667Y-136142000D01*
X121882677Y-136142000D01*
X121920000Y-136145676D01*
X121957322Y-136142000D01*
X136614678Y-136142000D01*
X136652000Y-136145676D01*
X136689322Y-136142000D01*
X136689333Y-136142000D01*
X136800986Y-136131003D01*
X136944247Y-136087546D01*
X137076276Y-136016974D01*
X137192001Y-135922001D01*
X137215803Y-135892998D01*
X138687009Y-134421794D01*
X138716001Y-134398001D01*
X138739795Y-134369008D01*
X138739799Y-134369004D01*
X138810973Y-134282277D01*
X138810974Y-134282276D01*
X138881546Y-134150247D01*
X138925003Y-134006986D01*
X138936000Y-133895333D01*
X138936000Y-133895324D01*
X138939676Y-133858001D01*
X138936000Y-133820678D01*
X138936000Y-133133322D01*
X138939676Y-133096000D01*
X138936000Y-133058677D01*
X138936000Y-133058667D01*
X138925003Y-132947014D01*
X138881546Y-132803753D01*
X138810975Y-132671725D01*
X138810974Y-132671723D01*
X138739799Y-132584997D01*
X138716001Y-132555999D01*
X138687003Y-132532201D01*
X137723804Y-131569002D01*
X137700001Y-131539999D01*
X137584276Y-131445026D01*
X137452247Y-131374454D01*
X137308986Y-131330997D01*
X137197333Y-131320000D01*
X137197322Y-131320000D01*
X137160000Y-131316324D01*
X137122678Y-131320000D01*
X136593711Y-131320000D01*
X136549774Y-131276063D01*
X136380256Y-131162795D01*
X136191898Y-131084774D01*
X135991939Y-131045000D01*
X135788061Y-131045000D01*
X135588102Y-131084774D01*
X135399744Y-131162795D01*
X135230226Y-131276063D01*
X135086063Y-131420226D01*
X134972795Y-131589744D01*
X134894774Y-131778102D01*
X134855000Y-131978061D01*
X134855000Y-132181939D01*
X134894774Y-132381898D01*
X134972795Y-132570256D01*
X135086063Y-132739774D01*
X135230226Y-132883937D01*
X135399744Y-132997205D01*
X135588102Y-133075226D01*
X135788061Y-133115000D01*
X135991939Y-133115000D01*
X136158039Y-133081961D01*
X136125000Y-133248061D01*
X136125000Y-133310198D01*
X135829199Y-133606000D01*
X131374622Y-133606000D01*
X131444974Y-133520276D01*
X131515546Y-133388247D01*
X131559003Y-133244986D01*
X131570000Y-133133333D01*
X131570000Y-133133324D01*
X131573676Y-133096001D01*
X131570000Y-133058678D01*
X131570000Y-124601326D01*
X131786223Y-124666916D01*
X132006381Y-124688600D01*
X132153619Y-124688600D01*
X132373777Y-124666916D01*
X132656264Y-124581225D01*
X132916606Y-124442069D01*
X133144797Y-124254797D01*
X133332069Y-124026606D01*
X133471225Y-123766264D01*
X133556916Y-123483777D01*
X133585851Y-123190000D01*
X133556916Y-122896223D01*
X133471225Y-122613736D01*
X133332069Y-122353394D01*
X133144797Y-122125203D01*
X132916606Y-121937931D01*
X132883060Y-121920000D01*
X132916606Y-121902069D01*
X133144797Y-121714797D01*
X133332069Y-121486606D01*
X133471225Y-121226264D01*
X133556916Y-120943777D01*
X133585851Y-120650000D01*
X133556916Y-120356223D01*
X133471225Y-120073736D01*
X133332069Y-119813394D01*
X133144797Y-119585203D01*
X132916606Y-119397931D01*
X132883060Y-119380000D01*
X132916606Y-119362069D01*
X133144797Y-119174797D01*
X133332069Y-118946606D01*
X133471225Y-118686264D01*
X133556916Y-118403777D01*
X133585851Y-118110000D01*
X133556916Y-117816223D01*
X133471225Y-117533736D01*
X133332069Y-117273394D01*
X133277288Y-117206643D01*
X137036003Y-113447929D01*
X137065001Y-113424131D01*
X137159974Y-113308406D01*
X137230546Y-113176377D01*
X137274003Y-113033116D01*
X137285000Y-112921463D01*
X137288677Y-112884130D01*
X137285000Y-112846797D01*
X137285000Y-89572322D01*
X137288676Y-89534999D01*
X137285000Y-89497676D01*
X137285000Y-89497667D01*
X137274003Y-89386014D01*
X137230546Y-89242753D01*
X137159974Y-89110724D01*
X137065001Y-88994999D01*
X137036004Y-88971202D01*
X134008803Y-85944002D01*
X133985000Y-85914998D01*
X133908237Y-85852000D01*
X140329452Y-85852000D01*
X140533395Y-85869843D01*
X140533395Y-85869843D01*
G37*
X140533395Y-85869843D02*
X140725765Y-85921388D01*
X140906260Y-86005555D01*
X141069390Y-86119780D01*
X141210220Y-86260610D01*
X141324445Y-86423740D01*
X141408612Y-86604235D01*
X141460157Y-86796605D01*
X141478000Y-87000548D01*
X141478000Y-137154452D01*
X141460157Y-137358395D01*
X141408612Y-137550765D01*
X141324445Y-137731260D01*
X141210220Y-137894390D01*
X141069390Y-138035220D01*
X140906260Y-138149445D01*
X140725765Y-138233612D01*
X140533395Y-138285157D01*
X140329452Y-138303000D01*
X122179548Y-138303000D01*
X121975605Y-138285157D01*
X121783235Y-138233612D01*
X121602740Y-138149445D01*
X121439610Y-138035220D01*
X121298780Y-137894390D01*
X121184555Y-137731260D01*
X121100388Y-137550765D01*
X121048843Y-137358395D01*
X121031000Y-137154452D01*
X121031000Y-135567802D01*
X121356201Y-135893003D01*
X121379999Y-135922001D01*
X121408997Y-135945799D01*
X121495723Y-136016974D01*
X121627753Y-136087546D01*
X121771014Y-136131003D01*
X121882667Y-136142000D01*
X121882677Y-136142000D01*
X121920000Y-136145676D01*
X121957322Y-136142000D01*
X136614678Y-136142000D01*
X136652000Y-136145676D01*
X136689322Y-136142000D01*
X136689333Y-136142000D01*
X136800986Y-136131003D01*
X136944247Y-136087546D01*
X137076276Y-136016974D01*
X137192001Y-135922001D01*
X137215803Y-135892998D01*
X138687009Y-134421794D01*
X138716001Y-134398001D01*
X138739795Y-134369008D01*
X138739799Y-134369004D01*
X138810973Y-134282277D01*
X138810974Y-134282276D01*
X138881546Y-134150247D01*
X138925003Y-134006986D01*
X138936000Y-133895333D01*
X138936000Y-133895324D01*
X138939676Y-133858001D01*
X138936000Y-133820678D01*
X138936000Y-133133322D01*
X138939676Y-133096000D01*
X138936000Y-133058677D01*
X138936000Y-133058667D01*
X138925003Y-132947014D01*
X138881546Y-132803753D01*
X138810975Y-132671725D01*
X138810974Y-132671723D01*
X138739799Y-132584997D01*
X138716001Y-132555999D01*
X138687003Y-132532201D01*
X137723804Y-131569002D01*
X137700001Y-131539999D01*
X137584276Y-131445026D01*
X137452247Y-131374454D01*
X137308986Y-131330997D01*
X137197333Y-131320000D01*
X137197322Y-131320000D01*
X137160000Y-131316324D01*
X137122678Y-131320000D01*
X136593711Y-131320000D01*
X136549774Y-131276063D01*
X136380256Y-131162795D01*
X136191898Y-131084774D01*
X135991939Y-131045000D01*
X135788061Y-131045000D01*
X135588102Y-131084774D01*
X135399744Y-131162795D01*
X135230226Y-131276063D01*
X135086063Y-131420226D01*
X134972795Y-131589744D01*
X134894774Y-131778102D01*
X134855000Y-131978061D01*
X134855000Y-132181939D01*
X134894774Y-132381898D01*
X134972795Y-132570256D01*
X135086063Y-132739774D01*
X135230226Y-132883937D01*
X135399744Y-132997205D01*
X135588102Y-133075226D01*
X135788061Y-133115000D01*
X135991939Y-133115000D01*
X136158039Y-133081961D01*
X136125000Y-133248061D01*
X136125000Y-133310198D01*
X135829199Y-133606000D01*
X131374622Y-133606000D01*
X131444974Y-133520276D01*
X131515546Y-133388247D01*
X131559003Y-133244986D01*
X131570000Y-133133333D01*
X131570000Y-133133324D01*
X131573676Y-133096001D01*
X131570000Y-133058678D01*
X131570000Y-124601326D01*
X131786223Y-124666916D01*
X132006381Y-124688600D01*
X132153619Y-124688600D01*
X132373777Y-124666916D01*
X132656264Y-124581225D01*
X132916606Y-124442069D01*
X133144797Y-124254797D01*
X133332069Y-124026606D01*
X133471225Y-123766264D01*
X133556916Y-123483777D01*
X133585851Y-123190000D01*
X133556916Y-122896223D01*
X133471225Y-122613736D01*
X133332069Y-122353394D01*
X133144797Y-122125203D01*
X132916606Y-121937931D01*
X132883060Y-121920000D01*
X132916606Y-121902069D01*
X133144797Y-121714797D01*
X133332069Y-121486606D01*
X133471225Y-121226264D01*
X133556916Y-120943777D01*
X133585851Y-120650000D01*
X133556916Y-120356223D01*
X133471225Y-120073736D01*
X133332069Y-119813394D01*
X133144797Y-119585203D01*
X132916606Y-119397931D01*
X132883060Y-119380000D01*
X132916606Y-119362069D01*
X133144797Y-119174797D01*
X133332069Y-118946606D01*
X133471225Y-118686264D01*
X133556916Y-118403777D01*
X133585851Y-118110000D01*
X133556916Y-117816223D01*
X133471225Y-117533736D01*
X133332069Y-117273394D01*
X133277288Y-117206643D01*
X137036003Y-113447929D01*
X137065001Y-113424131D01*
X137159974Y-113308406D01*
X137230546Y-113176377D01*
X137274003Y-113033116D01*
X137285000Y-112921463D01*
X137288677Y-112884130D01*
X137285000Y-112846797D01*
X137285000Y-89572322D01*
X137288676Y-89534999D01*
X137285000Y-89497676D01*
X137285000Y-89497667D01*
X137274003Y-89386014D01*
X137230546Y-89242753D01*
X137159974Y-89110724D01*
X137065001Y-88994999D01*
X137036004Y-88971202D01*
X134008803Y-85944002D01*
X133985000Y-85914998D01*
X133908237Y-85852000D01*
X140329452Y-85852000D01*
X140533395Y-85869843D01*
G36*
X126875001Y-98739803D02*
G01*
X126875000Y-106007678D01*
X126871324Y-106045000D01*
X126875000Y-106082322D01*
X126875000Y-106082332D01*
X126885997Y-106193985D01*
X126912089Y-106280000D01*
X126929454Y-106337246D01*
X127000026Y-106469276D01*
X127014151Y-106486487D01*
X127094999Y-106585001D01*
X127124003Y-106608804D01*
X129968602Y-109453405D01*
X129968602Y-111528328D01*
X128676400Y-111528328D01*
X128551918Y-111540588D01*
X128432220Y-111576898D01*
X128321906Y-111635863D01*
X128225215Y-111715215D01*
X128145863Y-111811906D01*
X128086898Y-111922220D01*
X128050588Y-112041918D01*
X128038328Y-112166400D01*
X128038328Y-113893600D01*
X128050588Y-114018082D01*
X128086898Y-114137780D01*
X128145863Y-114248094D01*
X128225215Y-114344785D01*
X128321906Y-114424137D01*
X128432220Y-114483102D01*
X128483265Y-114498586D01*
X128475203Y-114505203D01*
X128287931Y-114733394D01*
X128148775Y-114993736D01*
X128063084Y-115276223D01*
X128034149Y-115570000D01*
X128063084Y-115863777D01*
X128148775Y-116146264D01*
X128287931Y-116406606D01*
X128475203Y-116634797D01*
X128703394Y-116822069D01*
X128736940Y-116840000D01*
X128703394Y-116857931D01*
X128475203Y-117045203D01*
X128287931Y-117273394D01*
X128148775Y-117533736D01*
X128063084Y-117816223D01*
X128034149Y-118110000D01*
X128063084Y-118403777D01*
X128148775Y-118686264D01*
X128287931Y-118946606D01*
X128475203Y-119174797D01*
X128703394Y-119362069D01*
X128736940Y-119380000D01*
X128703394Y-119397931D01*
X128475203Y-119585203D01*
X128287931Y-119813394D01*
X128148775Y-120073736D01*
X128063084Y-120356223D01*
X128034149Y-120650000D01*
X128063084Y-120943777D01*
X128148775Y-121226264D01*
X128287931Y-121486606D01*
X128475203Y-121714797D01*
X128703394Y-121902069D01*
X128736940Y-121920000D01*
X128703394Y-121937931D01*
X128475203Y-122125203D01*
X128287931Y-122353394D01*
X128148775Y-122613736D01*
X128063084Y-122896223D01*
X128034149Y-123190000D01*
X128063084Y-123483777D01*
X128148775Y-123766264D01*
X128287931Y-124026606D01*
X128475203Y-124254797D01*
X128703394Y-124442069D01*
X128963736Y-124581225D01*
X129246223Y-124666916D01*
X129466381Y-124688600D01*
X129613619Y-124688600D01*
X129833777Y-124666916D01*
X130050000Y-124601326D01*
X130050001Y-132781197D01*
X129987199Y-132844000D01*
X123188000Y-132844000D01*
X123188000Y-132135136D01*
X123255506Y-132190537D01*
X123365820Y-132249502D01*
X123485518Y-132285812D01*
X123610000Y-132298072D01*
X124174250Y-132295000D01*
X124333000Y-132136250D01*
X124333000Y-130937000D01*
X124587000Y-130937000D01*
X124587000Y-132136250D01*
X124745750Y-132295000D01*
X125310000Y-132298072D01*
X125434482Y-132285812D01*
X125554180Y-132249502D01*
X125664494Y-132190537D01*
X125761185Y-132111185D01*
X125840537Y-132014494D01*
X125899502Y-131904180D01*
X125935812Y-131784482D01*
X125948072Y-131660000D01*
X125945000Y-131095750D01*
X125786250Y-130937000D01*
X124587000Y-130937000D01*
X124333000Y-130937000D01*
X124313000Y-130937000D01*
X124313000Y-130683000D01*
X124333000Y-130683000D01*
X124333000Y-130663000D01*
X124587000Y-130663000D01*
X124587000Y-130683000D01*
X125786250Y-130683000D01*
X125945000Y-130524250D01*
X125948072Y-129960000D01*
X125935812Y-129835518D01*
X125899502Y-129715820D01*
X125840537Y-129605506D01*
X125761185Y-129508815D01*
X125664494Y-129429463D01*
X125554180Y-129370498D01*
X125485313Y-129349607D01*
X125515134Y-129325134D01*
X125700706Y-129099014D01*
X125838599Y-128841034D01*
X125923513Y-128561111D01*
X125952185Y-128270000D01*
X125923513Y-127978889D01*
X125900797Y-127904005D01*
X127511009Y-126293794D01*
X127540001Y-126270001D01*
X127563795Y-126241008D01*
X127563799Y-126241004D01*
X127634973Y-126154277D01*
X127634974Y-126154276D01*
X127705546Y-126022247D01*
X127749003Y-125878986D01*
X127760000Y-125767333D01*
X127760000Y-125767324D01*
X127763676Y-125730001D01*
X127760000Y-125692678D01*
X127760000Y-109288711D01*
X127803937Y-109244774D01*
X127917205Y-109075256D01*
X127995226Y-108886898D01*
X128035000Y-108686939D01*
X128035000Y-108483061D01*
X127995226Y-108283102D01*
X127917205Y-108094744D01*
X127803937Y-107925226D01*
X127659774Y-107781063D01*
X127490256Y-107667795D01*
X127301898Y-107589774D01*
X127101939Y-107550000D01*
X126898061Y-107550000D01*
X126698102Y-107589774D01*
X126509744Y-107667795D01*
X126340226Y-107781063D01*
X126196063Y-107925226D01*
X126082795Y-108094744D01*
X126004774Y-108283102D01*
X125965000Y-108483061D01*
X125965000Y-108686939D01*
X126004774Y-108886898D01*
X126082795Y-109075256D01*
X126196063Y-109244774D01*
X126240001Y-109288712D01*
X126240000Y-125415197D01*
X125949765Y-125705432D01*
X125923513Y-125438889D01*
X125838599Y-125158966D01*
X125700706Y-124900986D01*
X125515134Y-124674866D01*
X125289014Y-124489294D01*
X125234209Y-124460000D01*
X125289014Y-124430706D01*
X125515134Y-124245134D01*
X125700706Y-124019014D01*
X125838599Y-123761034D01*
X125923513Y-123481111D01*
X125952185Y-123190000D01*
X125923513Y-122898889D01*
X125838599Y-122618966D01*
X125700706Y-122360986D01*
X125515134Y-122134866D01*
X125289014Y-121949294D01*
X125234209Y-121920000D01*
X125289014Y-121890706D01*
X125515134Y-121705134D01*
X125700706Y-121479014D01*
X125838599Y-121221034D01*
X125923513Y-120941111D01*
X125952185Y-120650000D01*
X125923513Y-120358889D01*
X125838599Y-120078966D01*
X125700706Y-119820986D01*
X125515134Y-119594866D01*
X125289014Y-119409294D01*
X125234209Y-119380000D01*
X125289014Y-119350706D01*
X125515134Y-119165134D01*
X125700706Y-118939014D01*
X125838599Y-118681034D01*
X125923513Y-118401111D01*
X125952185Y-118110000D01*
X125923513Y-117818889D01*
X125838599Y-117538966D01*
X125700706Y-117280986D01*
X125515134Y-117054866D01*
X125289014Y-116869294D01*
X125234209Y-116840000D01*
X125289014Y-116810706D01*
X125515134Y-116625134D01*
X125700706Y-116399014D01*
X125838599Y-116141034D01*
X125923513Y-115861111D01*
X125952185Y-115570000D01*
X125923513Y-115278889D01*
X125838599Y-114998966D01*
X125700706Y-114740986D01*
X125515134Y-114514866D01*
X125289014Y-114329294D01*
X125234209Y-114300000D01*
X125289014Y-114270706D01*
X125515134Y-114085134D01*
X125700706Y-113859014D01*
X125838599Y-113601034D01*
X125923513Y-113321111D01*
X125952185Y-113030000D01*
X125923513Y-112738889D01*
X125838599Y-112458966D01*
X125700706Y-112200986D01*
X125515134Y-111974866D01*
X125289014Y-111789294D01*
X125234209Y-111760000D01*
X125289014Y-111730706D01*
X125515134Y-111545134D01*
X125700706Y-111319014D01*
X125838599Y-111061034D01*
X125923513Y-110781111D01*
X125952185Y-110490000D01*
X125923513Y-110198889D01*
X125838599Y-109918966D01*
X125700706Y-109660986D01*
X125515134Y-109434866D01*
X125289014Y-109249294D01*
X125234209Y-109220000D01*
X125289014Y-109190706D01*
X125515134Y-109005134D01*
X125700706Y-108779014D01*
X125838599Y-108521034D01*
X125923513Y-108241111D01*
X125952185Y-107950000D01*
X125923513Y-107658889D01*
X125838599Y-107378966D01*
X125700706Y-107120986D01*
X125515134Y-106894866D01*
X125289014Y-106709294D01*
X125234209Y-106680000D01*
X125289014Y-106650706D01*
X125515134Y-106465134D01*
X125700706Y-106239014D01*
X125838599Y-105981034D01*
X125923513Y-105701111D01*
X125952185Y-105410000D01*
X125923513Y-105118889D01*
X125838599Y-104838966D01*
X125700706Y-104580986D01*
X125515134Y-104354866D01*
X125289014Y-104169294D01*
X125234209Y-104140000D01*
X125289014Y-104110706D01*
X125515134Y-103925134D01*
X125700706Y-103699014D01*
X125838599Y-103441034D01*
X125923513Y-103161111D01*
X125952185Y-102870000D01*
X125923513Y-102578889D01*
X125838599Y-102298966D01*
X125700706Y-102040986D01*
X125515134Y-101814866D01*
X125289014Y-101629294D01*
X125234209Y-101600000D01*
X125289014Y-101570706D01*
X125515134Y-101385134D01*
X125700706Y-101159014D01*
X125838599Y-100901034D01*
X125923513Y-100621111D01*
X125952185Y-100330000D01*
X125923513Y-100038889D01*
X125838599Y-99758966D01*
X125700706Y-99500986D01*
X125515134Y-99274866D01*
X125289014Y-99089294D01*
X125234209Y-99060000D01*
X125289014Y-99030706D01*
X125515134Y-98845134D01*
X125700706Y-98619014D01*
X125737595Y-98550000D01*
X126685199Y-98550000D01*
X126875001Y-98739803D01*
X126875001Y-98739803D01*
G37*
X126875001Y-98739803D02*
X126875000Y-106007678D01*
X126871324Y-106045000D01*
X126875000Y-106082322D01*
X126875000Y-106082332D01*
X126885997Y-106193985D01*
X126912089Y-106280000D01*
X126929454Y-106337246D01*
X127000026Y-106469276D01*
X127014151Y-106486487D01*
X127094999Y-106585001D01*
X127124003Y-106608804D01*
X129968602Y-109453405D01*
X129968602Y-111528328D01*
X128676400Y-111528328D01*
X128551918Y-111540588D01*
X128432220Y-111576898D01*
X128321906Y-111635863D01*
X128225215Y-111715215D01*
X128145863Y-111811906D01*
X128086898Y-111922220D01*
X128050588Y-112041918D01*
X128038328Y-112166400D01*
X128038328Y-113893600D01*
X128050588Y-114018082D01*
X128086898Y-114137780D01*
X128145863Y-114248094D01*
X128225215Y-114344785D01*
X128321906Y-114424137D01*
X128432220Y-114483102D01*
X128483265Y-114498586D01*
X128475203Y-114505203D01*
X128287931Y-114733394D01*
X128148775Y-114993736D01*
X128063084Y-115276223D01*
X128034149Y-115570000D01*
X128063084Y-115863777D01*
X128148775Y-116146264D01*
X128287931Y-116406606D01*
X128475203Y-116634797D01*
X128703394Y-116822069D01*
X128736940Y-116840000D01*
X128703394Y-116857931D01*
X128475203Y-117045203D01*
X128287931Y-117273394D01*
X128148775Y-117533736D01*
X128063084Y-117816223D01*
X128034149Y-118110000D01*
X128063084Y-118403777D01*
X128148775Y-118686264D01*
X128287931Y-118946606D01*
X128475203Y-119174797D01*
X128703394Y-119362069D01*
X128736940Y-119380000D01*
X128703394Y-119397931D01*
X128475203Y-119585203D01*
X128287931Y-119813394D01*
X128148775Y-120073736D01*
X128063084Y-120356223D01*
X128034149Y-120650000D01*
X128063084Y-120943777D01*
X128148775Y-121226264D01*
X128287931Y-121486606D01*
X128475203Y-121714797D01*
X128703394Y-121902069D01*
X128736940Y-121920000D01*
X128703394Y-121937931D01*
X128475203Y-122125203D01*
X128287931Y-122353394D01*
X128148775Y-122613736D01*
X128063084Y-122896223D01*
X128034149Y-123190000D01*
X128063084Y-123483777D01*
X128148775Y-123766264D01*
X128287931Y-124026606D01*
X128475203Y-124254797D01*
X128703394Y-124442069D01*
X128963736Y-124581225D01*
X129246223Y-124666916D01*
X129466381Y-124688600D01*
X129613619Y-124688600D01*
X129833777Y-124666916D01*
X130050000Y-124601326D01*
X130050001Y-132781197D01*
X129987199Y-132844000D01*
X123188000Y-132844000D01*
X123188000Y-132135136D01*
X123255506Y-132190537D01*
X123365820Y-132249502D01*
X123485518Y-132285812D01*
X123610000Y-132298072D01*
X124174250Y-132295000D01*
X124333000Y-132136250D01*
X124333000Y-130937000D01*
X124587000Y-130937000D01*
X124587000Y-132136250D01*
X124745750Y-132295000D01*
X125310000Y-132298072D01*
X125434482Y-132285812D01*
X125554180Y-132249502D01*
X125664494Y-132190537D01*
X125761185Y-132111185D01*
X125840537Y-132014494D01*
X125899502Y-131904180D01*
X125935812Y-131784482D01*
X125948072Y-131660000D01*
X125945000Y-131095750D01*
X125786250Y-130937000D01*
X124587000Y-130937000D01*
X124333000Y-130937000D01*
X124313000Y-130937000D01*
X124313000Y-130683000D01*
X124333000Y-130683000D01*
X124333000Y-130663000D01*
X124587000Y-130663000D01*
X124587000Y-130683000D01*
X125786250Y-130683000D01*
X125945000Y-130524250D01*
X125948072Y-129960000D01*
X125935812Y-129835518D01*
X125899502Y-129715820D01*
X125840537Y-129605506D01*
X125761185Y-129508815D01*
X125664494Y-129429463D01*
X125554180Y-129370498D01*
X125485313Y-129349607D01*
X125515134Y-129325134D01*
X125700706Y-129099014D01*
X125838599Y-128841034D01*
X125923513Y-128561111D01*
X125952185Y-128270000D01*
X125923513Y-127978889D01*
X125900797Y-127904005D01*
X127511009Y-126293794D01*
X127540001Y-126270001D01*
X127563795Y-126241008D01*
X127563799Y-126241004D01*
X127634973Y-126154277D01*
X127634974Y-126154276D01*
X127705546Y-126022247D01*
X127749003Y-125878986D01*
X127760000Y-125767333D01*
X127760000Y-125767324D01*
X127763676Y-125730001D01*
X127760000Y-125692678D01*
X127760000Y-109288711D01*
X127803937Y-109244774D01*
X127917205Y-109075256D01*
X127995226Y-108886898D01*
X128035000Y-108686939D01*
X128035000Y-108483061D01*
X127995226Y-108283102D01*
X127917205Y-108094744D01*
X127803937Y-107925226D01*
X127659774Y-107781063D01*
X127490256Y-107667795D01*
X127301898Y-107589774D01*
X127101939Y-107550000D01*
X126898061Y-107550000D01*
X126698102Y-107589774D01*
X126509744Y-107667795D01*
X126340226Y-107781063D01*
X126196063Y-107925226D01*
X126082795Y-108094744D01*
X126004774Y-108283102D01*
X125965000Y-108483061D01*
X125965000Y-108686939D01*
X126004774Y-108886898D01*
X126082795Y-109075256D01*
X126196063Y-109244774D01*
X126240001Y-109288712D01*
X126240000Y-125415197D01*
X125949765Y-125705432D01*
X125923513Y-125438889D01*
X125838599Y-125158966D01*
X125700706Y-124900986D01*
X125515134Y-124674866D01*
X125289014Y-124489294D01*
X125234209Y-124460000D01*
X125289014Y-124430706D01*
X125515134Y-124245134D01*
X125700706Y-124019014D01*
X125838599Y-123761034D01*
X125923513Y-123481111D01*
X125952185Y-123190000D01*
X125923513Y-122898889D01*
X125838599Y-122618966D01*
X125700706Y-122360986D01*
X125515134Y-122134866D01*
X125289014Y-121949294D01*
X125234209Y-121920000D01*
X125289014Y-121890706D01*
X125515134Y-121705134D01*
X125700706Y-121479014D01*
X125838599Y-121221034D01*
X125923513Y-120941111D01*
X125952185Y-120650000D01*
X125923513Y-120358889D01*
X125838599Y-120078966D01*
X125700706Y-119820986D01*
X125515134Y-119594866D01*
X125289014Y-119409294D01*
X125234209Y-119380000D01*
X125289014Y-119350706D01*
X125515134Y-119165134D01*
X125700706Y-118939014D01*
X125838599Y-118681034D01*
X125923513Y-118401111D01*
X125952185Y-118110000D01*
X125923513Y-117818889D01*
X125838599Y-117538966D01*
X125700706Y-117280986D01*
X125515134Y-117054866D01*
X125289014Y-116869294D01*
X125234209Y-116840000D01*
X125289014Y-116810706D01*
X125515134Y-116625134D01*
X125700706Y-116399014D01*
X125838599Y-116141034D01*
X125923513Y-115861111D01*
X125952185Y-115570000D01*
X125923513Y-115278889D01*
X125838599Y-114998966D01*
X125700706Y-114740986D01*
X125515134Y-114514866D01*
X125289014Y-114329294D01*
X125234209Y-114300000D01*
X125289014Y-114270706D01*
X125515134Y-114085134D01*
X125700706Y-113859014D01*
X125838599Y-113601034D01*
X125923513Y-113321111D01*
X125952185Y-113030000D01*
X125923513Y-112738889D01*
X125838599Y-112458966D01*
X125700706Y-112200986D01*
X125515134Y-111974866D01*
X125289014Y-111789294D01*
X125234209Y-111760000D01*
X125289014Y-111730706D01*
X125515134Y-111545134D01*
X125700706Y-111319014D01*
X125838599Y-111061034D01*
X125923513Y-110781111D01*
X125952185Y-110490000D01*
X125923513Y-110198889D01*
X125838599Y-109918966D01*
X125700706Y-109660986D01*
X125515134Y-109434866D01*
X125289014Y-109249294D01*
X125234209Y-109220000D01*
X125289014Y-109190706D01*
X125515134Y-109005134D01*
X125700706Y-108779014D01*
X125838599Y-108521034D01*
X125923513Y-108241111D01*
X125952185Y-107950000D01*
X125923513Y-107658889D01*
X125838599Y-107378966D01*
X125700706Y-107120986D01*
X125515134Y-106894866D01*
X125289014Y-106709294D01*
X125234209Y-106680000D01*
X125289014Y-106650706D01*
X125515134Y-106465134D01*
X125700706Y-106239014D01*
X125838599Y-105981034D01*
X125923513Y-105701111D01*
X125952185Y-105410000D01*
X125923513Y-105118889D01*
X125838599Y-104838966D01*
X125700706Y-104580986D01*
X125515134Y-104354866D01*
X125289014Y-104169294D01*
X125234209Y-104140000D01*
X125289014Y-104110706D01*
X125515134Y-103925134D01*
X125700706Y-103699014D01*
X125838599Y-103441034D01*
X125923513Y-103161111D01*
X125952185Y-102870000D01*
X125923513Y-102578889D01*
X125838599Y-102298966D01*
X125700706Y-102040986D01*
X125515134Y-101814866D01*
X125289014Y-101629294D01*
X125234209Y-101600000D01*
X125289014Y-101570706D01*
X125515134Y-101385134D01*
X125700706Y-101159014D01*
X125838599Y-100901034D01*
X125923513Y-100621111D01*
X125952185Y-100330000D01*
X125923513Y-100038889D01*
X125838599Y-99758966D01*
X125700706Y-99500986D01*
X125515134Y-99274866D01*
X125289014Y-99089294D01*
X125234209Y-99060000D01*
X125289014Y-99030706D01*
X125515134Y-98845134D01*
X125700706Y-98619014D01*
X125737595Y-98550000D01*
X126685199Y-98550000D01*
X126875001Y-98739803D01*
G36*
X120015000Y-85914998D02*
G01*
X119991202Y-85943996D01*
X119745995Y-86189203D01*
X119671111Y-86166487D01*
X119452950Y-86145000D01*
X119307050Y-86145000D01*
X119088889Y-86166487D01*
X118808966Y-86251401D01*
X118550986Y-86389294D01*
X118324866Y-86574866D01*
X118139294Y-86800986D01*
X118110000Y-86855791D01*
X118080706Y-86800986D01*
X117895134Y-86574866D01*
X117669014Y-86389294D01*
X117411034Y-86251401D01*
X117131111Y-86166487D01*
X116912950Y-86145000D01*
X116767050Y-86145000D01*
X116548889Y-86166487D01*
X116268966Y-86251401D01*
X116010986Y-86389294D01*
X115784866Y-86574866D01*
X115599294Y-86800986D01*
X115564799Y-86865523D01*
X115495178Y-86748645D01*
X115300269Y-86532412D01*
X115066920Y-86358359D01*
X114804099Y-86233175D01*
X114656890Y-86188524D01*
X114427000Y-86309845D01*
X114427000Y-87503000D01*
X114447000Y-87503000D01*
X114447000Y-87757000D01*
X114427000Y-87757000D01*
X114427000Y-87777000D01*
X114173000Y-87777000D01*
X114173000Y-87757000D01*
X114153000Y-87757000D01*
X114153000Y-87503000D01*
X114173000Y-87503000D01*
X114173000Y-86309845D01*
X113943110Y-86188524D01*
X113795901Y-86233175D01*
X113533080Y-86358359D01*
X113299731Y-86532412D01*
X113223966Y-86616466D01*
X113199502Y-86535820D01*
X113140537Y-86425506D01*
X113061185Y-86328815D01*
X112964494Y-86249463D01*
X112854180Y-86190498D01*
X112734482Y-86154188D01*
X112610000Y-86141928D01*
X110910000Y-86141928D01*
X110785518Y-86154188D01*
X110665820Y-86190498D01*
X110555506Y-86249463D01*
X110458815Y-86328815D01*
X110379463Y-86425506D01*
X110320498Y-86535820D01*
X110284188Y-86655518D01*
X110271928Y-86780000D01*
X110271928Y-88480000D01*
X110284188Y-88604482D01*
X110320498Y-88724180D01*
X110379463Y-88834494D01*
X110458815Y-88931185D01*
X110555506Y-89010537D01*
X110665820Y-89069502D01*
X110785518Y-89105812D01*
X110910000Y-89118072D01*
X111105674Y-89118072D01*
X111125026Y-89154276D01*
X111164871Y-89202826D01*
X111219999Y-89270001D01*
X111249002Y-89293803D01*
X112001201Y-90046002D01*
X112024999Y-90075001D01*
X112053997Y-90098799D01*
X112140723Y-90169974D01*
X112258978Y-90233183D01*
X112272753Y-90240546D01*
X112416014Y-90284003D01*
X112527667Y-90295000D01*
X112527677Y-90295000D01*
X112565000Y-90298676D01*
X112602323Y-90295000D01*
X114370198Y-90295000D01*
X110994998Y-93670201D01*
X110966000Y-93693999D01*
X110942202Y-93722997D01*
X110942201Y-93722998D01*
X110871026Y-93809724D01*
X110800454Y-93941754D01*
X110779967Y-94009294D01*
X110756998Y-94085014D01*
X110746178Y-94194866D01*
X110742324Y-94234000D01*
X110746001Y-94271332D01*
X110746000Y-96482677D01*
X110742324Y-96520000D01*
X110746000Y-96557322D01*
X110746000Y-96557332D01*
X110756997Y-96668985D01*
X110777954Y-96738072D01*
X110800454Y-96812246D01*
X110871026Y-96944276D01*
X110884740Y-96960986D01*
X110965999Y-97060001D01*
X110995003Y-97083804D01*
X112175002Y-98263804D01*
X112175001Y-98841928D01*
X110910000Y-98841928D01*
X110785518Y-98854188D01*
X110665820Y-98890498D01*
X110555506Y-98949463D01*
X110458815Y-99028815D01*
X110379463Y-99125506D01*
X110320498Y-99235820D01*
X110284188Y-99355518D01*
X110271928Y-99480000D01*
X110271928Y-101180000D01*
X110284188Y-101304482D01*
X110320498Y-101424180D01*
X110379463Y-101534494D01*
X110458815Y-101631185D01*
X110555506Y-101710537D01*
X110665820Y-101769502D01*
X110734687Y-101790393D01*
X110704866Y-101814866D01*
X110519294Y-102040986D01*
X110381401Y-102298966D01*
X110296487Y-102578889D01*
X110267815Y-102870000D01*
X110296487Y-103161111D01*
X110381401Y-103441034D01*
X110519294Y-103699014D01*
X110704866Y-103925134D01*
X110930986Y-104110706D01*
X110985791Y-104140000D01*
X110930986Y-104169294D01*
X110704866Y-104354866D01*
X110519294Y-104580986D01*
X110381401Y-104838966D01*
X110296487Y-105118889D01*
X110267815Y-105410000D01*
X110296487Y-105701111D01*
X110381401Y-105981034D01*
X110519294Y-106239014D01*
X110704866Y-106465134D01*
X110930986Y-106650706D01*
X110995523Y-106685201D01*
X110878645Y-106754822D01*
X110662412Y-106949731D01*
X110488359Y-107183080D01*
X110363175Y-107445901D01*
X110318524Y-107593110D01*
X110439845Y-107823000D01*
X111633000Y-107823000D01*
X111633000Y-107803000D01*
X111887000Y-107803000D01*
X111887000Y-107823000D01*
X111907000Y-107823000D01*
X111907000Y-108077000D01*
X111887000Y-108077000D01*
X111887000Y-108097000D01*
X111633000Y-108097000D01*
X111633000Y-108077000D01*
X110439845Y-108077000D01*
X110318524Y-108306890D01*
X110363175Y-108454099D01*
X110488359Y-108716920D01*
X110662412Y-108950269D01*
X110878645Y-109145178D01*
X110995523Y-109214799D01*
X110930986Y-109249294D01*
X110704866Y-109434866D01*
X110519294Y-109660986D01*
X110381401Y-109918966D01*
X110296487Y-110198889D01*
X110267815Y-110490000D01*
X110296487Y-110781111D01*
X110381401Y-111061034D01*
X110519294Y-111319014D01*
X110704866Y-111545134D01*
X110930986Y-111730706D01*
X110985791Y-111760000D01*
X110930986Y-111789294D01*
X110704866Y-111974866D01*
X110519294Y-112200986D01*
X110381401Y-112458966D01*
X110296487Y-112738889D01*
X110267815Y-113030000D01*
X110296487Y-113321111D01*
X110381401Y-113601034D01*
X110519294Y-113859014D01*
X110704866Y-114085134D01*
X110930986Y-114270706D01*
X111188966Y-114408599D01*
X111468889Y-114493513D01*
X111687050Y-114515000D01*
X111832950Y-114515000D01*
X112051111Y-114493513D01*
X112331034Y-114408599D01*
X112589014Y-114270706D01*
X112815134Y-114085134D01*
X113000706Y-113859014D01*
X113030000Y-113804209D01*
X113059294Y-113859014D01*
X113244866Y-114085134D01*
X113470986Y-114270706D01*
X113728966Y-114408599D01*
X114008889Y-114493513D01*
X114227050Y-114515000D01*
X114372950Y-114515000D01*
X114591111Y-114493513D01*
X114810001Y-114427113D01*
X114810001Y-115278668D01*
X114806324Y-115316000D01*
X114820998Y-115464985D01*
X114864454Y-115608246D01*
X114935026Y-115740276D01*
X114993070Y-115811002D01*
X115030000Y-115856001D01*
X115058998Y-115879799D01*
X116276200Y-117097002D01*
X116299999Y-117126001D01*
X116415724Y-117220974D01*
X116547753Y-117291546D01*
X116691014Y-117335003D01*
X116802667Y-117346000D01*
X116802676Y-117346000D01*
X116839999Y-117349676D01*
X116877322Y-117346000D01*
X118303199Y-117346000D01*
X118940199Y-117983000D01*
X109860548Y-117983000D01*
X109656605Y-117965157D01*
X109464235Y-117913612D01*
X109283740Y-117829445D01*
X109120610Y-117715220D01*
X108979780Y-117574390D01*
X108865555Y-117411260D01*
X108781388Y-117230765D01*
X108729843Y-117038395D01*
X108712000Y-116834452D01*
X108712000Y-87000548D01*
X108729843Y-86796605D01*
X108781388Y-86604235D01*
X108865555Y-86423740D01*
X108979780Y-86260610D01*
X109120610Y-86119780D01*
X109283740Y-86005555D01*
X109464235Y-85921388D01*
X109656605Y-85869843D01*
X109860548Y-85852000D01*
X120091763Y-85852000D01*
X120015000Y-85914998D01*
X120015000Y-85914998D01*
G37*
X120015000Y-85914998D02*
X119991202Y-85943996D01*
X119745995Y-86189203D01*
X119671111Y-86166487D01*
X119452950Y-86145000D01*
X119307050Y-86145000D01*
X119088889Y-86166487D01*
X118808966Y-86251401D01*
X118550986Y-86389294D01*
X118324866Y-86574866D01*
X118139294Y-86800986D01*
X118110000Y-86855791D01*
X118080706Y-86800986D01*
X117895134Y-86574866D01*
X117669014Y-86389294D01*
X117411034Y-86251401D01*
X117131111Y-86166487D01*
X116912950Y-86145000D01*
X116767050Y-86145000D01*
X116548889Y-86166487D01*
X116268966Y-86251401D01*
X116010986Y-86389294D01*
X115784866Y-86574866D01*
X115599294Y-86800986D01*
X115564799Y-86865523D01*
X115495178Y-86748645D01*
X115300269Y-86532412D01*
X115066920Y-86358359D01*
X114804099Y-86233175D01*
X114656890Y-86188524D01*
X114427000Y-86309845D01*
X114427000Y-87503000D01*
X114447000Y-87503000D01*
X114447000Y-87757000D01*
X114427000Y-87757000D01*
X114427000Y-87777000D01*
X114173000Y-87777000D01*
X114173000Y-87757000D01*
X114153000Y-87757000D01*
X114153000Y-87503000D01*
X114173000Y-87503000D01*
X114173000Y-86309845D01*
X113943110Y-86188524D01*
X113795901Y-86233175D01*
X113533080Y-86358359D01*
X113299731Y-86532412D01*
X113223966Y-86616466D01*
X113199502Y-86535820D01*
X113140537Y-86425506D01*
X113061185Y-86328815D01*
X112964494Y-86249463D01*
X112854180Y-86190498D01*
X112734482Y-86154188D01*
X112610000Y-86141928D01*
X110910000Y-86141928D01*
X110785518Y-86154188D01*
X110665820Y-86190498D01*
X110555506Y-86249463D01*
X110458815Y-86328815D01*
X110379463Y-86425506D01*
X110320498Y-86535820D01*
X110284188Y-86655518D01*
X110271928Y-86780000D01*
X110271928Y-88480000D01*
X110284188Y-88604482D01*
X110320498Y-88724180D01*
X110379463Y-88834494D01*
X110458815Y-88931185D01*
X110555506Y-89010537D01*
X110665820Y-89069502D01*
X110785518Y-89105812D01*
X110910000Y-89118072D01*
X111105674Y-89118072D01*
X111125026Y-89154276D01*
X111164871Y-89202826D01*
X111219999Y-89270001D01*
X111249002Y-89293803D01*
X112001201Y-90046002D01*
X112024999Y-90075001D01*
X112053997Y-90098799D01*
X112140723Y-90169974D01*
X112258978Y-90233183D01*
X112272753Y-90240546D01*
X112416014Y-90284003D01*
X112527667Y-90295000D01*
X112527677Y-90295000D01*
X112565000Y-90298676D01*
X112602323Y-90295000D01*
X114370198Y-90295000D01*
X110994998Y-93670201D01*
X110966000Y-93693999D01*
X110942202Y-93722997D01*
X110942201Y-93722998D01*
X110871026Y-93809724D01*
X110800454Y-93941754D01*
X110779967Y-94009294D01*
X110756998Y-94085014D01*
X110746178Y-94194866D01*
X110742324Y-94234000D01*
X110746001Y-94271332D01*
X110746000Y-96482677D01*
X110742324Y-96520000D01*
X110746000Y-96557322D01*
X110746000Y-96557332D01*
X110756997Y-96668985D01*
X110777954Y-96738072D01*
X110800454Y-96812246D01*
X110871026Y-96944276D01*
X110884740Y-96960986D01*
X110965999Y-97060001D01*
X110995003Y-97083804D01*
X112175002Y-98263804D01*
X112175001Y-98841928D01*
X110910000Y-98841928D01*
X110785518Y-98854188D01*
X110665820Y-98890498D01*
X110555506Y-98949463D01*
X110458815Y-99028815D01*
X110379463Y-99125506D01*
X110320498Y-99235820D01*
X110284188Y-99355518D01*
X110271928Y-99480000D01*
X110271928Y-101180000D01*
X110284188Y-101304482D01*
X110320498Y-101424180D01*
X110379463Y-101534494D01*
X110458815Y-101631185D01*
X110555506Y-101710537D01*
X110665820Y-101769502D01*
X110734687Y-101790393D01*
X110704866Y-101814866D01*
X110519294Y-102040986D01*
X110381401Y-102298966D01*
X110296487Y-102578889D01*
X110267815Y-102870000D01*
X110296487Y-103161111D01*
X110381401Y-103441034D01*
X110519294Y-103699014D01*
X110704866Y-103925134D01*
X110930986Y-104110706D01*
X110985791Y-104140000D01*
X110930986Y-104169294D01*
X110704866Y-104354866D01*
X110519294Y-104580986D01*
X110381401Y-104838966D01*
X110296487Y-105118889D01*
X110267815Y-105410000D01*
X110296487Y-105701111D01*
X110381401Y-105981034D01*
X110519294Y-106239014D01*
X110704866Y-106465134D01*
X110930986Y-106650706D01*
X110995523Y-106685201D01*
X110878645Y-106754822D01*
X110662412Y-106949731D01*
X110488359Y-107183080D01*
X110363175Y-107445901D01*
X110318524Y-107593110D01*
X110439845Y-107823000D01*
X111633000Y-107823000D01*
X111633000Y-107803000D01*
X111887000Y-107803000D01*
X111887000Y-107823000D01*
X111907000Y-107823000D01*
X111907000Y-108077000D01*
X111887000Y-108077000D01*
X111887000Y-108097000D01*
X111633000Y-108097000D01*
X111633000Y-108077000D01*
X110439845Y-108077000D01*
X110318524Y-108306890D01*
X110363175Y-108454099D01*
X110488359Y-108716920D01*
X110662412Y-108950269D01*
X110878645Y-109145178D01*
X110995523Y-109214799D01*
X110930986Y-109249294D01*
X110704866Y-109434866D01*
X110519294Y-109660986D01*
X110381401Y-109918966D01*
X110296487Y-110198889D01*
X110267815Y-110490000D01*
X110296487Y-110781111D01*
X110381401Y-111061034D01*
X110519294Y-111319014D01*
X110704866Y-111545134D01*
X110930986Y-111730706D01*
X110985791Y-111760000D01*
X110930986Y-111789294D01*
X110704866Y-111974866D01*
X110519294Y-112200986D01*
X110381401Y-112458966D01*
X110296487Y-112738889D01*
X110267815Y-113030000D01*
X110296487Y-113321111D01*
X110381401Y-113601034D01*
X110519294Y-113859014D01*
X110704866Y-114085134D01*
X110930986Y-114270706D01*
X111188966Y-114408599D01*
X111468889Y-114493513D01*
X111687050Y-114515000D01*
X111832950Y-114515000D01*
X112051111Y-114493513D01*
X112331034Y-114408599D01*
X112589014Y-114270706D01*
X112815134Y-114085134D01*
X113000706Y-113859014D01*
X113030000Y-113804209D01*
X113059294Y-113859014D01*
X113244866Y-114085134D01*
X113470986Y-114270706D01*
X113728966Y-114408599D01*
X114008889Y-114493513D01*
X114227050Y-114515000D01*
X114372950Y-114515000D01*
X114591111Y-114493513D01*
X114810001Y-114427113D01*
X114810001Y-115278668D01*
X114806324Y-115316000D01*
X114820998Y-115464985D01*
X114864454Y-115608246D01*
X114935026Y-115740276D01*
X114993070Y-115811002D01*
X115030000Y-115856001D01*
X115058998Y-115879799D01*
X116276200Y-117097002D01*
X116299999Y-117126001D01*
X116415724Y-117220974D01*
X116547753Y-117291546D01*
X116691014Y-117335003D01*
X116802667Y-117346000D01*
X116802676Y-117346000D01*
X116839999Y-117349676D01*
X116877322Y-117346000D01*
X118303199Y-117346000D01*
X118940199Y-117983000D01*
X109860548Y-117983000D01*
X109656605Y-117965157D01*
X109464235Y-117913612D01*
X109283740Y-117829445D01*
X109120610Y-117715220D01*
X108979780Y-117574390D01*
X108865555Y-117411260D01*
X108781388Y-117230765D01*
X108729843Y-117038395D01*
X108712000Y-116834452D01*
X108712000Y-87000548D01*
X108729843Y-86796605D01*
X108781388Y-86604235D01*
X108865555Y-86423740D01*
X108979780Y-86260610D01*
X109120610Y-86119780D01*
X109283740Y-86005555D01*
X109464235Y-85921388D01*
X109656605Y-85869843D01*
X109860548Y-85852000D01*
X120091763Y-85852000D01*
X120015000Y-85914998D01*
G36*
X123071207Y-97031008D02*
G01*
X123095001Y-97060001D01*
X123123994Y-97083795D01*
X123123998Y-97083799D01*
X123144608Y-97100713D01*
X123081401Y-97218966D01*
X122996487Y-97498889D01*
X122967815Y-97790000D01*
X122996487Y-98081111D01*
X123081401Y-98361034D01*
X123219294Y-98619014D01*
X123404866Y-98845134D01*
X123630986Y-99030706D01*
X123685791Y-99060000D01*
X123630986Y-99089294D01*
X123404866Y-99274866D01*
X123219294Y-99500986D01*
X123081401Y-99758966D01*
X122996487Y-100038889D01*
X122967815Y-100330000D01*
X122996487Y-100621111D01*
X123081401Y-100901034D01*
X123219294Y-101159014D01*
X123404866Y-101385134D01*
X123630986Y-101570706D01*
X123685791Y-101600000D01*
X123630986Y-101629294D01*
X123404866Y-101814866D01*
X123219294Y-102040986D01*
X123081401Y-102298966D01*
X122996487Y-102578889D01*
X122967815Y-102870000D01*
X122996487Y-103161111D01*
X123081401Y-103441034D01*
X123219294Y-103699014D01*
X123404866Y-103925134D01*
X123630986Y-104110706D01*
X123685791Y-104140000D01*
X123630986Y-104169294D01*
X123404866Y-104354866D01*
X123219294Y-104580986D01*
X123081401Y-104838966D01*
X122996487Y-105118889D01*
X122967815Y-105410000D01*
X122996487Y-105701111D01*
X123081401Y-105981034D01*
X123219294Y-106239014D01*
X123404866Y-106465134D01*
X123630986Y-106650706D01*
X123685791Y-106680000D01*
X123630986Y-106709294D01*
X123404866Y-106894866D01*
X123219294Y-107120986D01*
X123081401Y-107378966D01*
X122996487Y-107658889D01*
X122967815Y-107950000D01*
X122996487Y-108241111D01*
X123081401Y-108521034D01*
X123219294Y-108779014D01*
X123404866Y-109005134D01*
X123630986Y-109190706D01*
X123685791Y-109220000D01*
X123630986Y-109249294D01*
X123404866Y-109434866D01*
X123219294Y-109660986D01*
X123081401Y-109918966D01*
X122996487Y-110198889D01*
X122967815Y-110490000D01*
X122996487Y-110781111D01*
X123081401Y-111061034D01*
X123219294Y-111319014D01*
X123404866Y-111545134D01*
X123630986Y-111730706D01*
X123685791Y-111760000D01*
X123630986Y-111789294D01*
X123404866Y-111974866D01*
X123219294Y-112200986D01*
X123081401Y-112458966D01*
X122996487Y-112738889D01*
X122967815Y-113030000D01*
X122996487Y-113321111D01*
X123081401Y-113601034D01*
X123219294Y-113859014D01*
X123404866Y-114085134D01*
X123630986Y-114270706D01*
X123685791Y-114300000D01*
X123630986Y-114329294D01*
X123404866Y-114514866D01*
X123219294Y-114740986D01*
X123081401Y-114998966D01*
X122996487Y-115278889D01*
X122967815Y-115570000D01*
X122996487Y-115861111D01*
X123081401Y-116141034D01*
X123219294Y-116399014D01*
X123404866Y-116625134D01*
X123630986Y-116810706D01*
X123685791Y-116840000D01*
X123630986Y-116869294D01*
X123404866Y-117054866D01*
X123219294Y-117280986D01*
X123100849Y-117502582D01*
X123062974Y-117431724D01*
X122968001Y-117315999D01*
X122939003Y-117292201D01*
X120197804Y-114551003D01*
X120174001Y-114521999D01*
X120058276Y-114427026D01*
X119926247Y-114356454D01*
X119782986Y-114312997D01*
X119671333Y-114302000D01*
X119671322Y-114302000D01*
X119634000Y-114298324D01*
X119596678Y-114302000D01*
X118880467Y-114302000D01*
X118939014Y-114270706D01*
X119165134Y-114085134D01*
X119350706Y-113859014D01*
X119381584Y-113801244D01*
X119552412Y-114030269D01*
X119768645Y-114225178D01*
X120018748Y-114374157D01*
X120293109Y-114471481D01*
X120523000Y-114350814D01*
X120523000Y-113157000D01*
X120777000Y-113157000D01*
X120777000Y-114350814D01*
X121006891Y-114471481D01*
X121281252Y-114374157D01*
X121531355Y-114225178D01*
X121747588Y-114030269D01*
X121921641Y-113796920D01*
X122046825Y-113534099D01*
X122091476Y-113386890D01*
X121970155Y-113157000D01*
X120777000Y-113157000D01*
X120523000Y-113157000D01*
X120503000Y-113157000D01*
X120503000Y-112903000D01*
X120523000Y-112903000D01*
X120523000Y-110617000D01*
X120777000Y-110617000D01*
X120777000Y-112903000D01*
X121970155Y-112903000D01*
X122091476Y-112673110D01*
X122046825Y-112525901D01*
X121921641Y-112263080D01*
X121747588Y-112029731D01*
X121531355Y-111834822D01*
X121405745Y-111760000D01*
X121531355Y-111685178D01*
X121747588Y-111490269D01*
X121921641Y-111256920D01*
X122046825Y-110994099D01*
X122091476Y-110846890D01*
X121970155Y-110617000D01*
X120777000Y-110617000D01*
X120523000Y-110617000D01*
X120503000Y-110617000D01*
X120503000Y-110363000D01*
X120523000Y-110363000D01*
X120523000Y-108077000D01*
X120777000Y-108077000D01*
X120777000Y-110363000D01*
X121970155Y-110363000D01*
X122091476Y-110133110D01*
X122046825Y-109985901D01*
X121921641Y-109723080D01*
X121747588Y-109489731D01*
X121531355Y-109294822D01*
X121405745Y-109220000D01*
X121531355Y-109145178D01*
X121747588Y-108950269D01*
X121921641Y-108716920D01*
X122046825Y-108454099D01*
X122091476Y-108306890D01*
X121970155Y-108077000D01*
X120777000Y-108077000D01*
X120523000Y-108077000D01*
X120503000Y-108077000D01*
X120503000Y-107823000D01*
X120523000Y-107823000D01*
X120523000Y-105537000D01*
X120777000Y-105537000D01*
X120777000Y-107823000D01*
X121970155Y-107823000D01*
X122091476Y-107593110D01*
X122046825Y-107445901D01*
X121921641Y-107183080D01*
X121747588Y-106949731D01*
X121531355Y-106754822D01*
X121405745Y-106680000D01*
X121531355Y-106605178D01*
X121747588Y-106410269D01*
X121921641Y-106176920D01*
X122046825Y-105914099D01*
X122091476Y-105766890D01*
X121970155Y-105537000D01*
X120777000Y-105537000D01*
X120523000Y-105537000D01*
X120503000Y-105537000D01*
X120503000Y-105283000D01*
X120523000Y-105283000D01*
X120523000Y-102997000D01*
X120777000Y-102997000D01*
X120777000Y-105283000D01*
X121970155Y-105283000D01*
X122091476Y-105053110D01*
X122046825Y-104905901D01*
X121921641Y-104643080D01*
X121747588Y-104409731D01*
X121531355Y-104214822D01*
X121405745Y-104140000D01*
X121531355Y-104065178D01*
X121747588Y-103870269D01*
X121921641Y-103636920D01*
X122046825Y-103374099D01*
X122091476Y-103226890D01*
X121970155Y-102997000D01*
X120777000Y-102997000D01*
X120523000Y-102997000D01*
X120503000Y-102997000D01*
X120503000Y-102743000D01*
X120523000Y-102743000D01*
X120523000Y-100457000D01*
X120777000Y-100457000D01*
X120777000Y-102743000D01*
X121970155Y-102743000D01*
X122091476Y-102513110D01*
X122046825Y-102365901D01*
X121921641Y-102103080D01*
X121747588Y-101869731D01*
X121531355Y-101674822D01*
X121405745Y-101600000D01*
X121531355Y-101525178D01*
X121747588Y-101330269D01*
X121921641Y-101096920D01*
X122046825Y-100834099D01*
X122091476Y-100686890D01*
X121970155Y-100457000D01*
X120777000Y-100457000D01*
X120523000Y-100457000D01*
X120503000Y-100457000D01*
X120503000Y-100203000D01*
X120523000Y-100203000D01*
X120523000Y-100183000D01*
X120777000Y-100183000D01*
X120777000Y-100203000D01*
X121970155Y-100203000D01*
X122091476Y-99973110D01*
X122046825Y-99825901D01*
X121921641Y-99563080D01*
X121747588Y-99329731D01*
X121531355Y-99134822D01*
X121414477Y-99065201D01*
X121479014Y-99030706D01*
X121705134Y-98845134D01*
X121890706Y-98619014D01*
X122028599Y-98361034D01*
X122113513Y-98081111D01*
X122142185Y-97790000D01*
X122113513Y-97498889D01*
X122028599Y-97218966D01*
X121890706Y-96960986D01*
X121705134Y-96734866D01*
X121479014Y-96549294D01*
X121414477Y-96514799D01*
X121531355Y-96445178D01*
X121747588Y-96250269D01*
X121921641Y-96016920D01*
X121965351Y-95925152D01*
X123071207Y-97031008D01*
X123071207Y-97031008D01*
G37*
X123071207Y-97031008D02*
X123095001Y-97060001D01*
X123123994Y-97083795D01*
X123123998Y-97083799D01*
X123144608Y-97100713D01*
X123081401Y-97218966D01*
X122996487Y-97498889D01*
X122967815Y-97790000D01*
X122996487Y-98081111D01*
X123081401Y-98361034D01*
X123219294Y-98619014D01*
X123404866Y-98845134D01*
X123630986Y-99030706D01*
X123685791Y-99060000D01*
X123630986Y-99089294D01*
X123404866Y-99274866D01*
X123219294Y-99500986D01*
X123081401Y-99758966D01*
X122996487Y-100038889D01*
X122967815Y-100330000D01*
X122996487Y-100621111D01*
X123081401Y-100901034D01*
X123219294Y-101159014D01*
X123404866Y-101385134D01*
X123630986Y-101570706D01*
X123685791Y-101600000D01*
X123630986Y-101629294D01*
X123404866Y-101814866D01*
X123219294Y-102040986D01*
X123081401Y-102298966D01*
X122996487Y-102578889D01*
X122967815Y-102870000D01*
X122996487Y-103161111D01*
X123081401Y-103441034D01*
X123219294Y-103699014D01*
X123404866Y-103925134D01*
X123630986Y-104110706D01*
X123685791Y-104140000D01*
X123630986Y-104169294D01*
X123404866Y-104354866D01*
X123219294Y-104580986D01*
X123081401Y-104838966D01*
X122996487Y-105118889D01*
X122967815Y-105410000D01*
X122996487Y-105701111D01*
X123081401Y-105981034D01*
X123219294Y-106239014D01*
X123404866Y-106465134D01*
X123630986Y-106650706D01*
X123685791Y-106680000D01*
X123630986Y-106709294D01*
X123404866Y-106894866D01*
X123219294Y-107120986D01*
X123081401Y-107378966D01*
X122996487Y-107658889D01*
X122967815Y-107950000D01*
X122996487Y-108241111D01*
X123081401Y-108521034D01*
X123219294Y-108779014D01*
X123404866Y-109005134D01*
X123630986Y-109190706D01*
X123685791Y-109220000D01*
X123630986Y-109249294D01*
X123404866Y-109434866D01*
X123219294Y-109660986D01*
X123081401Y-109918966D01*
X122996487Y-110198889D01*
X122967815Y-110490000D01*
X122996487Y-110781111D01*
X123081401Y-111061034D01*
X123219294Y-111319014D01*
X123404866Y-111545134D01*
X123630986Y-111730706D01*
X123685791Y-111760000D01*
X123630986Y-111789294D01*
X123404866Y-111974866D01*
X123219294Y-112200986D01*
X123081401Y-112458966D01*
X122996487Y-112738889D01*
X122967815Y-113030000D01*
X122996487Y-113321111D01*
X123081401Y-113601034D01*
X123219294Y-113859014D01*
X123404866Y-114085134D01*
X123630986Y-114270706D01*
X123685791Y-114300000D01*
X123630986Y-114329294D01*
X123404866Y-114514866D01*
X123219294Y-114740986D01*
X123081401Y-114998966D01*
X122996487Y-115278889D01*
X122967815Y-115570000D01*
X122996487Y-115861111D01*
X123081401Y-116141034D01*
X123219294Y-116399014D01*
X123404866Y-116625134D01*
X123630986Y-116810706D01*
X123685791Y-116840000D01*
X123630986Y-116869294D01*
X123404866Y-117054866D01*
X123219294Y-117280986D01*
X123100849Y-117502582D01*
X123062974Y-117431724D01*
X122968001Y-117315999D01*
X122939003Y-117292201D01*
X120197804Y-114551003D01*
X120174001Y-114521999D01*
X120058276Y-114427026D01*
X119926247Y-114356454D01*
X119782986Y-114312997D01*
X119671333Y-114302000D01*
X119671322Y-114302000D01*
X119634000Y-114298324D01*
X119596678Y-114302000D01*
X118880467Y-114302000D01*
X118939014Y-114270706D01*
X119165134Y-114085134D01*
X119350706Y-113859014D01*
X119381584Y-113801244D01*
X119552412Y-114030269D01*
X119768645Y-114225178D01*
X120018748Y-114374157D01*
X120293109Y-114471481D01*
X120523000Y-114350814D01*
X120523000Y-113157000D01*
X120777000Y-113157000D01*
X120777000Y-114350814D01*
X121006891Y-114471481D01*
X121281252Y-114374157D01*
X121531355Y-114225178D01*
X121747588Y-114030269D01*
X121921641Y-113796920D01*
X122046825Y-113534099D01*
X122091476Y-113386890D01*
X121970155Y-113157000D01*
X120777000Y-113157000D01*
X120523000Y-113157000D01*
X120503000Y-113157000D01*
X120503000Y-112903000D01*
X120523000Y-112903000D01*
X120523000Y-110617000D01*
X120777000Y-110617000D01*
X120777000Y-112903000D01*
X121970155Y-112903000D01*
X122091476Y-112673110D01*
X122046825Y-112525901D01*
X121921641Y-112263080D01*
X121747588Y-112029731D01*
X121531355Y-111834822D01*
X121405745Y-111760000D01*
X121531355Y-111685178D01*
X121747588Y-111490269D01*
X121921641Y-111256920D01*
X122046825Y-110994099D01*
X122091476Y-110846890D01*
X121970155Y-110617000D01*
X120777000Y-110617000D01*
X120523000Y-110617000D01*
X120503000Y-110617000D01*
X120503000Y-110363000D01*
X120523000Y-110363000D01*
X120523000Y-108077000D01*
X120777000Y-108077000D01*
X120777000Y-110363000D01*
X121970155Y-110363000D01*
X122091476Y-110133110D01*
X122046825Y-109985901D01*
X121921641Y-109723080D01*
X121747588Y-109489731D01*
X121531355Y-109294822D01*
X121405745Y-109220000D01*
X121531355Y-109145178D01*
X121747588Y-108950269D01*
X121921641Y-108716920D01*
X122046825Y-108454099D01*
X122091476Y-108306890D01*
X121970155Y-108077000D01*
X120777000Y-108077000D01*
X120523000Y-108077000D01*
X120503000Y-108077000D01*
X120503000Y-107823000D01*
X120523000Y-107823000D01*
X120523000Y-105537000D01*
X120777000Y-105537000D01*
X120777000Y-107823000D01*
X121970155Y-107823000D01*
X122091476Y-107593110D01*
X122046825Y-107445901D01*
X121921641Y-107183080D01*
X121747588Y-106949731D01*
X121531355Y-106754822D01*
X121405745Y-106680000D01*
X121531355Y-106605178D01*
X121747588Y-106410269D01*
X121921641Y-106176920D01*
X122046825Y-105914099D01*
X122091476Y-105766890D01*
X121970155Y-105537000D01*
X120777000Y-105537000D01*
X120523000Y-105537000D01*
X120503000Y-105537000D01*
X120503000Y-105283000D01*
X120523000Y-105283000D01*
X120523000Y-102997000D01*
X120777000Y-102997000D01*
X120777000Y-105283000D01*
X121970155Y-105283000D01*
X122091476Y-105053110D01*
X122046825Y-104905901D01*
X121921641Y-104643080D01*
X121747588Y-104409731D01*
X121531355Y-104214822D01*
X121405745Y-104140000D01*
X121531355Y-104065178D01*
X121747588Y-103870269D01*
X121921641Y-103636920D01*
X122046825Y-103374099D01*
X122091476Y-103226890D01*
X121970155Y-102997000D01*
X120777000Y-102997000D01*
X120523000Y-102997000D01*
X120503000Y-102997000D01*
X120503000Y-102743000D01*
X120523000Y-102743000D01*
X120523000Y-100457000D01*
X120777000Y-100457000D01*
X120777000Y-102743000D01*
X121970155Y-102743000D01*
X122091476Y-102513110D01*
X122046825Y-102365901D01*
X121921641Y-102103080D01*
X121747588Y-101869731D01*
X121531355Y-101674822D01*
X121405745Y-101600000D01*
X121531355Y-101525178D01*
X121747588Y-101330269D01*
X121921641Y-101096920D01*
X122046825Y-100834099D01*
X122091476Y-100686890D01*
X121970155Y-100457000D01*
X120777000Y-100457000D01*
X120523000Y-100457000D01*
X120503000Y-100457000D01*
X120503000Y-100203000D01*
X120523000Y-100203000D01*
X120523000Y-100183000D01*
X120777000Y-100183000D01*
X120777000Y-100203000D01*
X121970155Y-100203000D01*
X122091476Y-99973110D01*
X122046825Y-99825901D01*
X121921641Y-99563080D01*
X121747588Y-99329731D01*
X121531355Y-99134822D01*
X121414477Y-99065201D01*
X121479014Y-99030706D01*
X121705134Y-98845134D01*
X121890706Y-98619014D01*
X122028599Y-98361034D01*
X122113513Y-98081111D01*
X122142185Y-97790000D01*
X122113513Y-97498889D01*
X122028599Y-97218966D01*
X121890706Y-96960986D01*
X121705134Y-96734866D01*
X121479014Y-96549294D01*
X121414477Y-96514799D01*
X121531355Y-96445178D01*
X121747588Y-96250269D01*
X121921641Y-96016920D01*
X121965351Y-95925152D01*
X123071207Y-97031008D01*
G36*
X135765001Y-112569327D02*
G01*
X133425722Y-114908606D01*
X133332069Y-114733394D01*
X133144797Y-114505203D01*
X132916606Y-114317931D01*
X132872090Y-114294137D01*
X132968488Y-114236817D01*
X133186854Y-114040293D01*
X133362684Y-113804944D01*
X133489222Y-113539814D01*
X133534958Y-113389026D01*
X133413817Y-113157000D01*
X132207000Y-113157000D01*
X132207000Y-113177000D01*
X131953000Y-113177000D01*
X131953000Y-113157000D01*
X131933000Y-113157000D01*
X131933000Y-112903000D01*
X131953000Y-112903000D01*
X131953000Y-111695536D01*
X132207000Y-111695536D01*
X132207000Y-112903000D01*
X133413817Y-112903000D01*
X133534958Y-112670974D01*
X133489222Y-112520186D01*
X133362684Y-112255056D01*
X133186854Y-112019707D01*
X132968488Y-111823183D01*
X132715978Y-111673036D01*
X132439027Y-111575037D01*
X132207000Y-111695536D01*
X131953000Y-111695536D01*
X131720973Y-111575037D01*
X131488601Y-111657262D01*
X131488601Y-109175923D01*
X131492277Y-109138600D01*
X131488601Y-109101277D01*
X131488601Y-109101268D01*
X131477604Y-108989615D01*
X131434147Y-108846354D01*
X131363575Y-108714325D01*
X131341100Y-108686939D01*
X131292400Y-108627597D01*
X131292396Y-108627593D01*
X131268602Y-108598600D01*
X131239609Y-108574806D01*
X130997737Y-108332934D01*
X131111898Y-108310226D01*
X131300256Y-108232205D01*
X131469774Y-108118937D01*
X131613937Y-107974774D01*
X131727205Y-107805256D01*
X131805226Y-107616898D01*
X131845000Y-107416939D01*
X131845000Y-107354801D01*
X135765001Y-103434801D01*
X135765001Y-112569327D01*
X135765001Y-112569327D01*
G37*
X135765001Y-112569327D02*
X133425722Y-114908606D01*
X133332069Y-114733394D01*
X133144797Y-114505203D01*
X132916606Y-114317931D01*
X132872090Y-114294137D01*
X132968488Y-114236817D01*
X133186854Y-114040293D01*
X133362684Y-113804944D01*
X133489222Y-113539814D01*
X133534958Y-113389026D01*
X133413817Y-113157000D01*
X132207000Y-113157000D01*
X132207000Y-113177000D01*
X131953000Y-113177000D01*
X131953000Y-113157000D01*
X131933000Y-113157000D01*
X131933000Y-112903000D01*
X131953000Y-112903000D01*
X131953000Y-111695536D01*
X132207000Y-111695536D01*
X132207000Y-112903000D01*
X133413817Y-112903000D01*
X133534958Y-112670974D01*
X133489222Y-112520186D01*
X133362684Y-112255056D01*
X133186854Y-112019707D01*
X132968488Y-111823183D01*
X132715978Y-111673036D01*
X132439027Y-111575037D01*
X132207000Y-111695536D01*
X131953000Y-111695536D01*
X131720973Y-111575037D01*
X131488601Y-111657262D01*
X131488601Y-109175923D01*
X131492277Y-109138600D01*
X131488601Y-109101277D01*
X131488601Y-109101268D01*
X131477604Y-108989615D01*
X131434147Y-108846354D01*
X131363575Y-108714325D01*
X131341100Y-108686939D01*
X131292400Y-108627597D01*
X131292396Y-108627593D01*
X131268602Y-108598600D01*
X131239609Y-108574806D01*
X130997737Y-108332934D01*
X131111898Y-108310226D01*
X131300256Y-108232205D01*
X131469774Y-108118937D01*
X131613937Y-107974774D01*
X131727205Y-107805256D01*
X131805226Y-107616898D01*
X131845000Y-107416939D01*
X131845000Y-107354801D01*
X135765001Y-103434801D01*
X135765001Y-112569327D01*
G36*
X113059294Y-108779014D02*
G01*
X113244866Y-109005134D01*
X113470986Y-109190706D01*
X113525791Y-109220000D01*
X113470986Y-109249294D01*
X113244866Y-109434866D01*
X113059294Y-109660986D01*
X113030000Y-109715791D01*
X113000706Y-109660986D01*
X112815134Y-109434866D01*
X112589014Y-109249294D01*
X112524477Y-109214799D01*
X112641355Y-109145178D01*
X112857588Y-108950269D01*
X113028416Y-108721244D01*
X113059294Y-108779014D01*
X113059294Y-108779014D01*
G37*
X113059294Y-108779014D02*
X113244866Y-109005134D01*
X113470986Y-109190706D01*
X113525791Y-109220000D01*
X113470986Y-109249294D01*
X113244866Y-109434866D01*
X113059294Y-109660986D01*
X113030000Y-109715791D01*
X113000706Y-109660986D01*
X112815134Y-109434866D01*
X112589014Y-109249294D01*
X112524477Y-109214799D01*
X112641355Y-109145178D01*
X112857588Y-108950269D01*
X113028416Y-108721244D01*
X113059294Y-108779014D01*
G36*
X120777000Y-95123000D02*
G01*
X120797000Y-95123000D01*
X120797000Y-95377000D01*
X120777000Y-95377000D01*
X120777000Y-95397000D01*
X120523000Y-95397000D01*
X120523000Y-95377000D01*
X120503000Y-95377000D01*
X120503000Y-95123000D01*
X120523000Y-95123000D01*
X120523000Y-95103000D01*
X120777000Y-95103000D01*
X120777000Y-95123000D01*
X120777000Y-95123000D01*
G37*
X120777000Y-95123000D02*
X120797000Y-95123000D01*
X120797000Y-95377000D01*
X120777000Y-95377000D01*
X120777000Y-95397000D01*
X120523000Y-95397000D01*
X120523000Y-95377000D01*
X120503000Y-95377000D01*
X120503000Y-95123000D01*
X120523000Y-95123000D01*
X120523000Y-95103000D01*
X120777000Y-95103000D01*
X120777000Y-95123000D01*
G36*
X132207000Y-91313000D02*
G01*
X132227000Y-91313000D01*
X132227000Y-91567000D01*
X132207000Y-91567000D01*
X132207000Y-91587000D01*
X131953000Y-91587000D01*
X131953000Y-91567000D01*
X131933000Y-91567000D01*
X131933000Y-91313000D01*
X131953000Y-91313000D01*
X131953000Y-91293000D01*
X132207000Y-91293000D01*
X132207000Y-91313000D01*
X132207000Y-91313000D01*
G37*
X132207000Y-91313000D02*
X132227000Y-91313000D01*
X132227000Y-91567000D01*
X132207000Y-91567000D01*
X132207000Y-91587000D01*
X131953000Y-91587000D01*
X131953000Y-91567000D01*
X131933000Y-91567000D01*
X131933000Y-91313000D01*
X131953000Y-91313000D01*
X131953000Y-91293000D01*
X132207000Y-91293000D01*
X132207000Y-91313000D01*
M02*
