G04 #@! TF.GenerationSoftware,KiCad,Pcbnew,(5.1.0-0)*
G04 #@! TF.CreationDate,2019-04-12T23:41:18+08:00*
G04 #@! TF.ProjectId,Ulticontroller_adapter,556c7469-636f-46e7-9472-6f6c6c65725f,rev?*
G04 #@! TF.SameCoordinates,Original*
G04 #@! TF.FileFunction,Legend,Top*
G04 #@! TF.FilePolarity,Positive*
%FSLAX46Y46*%
G04 Gerber Fmt 4.6, Leading zero omitted, Abs format (unit mm)*
G04 Created by KiCad (PCBNEW (5.1.0-0)) date 2019-04-12 23:41:18*
%MOMM*%
%LPD*%
G04 APERTURE LIST*
%ADD10C,0.150000*%
%ADD11C,0.200000*%
%ADD12C,0.120000*%
G04 APERTURE END LIST*
D10*
X127714476Y-135987285D02*
X128333523Y-135987285D01*
X128000190Y-136273000D01*
X128143047Y-136273000D01*
X128238285Y-136308714D01*
X128285904Y-136344428D01*
X128333523Y-136415857D01*
X128333523Y-136594428D01*
X128285904Y-136665857D01*
X128238285Y-136701571D01*
X128143047Y-136737285D01*
X127857333Y-136737285D01*
X127762095Y-136701571D01*
X127714476Y-136665857D01*
X128714476Y-136058714D02*
X128762095Y-136023000D01*
X128857333Y-135987285D01*
X129095428Y-135987285D01*
X129190666Y-136023000D01*
X129238285Y-136058714D01*
X129285904Y-136130142D01*
X129285904Y-136201571D01*
X129238285Y-136308714D01*
X128666857Y-136737285D01*
X129285904Y-136737285D01*
D11*
X129153566Y-135142165D02*
X129153566Y-133604000D01*
X129276613Y-135450750D02*
X129195548Y-135331622D01*
X129195548Y-135331622D02*
X129154587Y-135172485D01*
X129154587Y-135172485D02*
X129153566Y-135142165D01*
X129366357Y-135545390D02*
X129276613Y-135450750D01*
X128793672Y-135545390D02*
X129366357Y-135545390D01*
X129366357Y-135545390D02*
X129366357Y-135545390D01*
X128529036Y-135280754D02*
X128577625Y-135433619D01*
X128577625Y-135433619D02*
X128688070Y-135523478D01*
X128688070Y-135523478D02*
X128793672Y-135545390D01*
X128529036Y-134366381D02*
X128529036Y-135280754D01*
X127718104Y-135356306D02*
X128529036Y-134366381D01*
X128529036Y-134366381D02*
X128529036Y-134366381D01*
X123948784Y-134641189D02*
X123851351Y-134536844D01*
X123851351Y-134536844D02*
X123844825Y-134532190D01*
X123992701Y-134787432D02*
X123948784Y-134641189D01*
X123956485Y-134974287D02*
X123993169Y-134810419D01*
X123993169Y-134810419D02*
X123992701Y-134787432D01*
X123844039Y-135161819D02*
X123925639Y-135041589D01*
X123925639Y-135041589D02*
X123956485Y-134974287D01*
X123684481Y-135308739D02*
X123793603Y-135216153D01*
X123793603Y-135216153D02*
X123844039Y-135161819D01*
X123869639Y-133956045D02*
X124034795Y-133991007D01*
X124034795Y-133991007D02*
X124154331Y-134071964D01*
X124154331Y-134071964D02*
X124184840Y-134105246D01*
X122885835Y-133956045D02*
X123869639Y-133956045D01*
X123869639Y-133956045D02*
X123869639Y-133956045D01*
X122633957Y-134016978D02*
X122781713Y-133964657D01*
X122781713Y-133964657D02*
X122885835Y-133956045D01*
X122488534Y-134178109D02*
X122571634Y-134061156D01*
X122571634Y-134061156D02*
X122633957Y-134016978D01*
X125317991Y-135545091D02*
X125715985Y-135545091D01*
X125715985Y-135545091D02*
X125715987Y-135545091D01*
X126840850Y-133745383D02*
X125317991Y-135545091D01*
X125317991Y-135545091D02*
X125317991Y-135545091D01*
X127145691Y-133604000D02*
X126980730Y-133639661D01*
X126980730Y-133639661D02*
X126862559Y-133721717D01*
X126862559Y-133721717D02*
X126840850Y-133745383D01*
X127570030Y-133604000D02*
X127145691Y-133604000D01*
X127145691Y-133604000D02*
X127145691Y-133604000D01*
X127570030Y-134774682D02*
X127570030Y-133604000D01*
X127570030Y-133604000D02*
X127570030Y-133604000D01*
X125083609Y-134331539D02*
X124933119Y-134148694D01*
X124933119Y-134148694D02*
X124662240Y-133819573D01*
X124662240Y-133819573D02*
X124602045Y-133746436D01*
X125375274Y-134336594D02*
X125239301Y-134401248D01*
X125239301Y-134401248D02*
X125095619Y-134344843D01*
X125095619Y-134344843D02*
X125083609Y-134331539D01*
X127318145Y-135545690D02*
X127490667Y-135516054D01*
X127490667Y-135516054D02*
X127621826Y-135447104D01*
X127621826Y-135447104D02*
X127718104Y-135356306D01*
X127043398Y-135545690D02*
X127318145Y-135545690D01*
X127050466Y-135535320D02*
X127043398Y-135545690D01*
X127050466Y-134225343D02*
X127050466Y-135535318D01*
X127050466Y-135535318D02*
X127050466Y-135535320D01*
X126095026Y-135367948D02*
X126214456Y-135225122D01*
X126214456Y-135225122D02*
X126751891Y-134582406D01*
X126751891Y-134582406D02*
X127020608Y-134261049D01*
X127020608Y-134261049D02*
X127050466Y-134225343D01*
X125715987Y-135545091D02*
X125886139Y-135514864D01*
X125886139Y-135514864D02*
X126015769Y-135443754D01*
X126015769Y-135443754D02*
X126095026Y-135367948D01*
X125879189Y-133765852D02*
X125721714Y-133944207D01*
X125721714Y-133944207D02*
X125438263Y-134265251D01*
X125438263Y-134265251D02*
X125375274Y-134336594D01*
X128388399Y-133775677D02*
X127570030Y-134774682D01*
X127570030Y-134774682D02*
X127570030Y-134774682D01*
X128750963Y-133604000D02*
X128579688Y-133636409D01*
X128579688Y-133636409D02*
X128452717Y-133711128D01*
X128452717Y-133711128D02*
X128388399Y-133775677D01*
X129153566Y-133604000D02*
X128750963Y-133604000D01*
X128750963Y-133604000D02*
X128750963Y-133604000D01*
X126729255Y-133604000D02*
X126238000Y-133604000D01*
X126238000Y-133604000D02*
X126238000Y-133604000D01*
X124762974Y-135941121D02*
X125008759Y-135648980D01*
X125008759Y-135648980D02*
X126483469Y-133896140D01*
X126483469Y-133896140D02*
X126729255Y-133604000D01*
X124131459Y-136235099D02*
X124312889Y-136214912D01*
X124312889Y-136214912D02*
X124463636Y-136165291D01*
X124463636Y-136165291D02*
X124592892Y-136094045D01*
X124592892Y-136094045D02*
X124704371Y-136003841D01*
X124704371Y-136003841D02*
X124762974Y-135941121D01*
X123747695Y-136235099D02*
X124131459Y-136235099D01*
X124131459Y-136235099D02*
X124131459Y-136235099D01*
X124742732Y-135035993D02*
X123747695Y-136235099D01*
X123747695Y-136235099D02*
X123747695Y-136235099D01*
X124743488Y-134786835D02*
X124784443Y-134947378D01*
X124784443Y-134947378D02*
X124742732Y-135035993D01*
X124184840Y-134105246D02*
X124359417Y-134318241D01*
X124359417Y-134318241D02*
X124673657Y-134701636D01*
X124673657Y-134701636D02*
X124743488Y-134786835D01*
X123493812Y-135417061D02*
X123625399Y-135348237D01*
X123625399Y-135348237D02*
X123684481Y-135308739D01*
X123289401Y-135490169D02*
X123440203Y-135439333D01*
X123440203Y-135439333D02*
X123493812Y-135417061D01*
X123088389Y-135532148D02*
X123256803Y-135498897D01*
X123256803Y-135498897D02*
X123289401Y-135490169D01*
X122906488Y-135545690D02*
X123088389Y-135532148D01*
X121309877Y-135545690D02*
X122906486Y-135545690D01*
X122906486Y-135545690D02*
X122906488Y-135545690D01*
X121363104Y-135410753D02*
X121309877Y-135545690D01*
X121682140Y-135193638D02*
X121521288Y-135233689D01*
X121521288Y-135233689D02*
X121412217Y-135324988D01*
X121412217Y-135324988D02*
X121363104Y-135410753D01*
X122860009Y-135193638D02*
X121682140Y-135193638D01*
X121682140Y-135193638D02*
X121682140Y-135193638D01*
X123113334Y-135134059D02*
X122964591Y-135185328D01*
X122964591Y-135185328D02*
X122860009Y-135193638D01*
X123258231Y-134974287D02*
X123174394Y-135091449D01*
X123174394Y-135091449D02*
X123113334Y-135134059D01*
X123271783Y-134884918D02*
X123258231Y-134974287D01*
X123237414Y-134814502D02*
X123271783Y-134884918D01*
X123156931Y-134768479D02*
X123237414Y-134814502D01*
X123034128Y-134752217D02*
X123156931Y-134768479D01*
X122427623Y-134752217D02*
X123034128Y-134752217D01*
X122171353Y-134721751D02*
X122346219Y-134749013D01*
X122346219Y-134749013D02*
X122427623Y-134752217D01*
X121807577Y-134446216D02*
X121883802Y-134570349D01*
X121883802Y-134570349D02*
X121997802Y-134657706D01*
X121997802Y-134657706D02*
X122142302Y-134714501D01*
X122142302Y-134714501D02*
X122171353Y-134721751D01*
X121831469Y-134178109D02*
X121793169Y-134340399D01*
X121793169Y-134340399D02*
X121807577Y-134446216D01*
X122018817Y-133910691D02*
X121921879Y-134015015D01*
X121921879Y-134015015D02*
X121847241Y-134141060D01*
X121847241Y-134141060D02*
X121831469Y-134178109D01*
X122293946Y-133733305D02*
X122163510Y-133803282D01*
X122163510Y-133803282D02*
X122046676Y-133887129D01*
X122046676Y-133887129D02*
X122018817Y-133910691D01*
X122600236Y-133634466D02*
X122441151Y-133675866D01*
X122441151Y-133675866D02*
X122295119Y-133732771D01*
X122295119Y-133732771D02*
X122293946Y-133733305D01*
X122880541Y-133604000D02*
X122693502Y-133618559D01*
X122693502Y-133618559D02*
X122600236Y-133634466D01*
X123774006Y-133604000D02*
X122880541Y-133604000D01*
X124164441Y-133604000D02*
X123774006Y-133604000D01*
X123774006Y-133604000D02*
X123774006Y-133604000D01*
X122507106Y-134338563D02*
X122488534Y-134178109D01*
X122711716Y-134397466D02*
X122543365Y-134365143D01*
X122543365Y-134365143D02*
X122507106Y-134338563D01*
X123359410Y-134397466D02*
X122711716Y-134397466D01*
X123363361Y-134397466D02*
X123359410Y-134397466D01*
X123532782Y-134413038D02*
X123363361Y-134397466D01*
X123699880Y-134457039D02*
X123541608Y-134414520D01*
X123541608Y-134414520D02*
X123532782Y-134413038D01*
X123844825Y-134532190D02*
X123714128Y-134462517D01*
X123714128Y-134462517D02*
X123699880Y-134457039D01*
X124300339Y-133604000D02*
X124164441Y-133604000D01*
X124602045Y-133746436D02*
X124492663Y-133654603D01*
X124492663Y-133654603D02*
X124340760Y-133606092D01*
X124340760Y-133606092D02*
X124300339Y-133604000D01*
X126238000Y-133604000D02*
X126068063Y-133635176D01*
X126068063Y-133635176D02*
X125940286Y-133707840D01*
X125940286Y-133707840D02*
X125879189Y-133765852D01*
D12*
X130048000Y-130810000D02*
X130048000Y-136906000D01*
D10*
X130891595Y-130835380D02*
X130891595Y-131644904D01*
X130939214Y-131740142D01*
X130986833Y-131787761D01*
X131082071Y-131835380D01*
X131272547Y-131835380D01*
X131367785Y-131787761D01*
X131415404Y-131740142D01*
X131463023Y-131644904D01*
X131463023Y-130835380D01*
X132082071Y-131835380D02*
X131986833Y-131787761D01*
X131939214Y-131692523D01*
X131939214Y-130835380D01*
X132320166Y-131168714D02*
X132701119Y-131168714D01*
X132463023Y-130835380D02*
X132463023Y-131692523D01*
X132510642Y-131787761D01*
X132605880Y-131835380D01*
X132701119Y-131835380D01*
X133034452Y-131835380D02*
X133034452Y-131168714D01*
X133034452Y-130835380D02*
X132986833Y-130883000D01*
X133034452Y-130930619D01*
X133082071Y-130883000D01*
X133034452Y-130835380D01*
X133034452Y-130930619D01*
X133939214Y-131787761D02*
X133843976Y-131835380D01*
X133653500Y-131835380D01*
X133558261Y-131787761D01*
X133510642Y-131740142D01*
X133463023Y-131644904D01*
X133463023Y-131359190D01*
X133510642Y-131263952D01*
X133558261Y-131216333D01*
X133653500Y-131168714D01*
X133843976Y-131168714D01*
X133939214Y-131216333D01*
X134510642Y-131835380D02*
X134415404Y-131787761D01*
X134367785Y-131740142D01*
X134320166Y-131644904D01*
X134320166Y-131359190D01*
X134367785Y-131263952D01*
X134415404Y-131216333D01*
X134510642Y-131168714D01*
X134653500Y-131168714D01*
X134748738Y-131216333D01*
X134796357Y-131263952D01*
X134843976Y-131359190D01*
X134843976Y-131644904D01*
X134796357Y-131740142D01*
X134748738Y-131787761D01*
X134653500Y-131835380D01*
X134510642Y-131835380D01*
X135272547Y-131168714D02*
X135272547Y-131835380D01*
X135272547Y-131263952D02*
X135320166Y-131216333D01*
X135415404Y-131168714D01*
X135558261Y-131168714D01*
X135653500Y-131216333D01*
X135701119Y-131311571D01*
X135701119Y-131835380D01*
X136034452Y-131168714D02*
X136415404Y-131168714D01*
X136177309Y-130835380D02*
X136177309Y-131692523D01*
X136224928Y-131787761D01*
X136320166Y-131835380D01*
X136415404Y-131835380D01*
X136748738Y-131835380D02*
X136748738Y-131168714D01*
X136748738Y-131359190D02*
X136796357Y-131263952D01*
X136843976Y-131216333D01*
X136939214Y-131168714D01*
X137034452Y-131168714D01*
X137510642Y-131835380D02*
X137415404Y-131787761D01*
X137367785Y-131740142D01*
X137320166Y-131644904D01*
X137320166Y-131359190D01*
X137367785Y-131263952D01*
X137415404Y-131216333D01*
X137510642Y-131168714D01*
X137653500Y-131168714D01*
X137748738Y-131216333D01*
X137796357Y-131263952D01*
X137843976Y-131359190D01*
X137843976Y-131644904D01*
X137796357Y-131740142D01*
X137748738Y-131787761D01*
X137653500Y-131835380D01*
X137510642Y-131835380D01*
X138415404Y-131835380D02*
X138320166Y-131787761D01*
X138272547Y-131692523D01*
X138272547Y-130835380D01*
X138939214Y-131835380D02*
X138843976Y-131787761D01*
X138796357Y-131692523D01*
X138796357Y-130835380D01*
X139701119Y-131787761D02*
X139605880Y-131835380D01*
X139415404Y-131835380D01*
X139320166Y-131787761D01*
X139272547Y-131692523D01*
X139272547Y-131311571D01*
X139320166Y-131216333D01*
X139415404Y-131168714D01*
X139605880Y-131168714D01*
X139701119Y-131216333D01*
X139748738Y-131311571D01*
X139748738Y-131406809D01*
X139272547Y-131502047D01*
X140177309Y-131835380D02*
X140177309Y-131168714D01*
X140177309Y-131359190D02*
X140224928Y-131263952D01*
X140272547Y-131216333D01*
X140367785Y-131168714D01*
X140463023Y-131168714D01*
X130843976Y-133199666D02*
X131320166Y-133199666D01*
X130748738Y-133485380D02*
X131082071Y-132485380D01*
X131415404Y-133485380D01*
X132177309Y-133485380D02*
X132177309Y-132485380D01*
X132177309Y-133437761D02*
X132082071Y-133485380D01*
X131891595Y-133485380D01*
X131796357Y-133437761D01*
X131748738Y-133390142D01*
X131701119Y-133294904D01*
X131701119Y-133009190D01*
X131748738Y-132913952D01*
X131796357Y-132866333D01*
X131891595Y-132818714D01*
X132082071Y-132818714D01*
X132177309Y-132866333D01*
X133082071Y-133485380D02*
X133082071Y-132961571D01*
X133034452Y-132866333D01*
X132939214Y-132818714D01*
X132748738Y-132818714D01*
X132653500Y-132866333D01*
X133082071Y-133437761D02*
X132986833Y-133485380D01*
X132748738Y-133485380D01*
X132653500Y-133437761D01*
X132605880Y-133342523D01*
X132605880Y-133247285D01*
X132653500Y-133152047D01*
X132748738Y-133104428D01*
X132986833Y-133104428D01*
X133082071Y-133056809D01*
X133558261Y-132818714D02*
X133558261Y-133818714D01*
X133558261Y-132866333D02*
X133653500Y-132818714D01*
X133843976Y-132818714D01*
X133939214Y-132866333D01*
X133986833Y-132913952D01*
X134034452Y-133009190D01*
X134034452Y-133294904D01*
X133986833Y-133390142D01*
X133939214Y-133437761D01*
X133843976Y-133485380D01*
X133653500Y-133485380D01*
X133558261Y-133437761D01*
X134320166Y-132818714D02*
X134701119Y-132818714D01*
X134463023Y-132485380D02*
X134463023Y-133342523D01*
X134510642Y-133437761D01*
X134605880Y-133485380D01*
X134701119Y-133485380D01*
X135415404Y-133437761D02*
X135320166Y-133485380D01*
X135129690Y-133485380D01*
X135034452Y-133437761D01*
X134986833Y-133342523D01*
X134986833Y-132961571D01*
X135034452Y-132866333D01*
X135129690Y-132818714D01*
X135320166Y-132818714D01*
X135415404Y-132866333D01*
X135463023Y-132961571D01*
X135463023Y-133056809D01*
X134986833Y-133152047D01*
X135891595Y-133485380D02*
X135891595Y-132818714D01*
X135891595Y-133009190D02*
X135939214Y-132913952D01*
X135986833Y-132866333D01*
X136082071Y-132818714D01*
X136177309Y-132818714D01*
X130748738Y-134468714D02*
X131129690Y-134468714D01*
X130891595Y-135135380D02*
X130891595Y-134278238D01*
X130939214Y-134183000D01*
X131034452Y-134135380D01*
X131129690Y-134135380D01*
X131605880Y-135135380D02*
X131510642Y-135087761D01*
X131463023Y-135040142D01*
X131415404Y-134944904D01*
X131415404Y-134659190D01*
X131463023Y-134563952D01*
X131510642Y-134516333D01*
X131605880Y-134468714D01*
X131748738Y-134468714D01*
X131843976Y-134516333D01*
X131891595Y-134563952D01*
X131939214Y-134659190D01*
X131939214Y-134944904D01*
X131891595Y-135040142D01*
X131843976Y-135087761D01*
X131748738Y-135135380D01*
X131605880Y-135135380D01*
X132367785Y-135135380D02*
X132367785Y-134468714D01*
X132367785Y-134659190D02*
X132415404Y-134563952D01*
X132463023Y-134516333D01*
X132558261Y-134468714D01*
X132653500Y-134468714D01*
X134320166Y-135135380D02*
X133986833Y-134659190D01*
X133748738Y-135135380D02*
X133748738Y-134135380D01*
X134129690Y-134135380D01*
X134224928Y-134183000D01*
X134272547Y-134230619D01*
X134320166Y-134325857D01*
X134320166Y-134468714D01*
X134272547Y-134563952D01*
X134224928Y-134611571D01*
X134129690Y-134659190D01*
X133748738Y-134659190D01*
X134701119Y-134849666D02*
X135177309Y-134849666D01*
X134605880Y-135135380D02*
X134939214Y-134135380D01*
X135272547Y-135135380D01*
X135605880Y-135135380D02*
X135605880Y-134135380D01*
X135939214Y-134849666D01*
X136272547Y-134135380D01*
X136272547Y-135135380D01*
X136748738Y-135135380D02*
X136748738Y-134135380D01*
X137129690Y-134135380D01*
X137224928Y-134183000D01*
X137272547Y-134230619D01*
X137320166Y-134325857D01*
X137320166Y-134468714D01*
X137272547Y-134563952D01*
X137224928Y-134611571D01*
X137129690Y-134659190D01*
X136748738Y-134659190D01*
X137701119Y-135087761D02*
X137843976Y-135135380D01*
X138082071Y-135135380D01*
X138177309Y-135087761D01*
X138224928Y-135040142D01*
X138272547Y-134944904D01*
X138272547Y-134849666D01*
X138224928Y-134754428D01*
X138177309Y-134706809D01*
X138082071Y-134659190D01*
X137891595Y-134611571D01*
X137796357Y-134563952D01*
X137748738Y-134516333D01*
X137701119Y-134421095D01*
X137701119Y-134325857D01*
X137748738Y-134230619D01*
X137796357Y-134183000D01*
X137891595Y-134135380D01*
X138129690Y-134135380D01*
X138272547Y-134183000D01*
X138701119Y-134754428D02*
X139463023Y-134754428D01*
X140272547Y-134611571D02*
X139939214Y-134611571D01*
X139939214Y-135135380D02*
X139939214Y-134135380D01*
X140415404Y-134135380D01*
X140796357Y-135135380D02*
X140796357Y-134135380D01*
X141034452Y-134135380D01*
X141177309Y-134183000D01*
X141272547Y-134278238D01*
X141320166Y-134373476D01*
X141367785Y-134563952D01*
X141367785Y-134706809D01*
X141320166Y-134897285D01*
X141272547Y-134992523D01*
X141177309Y-135087761D01*
X141034452Y-135135380D01*
X140796357Y-135135380D01*
X130748738Y-135785380D02*
X131082071Y-136785380D01*
X131415404Y-135785380D01*
X132129690Y-136737761D02*
X132034452Y-136785380D01*
X131843976Y-136785380D01*
X131748738Y-136737761D01*
X131701119Y-136642523D01*
X131701119Y-136261571D01*
X131748738Y-136166333D01*
X131843976Y-136118714D01*
X132034452Y-136118714D01*
X132129690Y-136166333D01*
X132177309Y-136261571D01*
X132177309Y-136356809D01*
X131701119Y-136452047D01*
X132605880Y-136785380D02*
X132605880Y-136118714D01*
X132605880Y-136309190D02*
X132653500Y-136213952D01*
X132701119Y-136166333D01*
X132796357Y-136118714D01*
X132891595Y-136118714D01*
X133224928Y-136690142D02*
X133272547Y-136737761D01*
X133224928Y-136785380D01*
X133177309Y-136737761D01*
X133224928Y-136690142D01*
X133224928Y-136785380D01*
X134986833Y-136785380D02*
X134415404Y-136785380D01*
X134701119Y-136785380D02*
X134701119Y-135785380D01*
X134605880Y-135928238D01*
X134510642Y-136023476D01*
X134415404Y-136071095D01*
X135415404Y-136690142D02*
X135463023Y-136737761D01*
X135415404Y-136785380D01*
X135367785Y-136737761D01*
X135415404Y-136690142D01*
X135415404Y-136785380D01*
X136082071Y-135785380D02*
X136177309Y-135785380D01*
X136272547Y-135833000D01*
X136320166Y-135880619D01*
X136367785Y-135975857D01*
X136415404Y-136166333D01*
X136415404Y-136404428D01*
X136367785Y-136594904D01*
X136320166Y-136690142D01*
X136272547Y-136737761D01*
X136177309Y-136785380D01*
X136082071Y-136785380D01*
X135986833Y-136737761D01*
X135939214Y-136690142D01*
X135891595Y-136594904D01*
X135843976Y-136404428D01*
X135843976Y-136166333D01*
X135891595Y-135975857D01*
X135939214Y-135880619D01*
X135986833Y-135833000D01*
X136082071Y-135785380D01*
X136843976Y-136785380D02*
X136843976Y-135785380D01*
X136843976Y-136166333D02*
X136939214Y-136118714D01*
X137129690Y-136118714D01*
X137224928Y-136166333D01*
X137272547Y-136213952D01*
X137320166Y-136309190D01*
X137320166Y-136594904D01*
X137272547Y-136690142D01*
X137224928Y-136737761D01*
X137129690Y-136785380D01*
X136939214Y-136785380D01*
X136843976Y-136737761D01*
X114593809Y-90622380D02*
X114593809Y-89622380D01*
X115022380Y-89717619D02*
X115070000Y-89670000D01*
X115165238Y-89622380D01*
X115403333Y-89622380D01*
X115498571Y-89670000D01*
X115546190Y-89717619D01*
X115593809Y-89812857D01*
X115593809Y-89908095D01*
X115546190Y-90050952D01*
X114974761Y-90622380D01*
X115593809Y-90622380D01*
X116593809Y-90527142D02*
X116546190Y-90574761D01*
X116403333Y-90622380D01*
X116308095Y-90622380D01*
X116165238Y-90574761D01*
X116070000Y-90479523D01*
X116022380Y-90384285D01*
X115974761Y-90193809D01*
X115974761Y-90050952D01*
X116022380Y-89860476D01*
X116070000Y-89765238D01*
X116165238Y-89670000D01*
X116308095Y-89622380D01*
X116403333Y-89622380D01*
X116546190Y-89670000D01*
X116593809Y-89717619D01*
X117713333Y-116006571D02*
X118046666Y-116006571D01*
X118189523Y-116530380D02*
X117713333Y-116530380D01*
X117713333Y-115530380D01*
X118189523Y-115530380D01*
X118522857Y-115530380D02*
X119189523Y-116530380D01*
X119189523Y-115530380D02*
X118522857Y-116530380D01*
X119570476Y-116530380D02*
X119570476Y-115530380D01*
X119951428Y-115530380D01*
X120046666Y-115578000D01*
X120094285Y-115625619D01*
X120141904Y-115720857D01*
X120141904Y-115863714D01*
X120094285Y-115958952D01*
X120046666Y-116006571D01*
X119951428Y-116054190D01*
X119570476Y-116054190D01*
X120475238Y-115530380D02*
X121094285Y-115530380D01*
X120760952Y-115911333D01*
X120903809Y-115911333D01*
X120999047Y-115958952D01*
X121046666Y-116006571D01*
X121094285Y-116101809D01*
X121094285Y-116339904D01*
X121046666Y-116435142D01*
X120999047Y-116482761D01*
X120903809Y-116530380D01*
X120618095Y-116530380D01*
X120522857Y-116482761D01*
X120475238Y-116435142D01*
X129143333Y-126928571D02*
X129476666Y-126928571D01*
X129619523Y-127452380D02*
X129143333Y-127452380D01*
X129143333Y-126452380D01*
X129619523Y-126452380D01*
X129952857Y-126452380D02*
X130619523Y-127452380D01*
X130619523Y-126452380D02*
X129952857Y-127452380D01*
X131000476Y-127452380D02*
X131000476Y-126452380D01*
X131381428Y-126452380D01*
X131476666Y-126500000D01*
X131524285Y-126547619D01*
X131571904Y-126642857D01*
X131571904Y-126785714D01*
X131524285Y-126880952D01*
X131476666Y-126928571D01*
X131381428Y-126976190D01*
X131000476Y-126976190D01*
X132524285Y-127452380D02*
X131952857Y-127452380D01*
X132238571Y-127452380D02*
X132238571Y-126452380D01*
X132143333Y-126595238D01*
X132048095Y-126690476D01*
X131952857Y-126738095D01*
X129143333Y-105338571D02*
X129476666Y-105338571D01*
X129619523Y-105862380D02*
X129143333Y-105862380D01*
X129143333Y-104862380D01*
X129619523Y-104862380D01*
X129952857Y-104862380D02*
X130619523Y-105862380D01*
X130619523Y-104862380D02*
X129952857Y-105862380D01*
X131000476Y-105862380D02*
X131000476Y-104862380D01*
X131381428Y-104862380D01*
X131476666Y-104910000D01*
X131524285Y-104957619D01*
X131571904Y-105052857D01*
X131571904Y-105195714D01*
X131524285Y-105290952D01*
X131476666Y-105338571D01*
X131381428Y-105386190D01*
X131000476Y-105386190D01*
X131952857Y-104957619D02*
X132000476Y-104910000D01*
X132095714Y-104862380D01*
X132333809Y-104862380D01*
X132429047Y-104910000D01*
X132476666Y-104957619D01*
X132524285Y-105052857D01*
X132524285Y-105148095D01*
X132476666Y-105290952D01*
X131905238Y-105862380D01*
X132524285Y-105862380D01*
D12*
X116780000Y-93920000D02*
X118110000Y-93920000D01*
X116780000Y-95250000D02*
X116780000Y-93920000D01*
X119380000Y-93920000D02*
X121980000Y-93920000D01*
X119380000Y-96520000D02*
X119380000Y-93920000D01*
X116780000Y-96520000D02*
X119380000Y-96520000D01*
X121980000Y-93920000D02*
X121980000Y-114360000D01*
X116780000Y-96520000D02*
X116780000Y-114360000D01*
X116780000Y-114360000D02*
X121980000Y-114360000D01*
X110430000Y-88960000D02*
X110430000Y-87630000D01*
X111760000Y-88960000D02*
X110430000Y-88960000D01*
X113030000Y-88960000D02*
X113030000Y-86300000D01*
X113030000Y-86300000D02*
X120710000Y-86300000D01*
X113030000Y-88960000D02*
X120710000Y-88960000D01*
X120710000Y-88960000D02*
X120710000Y-86300000D01*
X133670000Y-98770000D02*
X143020000Y-98770000D01*
X133670000Y-94270000D02*
X143020000Y-94270000D01*
X133670000Y-106950000D02*
X133670000Y-86090000D01*
X133670000Y-106950000D02*
X143020000Y-106950000D01*
X133670000Y-86090000D02*
X143020000Y-86090000D01*
X143020000Y-86090000D02*
X143020000Y-106950000D01*
X129540000Y-90170000D02*
X128270000Y-90170000D01*
X128270000Y-90170000D02*
X128270000Y-91440000D01*
X133670000Y-120360000D02*
X143020000Y-120360000D01*
X133670000Y-115860000D02*
X143020000Y-115860000D01*
X133670000Y-128540000D02*
X133670000Y-107680000D01*
X133670000Y-128540000D02*
X143020000Y-128540000D01*
X133670000Y-107680000D02*
X143020000Y-107680000D01*
X143020000Y-107680000D02*
X143020000Y-128540000D01*
X129540000Y-111760000D02*
X128270000Y-111760000D01*
X128270000Y-111760000D02*
X128270000Y-113030000D01*
D10*
X119046666Y-92372380D02*
X119046666Y-93086666D01*
X118999047Y-93229523D01*
X118903809Y-93324761D01*
X118760952Y-93372380D01*
X118665714Y-93372380D01*
X119951428Y-92372380D02*
X119760952Y-92372380D01*
X119665714Y-92420000D01*
X119618095Y-92467619D01*
X119522857Y-92610476D01*
X119475238Y-92800952D01*
X119475238Y-93181904D01*
X119522857Y-93277142D01*
X119570476Y-93324761D01*
X119665714Y-93372380D01*
X119856190Y-93372380D01*
X119951428Y-93324761D01*
X119999047Y-93277142D01*
X120046666Y-93181904D01*
X120046666Y-92943809D01*
X119999047Y-92848571D01*
X119951428Y-92800952D01*
X119856190Y-92753333D01*
X119665714Y-92753333D01*
X119570476Y-92800952D01*
X119522857Y-92848571D01*
X119475238Y-92943809D01*
X110156666Y-89622380D02*
X110156666Y-90336666D01*
X110109047Y-90479523D01*
X110013809Y-90574761D01*
X109870952Y-90622380D01*
X109775714Y-90622380D01*
X110585238Y-89717619D02*
X110632857Y-89670000D01*
X110728095Y-89622380D01*
X110966190Y-89622380D01*
X111061428Y-89670000D01*
X111109047Y-89717619D01*
X111156666Y-89812857D01*
X111156666Y-89908095D01*
X111109047Y-90050952D01*
X110537619Y-90622380D01*
X111156666Y-90622380D01*
X129206666Y-88352380D02*
X129206666Y-89066666D01*
X129159047Y-89209523D01*
X129063809Y-89304761D01*
X128920952Y-89352380D01*
X128825714Y-89352380D01*
X130159047Y-88352380D02*
X129682857Y-88352380D01*
X129635238Y-88828571D01*
X129682857Y-88780952D01*
X129778095Y-88733333D01*
X130016190Y-88733333D01*
X130111428Y-88780952D01*
X130159047Y-88828571D01*
X130206666Y-88923809D01*
X130206666Y-89161904D01*
X130159047Y-89257142D01*
X130111428Y-89304761D01*
X130016190Y-89352380D01*
X129778095Y-89352380D01*
X129682857Y-89304761D01*
X129635238Y-89257142D01*
X129206666Y-109942380D02*
X129206666Y-110656666D01*
X129159047Y-110799523D01*
X129063809Y-110894761D01*
X128920952Y-110942380D01*
X128825714Y-110942380D01*
X130111428Y-110275714D02*
X130111428Y-110942380D01*
X129873333Y-109894761D02*
X129635238Y-110609047D01*
X130254285Y-110609047D01*
M02*
