G04 #@! TF.GenerationSoftware,KiCad,Pcbnew,(5.1.0-0)*
G04 #@! TF.CreationDate,2019-04-12T23:41:18+08:00*
G04 #@! TF.ProjectId,Ulticontroller_adapter,556c7469-636f-46e7-9472-6f6c6c65725f,rev?*
G04 #@! TF.SameCoordinates,Original*
G04 #@! TF.FileFunction,Copper,L1,Top*
G04 #@! TF.FilePolarity,Positive*
%FSLAX46Y46*%
G04 Gerber Fmt 4.6, Leading zero omitted, Abs format (unit mm)*
G04 Created by KiCad (PCBNEW (5.1.0-0)) date 2019-04-12 23:41:18*
%MOMM*%
%LPD*%
G04 APERTURE LIST*
%ADD10O,1.700000X1.700000*%
%ADD11R,1.700000X1.700000*%
%ADD12O,1.727200X1.727200*%
%ADD13R,1.727200X1.727200*%
%ADD14C,0.800000*%
%ADD15C,0.250000*%
%ADD16C,0.500000*%
%ADD17C,0.254000*%
G04 APERTURE END LIST*
D10*
X124460000Y-87630000D03*
X124460000Y-90170000D03*
X124460000Y-92710000D03*
X124460000Y-95250000D03*
X124460000Y-97790000D03*
X124460000Y-100330000D03*
X124460000Y-102870000D03*
X124460000Y-105410000D03*
X124460000Y-107950000D03*
X124460000Y-110490000D03*
X124460000Y-113030000D03*
X124460000Y-115570000D03*
X124460000Y-118110000D03*
X124460000Y-120650000D03*
X124460000Y-123190000D03*
X124460000Y-125730000D03*
X124460000Y-128270000D03*
D11*
X124460000Y-130810000D03*
D10*
X120650000Y-113030000D03*
X118110000Y-113030000D03*
X120650000Y-110490000D03*
X118110000Y-110490000D03*
X120650000Y-107950000D03*
X118110000Y-107950000D03*
X120650000Y-105410000D03*
X118110000Y-105410000D03*
X120650000Y-102870000D03*
X118110000Y-102870000D03*
X120650000Y-100330000D03*
X118110000Y-100330000D03*
X120650000Y-97790000D03*
X118110000Y-97790000D03*
X120650000Y-95250000D03*
D11*
X118110000Y-95250000D03*
X111760000Y-100330000D03*
D10*
X114300000Y-100330000D03*
X111760000Y-102870000D03*
X114300000Y-102870000D03*
X111760000Y-105410000D03*
X114300000Y-105410000D03*
X111760000Y-107950000D03*
X114300000Y-107950000D03*
X111760000Y-110490000D03*
X114300000Y-110490000D03*
X111760000Y-113030000D03*
X114300000Y-113030000D03*
X119380000Y-87630000D03*
X116840000Y-87630000D03*
X114300000Y-87630000D03*
D11*
X111760000Y-87630000D03*
D12*
X132080000Y-101600000D03*
X129540000Y-101600000D03*
X132080000Y-99060000D03*
X129540000Y-99060000D03*
X132080000Y-96520000D03*
X129540000Y-96520000D03*
X132080000Y-93980000D03*
X129540000Y-93980000D03*
X132080000Y-91440000D03*
D13*
X129540000Y-91440000D03*
D12*
X132080000Y-123190000D03*
X129540000Y-123190000D03*
X132080000Y-120650000D03*
X129540000Y-120650000D03*
X132080000Y-118110000D03*
X129540000Y-118110000D03*
X132080000Y-115570000D03*
X129540000Y-115570000D03*
X132080000Y-113030000D03*
D13*
X129540000Y-113030000D03*
D14*
X116840000Y-104140000D03*
X139065000Y-91440000D03*
X133604000Y-130810000D03*
X122174000Y-115316000D03*
X113030000Y-115316006D03*
X130810000Y-107315000D03*
X127000000Y-108585000D03*
X137160000Y-133350000D03*
X135890000Y-132080000D03*
X114554000Y-95250000D03*
D15*
X119474999Y-92615001D02*
X123610001Y-88479999D01*
X119474999Y-96425001D02*
X119474999Y-92615001D01*
X123610001Y-88479999D02*
X124460000Y-87630000D01*
X118110000Y-97790000D02*
X119474999Y-96425001D01*
X123610001Y-91019999D02*
X124460000Y-90170000D01*
X121825001Y-92804999D02*
X123610001Y-91019999D01*
X121825001Y-96614999D02*
X121825001Y-92804999D01*
X120650000Y-97790000D02*
X121825001Y-96614999D01*
X125309999Y-91860001D02*
X124460000Y-92710000D01*
X125635001Y-87065999D02*
X125635001Y-91534999D01*
X123990998Y-86360000D02*
X124929002Y-86360000D01*
X125635001Y-91534999D02*
X125309999Y-91860001D01*
X124929002Y-86360000D02*
X125635001Y-87065999D01*
X116934999Y-93415999D02*
X123990998Y-86360000D01*
X116934999Y-98354001D02*
X116934999Y-93415999D01*
X118110000Y-99529002D02*
X116934999Y-98354001D01*
X118110000Y-100330000D02*
X118110000Y-99529002D01*
X123190000Y-104609002D02*
X123190000Y-96520000D01*
X121214001Y-106585001D02*
X123190000Y-104609002D01*
X123190000Y-96520000D02*
X124460000Y-95250000D01*
X119474999Y-106585001D02*
X121214001Y-106585001D01*
X118110000Y-107950000D02*
X119474999Y-106585001D01*
X125309999Y-99480001D02*
X124460000Y-100330000D01*
X125635001Y-94685999D02*
X125635001Y-99154999D01*
X125635001Y-99154999D02*
X125309999Y-99480001D01*
X125024001Y-94074999D02*
X125635001Y-94685999D01*
X123895999Y-94074999D02*
X125024001Y-94074999D01*
X122555000Y-95415998D02*
X123895999Y-94074999D01*
X121214001Y-101505001D02*
X122555000Y-100164002D01*
X119474999Y-101505001D02*
X121214001Y-101505001D01*
X122555000Y-100164002D02*
X122555000Y-95415998D01*
X118110000Y-102870000D02*
X119474999Y-101505001D01*
X124460000Y-102870000D02*
X124460000Y-102069002D01*
X124460000Y-102870000D02*
X127000000Y-100330000D01*
X127000000Y-100330000D02*
X127000000Y-95885000D01*
X127000000Y-95885000D02*
X127635000Y-95250000D01*
X130810000Y-95250000D02*
X132080000Y-96520000D01*
X127635000Y-95250000D02*
X130810000Y-95250000D01*
X124460000Y-105410000D02*
X124460000Y-104775000D01*
X130891399Y-100248601D02*
X131216401Y-99923599D01*
X131216401Y-99923599D02*
X132080000Y-99060000D01*
X129132269Y-100248601D02*
X130891399Y-100248601D01*
X124605870Y-104775000D02*
X129132269Y-100248601D01*
X124460000Y-104775000D02*
X124605870Y-104775000D01*
X124460000Y-107950000D02*
X127635000Y-111125000D01*
X127635000Y-111125000D02*
X127635000Y-121285000D01*
X128676401Y-122326401D02*
X129540000Y-123190000D01*
X127635000Y-121285000D02*
X128676401Y-122326401D01*
X127635000Y-125095000D02*
X130175000Y-125095000D01*
X126365000Y-123825000D02*
X127635000Y-125095000D01*
X130175000Y-125095000D02*
X131216401Y-124053599D01*
X126365000Y-112395000D02*
X126365000Y-123825000D01*
X131216401Y-124053599D02*
X132080000Y-123190000D01*
X124460000Y-110490000D02*
X126365000Y-112395000D01*
X116840000Y-87630000D02*
X116840000Y-88832081D01*
X116840000Y-88832081D02*
X116078000Y-89594081D01*
X116840000Y-104140000D02*
X116840000Y-99314000D01*
X116840000Y-99314000D02*
X116078000Y-98552000D01*
X116078000Y-89594081D02*
X116078000Y-98552000D01*
D16*
X132080000Y-91440000D02*
X139065000Y-91440000D01*
X139065000Y-91440000D02*
X139065000Y-91440000D01*
X133604000Y-114554000D02*
X133604000Y-129794000D01*
X132080000Y-113030000D02*
X133604000Y-114554000D01*
X133604000Y-129794000D02*
X133604000Y-129794000D01*
X122173994Y-115316006D02*
X122174000Y-115316000D01*
X113030000Y-115316006D02*
X122173994Y-115316006D01*
X133604000Y-129794000D02*
X133604000Y-130810000D01*
X133604000Y-130810000D02*
X124460000Y-130810000D01*
D15*
X130269999Y-106774999D02*
X123730001Y-106774999D01*
X130810000Y-107315000D02*
X130269999Y-106774999D01*
X123730001Y-106774999D02*
X122555000Y-107950000D01*
X122555000Y-107950000D02*
X122555000Y-110490000D01*
X122555000Y-110490000D02*
X121285000Y-111760000D01*
X115570000Y-111760000D02*
X114300000Y-113030000D01*
X121285000Y-111760000D02*
X115570000Y-111760000D01*
X125189999Y-106774999D02*
X127000000Y-108585000D01*
X123730001Y-106774999D02*
X125189999Y-106774999D01*
X116840000Y-114300000D02*
X118110000Y-113030000D01*
X113030000Y-114300000D02*
X116840000Y-114300000D01*
X111760000Y-113030000D02*
X113030000Y-114300000D01*
X114300000Y-110490000D02*
X118110000Y-110490000D01*
X113030000Y-109220000D02*
X116205000Y-109220000D01*
X111760000Y-110490000D02*
X113030000Y-109220000D01*
X116205000Y-109220000D02*
X116840000Y-108585000D01*
X116840000Y-106680000D02*
X118110000Y-105410000D01*
X116840000Y-108585000D02*
X116840000Y-106680000D01*
X137160000Y-132784315D02*
X137160000Y-133350000D01*
X130728601Y-97871399D02*
X132796399Y-97871399D01*
X129540000Y-99060000D02*
X130728601Y-97871399D01*
X137160000Y-102235000D02*
X137160000Y-132784315D01*
X132796399Y-97871399D02*
X137160000Y-102235000D01*
X135890000Y-132080000D02*
X135890000Y-105410000D01*
X135890000Y-105410000D02*
X133985000Y-103505000D01*
X133985000Y-103505000D02*
X131445000Y-103505000D01*
X131445000Y-103505000D02*
X129540000Y-101600000D01*
D17*
G36*
X116838000Y-92438197D02*
G01*
X116838000Y-89908882D01*
X117351002Y-89395880D01*
X117380001Y-89372082D01*
X117474974Y-89256357D01*
X117545546Y-89124328D01*
X117589003Y-88981067D01*
X117596031Y-88909716D01*
X117669014Y-88870706D01*
X117895134Y-88685134D01*
X118080706Y-88459014D01*
X118110000Y-88404209D01*
X118139294Y-88459014D01*
X118324866Y-88685134D01*
X118550986Y-88870706D01*
X118808966Y-89008599D01*
X119088889Y-89093513D01*
X119307050Y-89115000D01*
X119452950Y-89115000D01*
X119671111Y-89093513D01*
X119951034Y-89008599D01*
X120209014Y-88870706D01*
X120435134Y-88685134D01*
X120620706Y-88459014D01*
X120758599Y-88201034D01*
X120843513Y-87921111D01*
X120872185Y-87630000D01*
X120843513Y-87338889D01*
X120758599Y-87058966D01*
X120620706Y-86800986D01*
X120435134Y-86574866D01*
X120209014Y-86389294D01*
X119951034Y-86251401D01*
X119671111Y-86166487D01*
X119452950Y-86145000D01*
X119307050Y-86145000D01*
X119088889Y-86166487D01*
X118808966Y-86251401D01*
X118550986Y-86389294D01*
X118324866Y-86574866D01*
X118139294Y-86800986D01*
X118110000Y-86855791D01*
X118080706Y-86800986D01*
X117895134Y-86574866D01*
X117669014Y-86389294D01*
X117411034Y-86251401D01*
X117131111Y-86166487D01*
X116912950Y-86145000D01*
X116767050Y-86145000D01*
X116548889Y-86166487D01*
X116268966Y-86251401D01*
X116010986Y-86389294D01*
X115784866Y-86574866D01*
X115599294Y-86800986D01*
X115570000Y-86855791D01*
X115540706Y-86800986D01*
X115355134Y-86574866D01*
X115129014Y-86389294D01*
X114871034Y-86251401D01*
X114591111Y-86166487D01*
X114372950Y-86145000D01*
X114227050Y-86145000D01*
X114008889Y-86166487D01*
X113728966Y-86251401D01*
X113470986Y-86389294D01*
X113244866Y-86574866D01*
X113220393Y-86604687D01*
X113199502Y-86535820D01*
X113140537Y-86425506D01*
X113061185Y-86328815D01*
X112964494Y-86249463D01*
X112854180Y-86190498D01*
X112734482Y-86154188D01*
X112610000Y-86141928D01*
X110910000Y-86141928D01*
X110785518Y-86154188D01*
X110665820Y-86190498D01*
X110555506Y-86249463D01*
X110458815Y-86328815D01*
X110379463Y-86425506D01*
X110320498Y-86535820D01*
X110284188Y-86655518D01*
X110271928Y-86780000D01*
X110271928Y-88480000D01*
X110284188Y-88604482D01*
X110320498Y-88724180D01*
X110379463Y-88834494D01*
X110458815Y-88931185D01*
X110555506Y-89010537D01*
X110665820Y-89069502D01*
X110785518Y-89105812D01*
X110910000Y-89118072D01*
X112610000Y-89118072D01*
X112734482Y-89105812D01*
X112854180Y-89069502D01*
X112964494Y-89010537D01*
X113061185Y-88931185D01*
X113140537Y-88834494D01*
X113199502Y-88724180D01*
X113220393Y-88655313D01*
X113244866Y-88685134D01*
X113470986Y-88870706D01*
X113728966Y-89008599D01*
X114008889Y-89093513D01*
X114227050Y-89115000D01*
X114372950Y-89115000D01*
X114591111Y-89093513D01*
X114871034Y-89008599D01*
X115129014Y-88870706D01*
X115355134Y-88685134D01*
X115540706Y-88459014D01*
X115570000Y-88404209D01*
X115599294Y-88459014D01*
X115784866Y-88685134D01*
X115854774Y-88742506D01*
X115567002Y-89030278D01*
X115537999Y-89054080D01*
X115495544Y-89105812D01*
X115443026Y-89169805D01*
X115396763Y-89256357D01*
X115372454Y-89301835D01*
X115328997Y-89445096D01*
X115318000Y-89556749D01*
X115318000Y-89556759D01*
X115314324Y-89594081D01*
X115318000Y-89631403D01*
X115318001Y-98514668D01*
X115314324Y-98552000D01*
X115328998Y-98700985D01*
X115372454Y-98844246D01*
X115443026Y-98976276D01*
X115508229Y-99055725D01*
X115538000Y-99092001D01*
X115566998Y-99115799D01*
X116080001Y-99628803D01*
X116080000Y-103436289D01*
X116036063Y-103480226D01*
X115922795Y-103649744D01*
X115844774Y-103838102D01*
X115805000Y-104038061D01*
X115805000Y-104241939D01*
X115844774Y-104441898D01*
X115922795Y-104630256D01*
X116036063Y-104799774D01*
X116180226Y-104943937D01*
X116349744Y-105057205D01*
X116538102Y-105135226D01*
X116642826Y-105156057D01*
X116617815Y-105410000D01*
X116646487Y-105701111D01*
X116669203Y-105775996D01*
X116328998Y-106116201D01*
X116300000Y-106139999D01*
X116276202Y-106168997D01*
X116276201Y-106168998D01*
X116205026Y-106255724D01*
X116134454Y-106387754D01*
X116090998Y-106531015D01*
X116076324Y-106680000D01*
X116080001Y-106717332D01*
X116080000Y-108270198D01*
X115890199Y-108460000D01*
X115697114Y-108460000D01*
X115763513Y-108241111D01*
X115792185Y-107950000D01*
X115763513Y-107658889D01*
X115678599Y-107378966D01*
X115540706Y-107120986D01*
X115355134Y-106894866D01*
X115129014Y-106709294D01*
X115074209Y-106680000D01*
X115129014Y-106650706D01*
X115355134Y-106465134D01*
X115540706Y-106239014D01*
X115678599Y-105981034D01*
X115763513Y-105701111D01*
X115792185Y-105410000D01*
X115763513Y-105118889D01*
X115678599Y-104838966D01*
X115540706Y-104580986D01*
X115355134Y-104354866D01*
X115129014Y-104169294D01*
X115074209Y-104140000D01*
X115129014Y-104110706D01*
X115355134Y-103925134D01*
X115540706Y-103699014D01*
X115678599Y-103441034D01*
X115763513Y-103161111D01*
X115792185Y-102870000D01*
X115763513Y-102578889D01*
X115678599Y-102298966D01*
X115540706Y-102040986D01*
X115355134Y-101814866D01*
X115129014Y-101629294D01*
X115074209Y-101600000D01*
X115129014Y-101570706D01*
X115355134Y-101385134D01*
X115540706Y-101159014D01*
X115678599Y-100901034D01*
X115763513Y-100621111D01*
X115792185Y-100330000D01*
X115763513Y-100038889D01*
X115678599Y-99758966D01*
X115540706Y-99500986D01*
X115355134Y-99274866D01*
X115129014Y-99089294D01*
X114871034Y-98951401D01*
X114591111Y-98866487D01*
X114372950Y-98845000D01*
X114227050Y-98845000D01*
X114008889Y-98866487D01*
X113728966Y-98951401D01*
X113470986Y-99089294D01*
X113244866Y-99274866D01*
X113220393Y-99304687D01*
X113199502Y-99235820D01*
X113140537Y-99125506D01*
X113061185Y-99028815D01*
X112964494Y-98949463D01*
X112854180Y-98890498D01*
X112734482Y-98854188D01*
X112610000Y-98841928D01*
X112045750Y-98845000D01*
X111887000Y-99003750D01*
X111887000Y-100203000D01*
X111907000Y-100203000D01*
X111907000Y-100457000D01*
X111887000Y-100457000D01*
X111887000Y-100477000D01*
X111633000Y-100477000D01*
X111633000Y-100457000D01*
X110433750Y-100457000D01*
X110275000Y-100615750D01*
X110271928Y-101180000D01*
X110284188Y-101304482D01*
X110320498Y-101424180D01*
X110379463Y-101534494D01*
X110458815Y-101631185D01*
X110555506Y-101710537D01*
X110665820Y-101769502D01*
X110734687Y-101790393D01*
X110704866Y-101814866D01*
X110519294Y-102040986D01*
X110381401Y-102298966D01*
X110296487Y-102578889D01*
X110267815Y-102870000D01*
X110296487Y-103161111D01*
X110381401Y-103441034D01*
X110519294Y-103699014D01*
X110704866Y-103925134D01*
X110930986Y-104110706D01*
X110985791Y-104140000D01*
X110930986Y-104169294D01*
X110704866Y-104354866D01*
X110519294Y-104580986D01*
X110381401Y-104838966D01*
X110296487Y-105118889D01*
X110267815Y-105410000D01*
X110296487Y-105701111D01*
X110381401Y-105981034D01*
X110519294Y-106239014D01*
X110704866Y-106465134D01*
X110930986Y-106650706D01*
X110985791Y-106680000D01*
X110930986Y-106709294D01*
X110704866Y-106894866D01*
X110519294Y-107120986D01*
X110381401Y-107378966D01*
X110296487Y-107658889D01*
X110267815Y-107950000D01*
X110296487Y-108241111D01*
X110381401Y-108521034D01*
X110519294Y-108779014D01*
X110704866Y-109005134D01*
X110930986Y-109190706D01*
X110985791Y-109220000D01*
X110930986Y-109249294D01*
X110704866Y-109434866D01*
X110519294Y-109660986D01*
X110381401Y-109918966D01*
X110296487Y-110198889D01*
X110267815Y-110490000D01*
X110296487Y-110781111D01*
X110381401Y-111061034D01*
X110519294Y-111319014D01*
X110704866Y-111545134D01*
X110930986Y-111730706D01*
X110985791Y-111760000D01*
X110930986Y-111789294D01*
X110704866Y-111974866D01*
X110519294Y-112200986D01*
X110381401Y-112458966D01*
X110296487Y-112738889D01*
X110267815Y-113030000D01*
X110296487Y-113321111D01*
X110381401Y-113601034D01*
X110519294Y-113859014D01*
X110704866Y-114085134D01*
X110930986Y-114270706D01*
X111188966Y-114408599D01*
X111468889Y-114493513D01*
X111687050Y-114515000D01*
X111832950Y-114515000D01*
X112051111Y-114493513D01*
X112125995Y-114470797D01*
X112268747Y-114613548D01*
X112226063Y-114656232D01*
X112112795Y-114825750D01*
X112034774Y-115014108D01*
X111995000Y-115214067D01*
X111995000Y-115417945D01*
X112034774Y-115617904D01*
X112112795Y-115806262D01*
X112226063Y-115975780D01*
X112370226Y-116119943D01*
X112539744Y-116233211D01*
X112728102Y-116311232D01*
X112928061Y-116351006D01*
X113131939Y-116351006D01*
X113331898Y-116311232D01*
X113520256Y-116233211D01*
X113568454Y-116201006D01*
X121635555Y-116201006D01*
X121683744Y-116233205D01*
X121872102Y-116311226D01*
X122072061Y-116351000D01*
X122275939Y-116351000D01*
X122475898Y-116311226D01*
X122664256Y-116233205D01*
X122833774Y-116119937D01*
X122977937Y-115975774D01*
X123014617Y-115920878D01*
X123081401Y-116141034D01*
X123219294Y-116399014D01*
X123404866Y-116625134D01*
X123630986Y-116810706D01*
X123685791Y-116840000D01*
X123630986Y-116869294D01*
X123404866Y-117054866D01*
X123219294Y-117280986D01*
X123081401Y-117538966D01*
X122996487Y-117818889D01*
X122967815Y-118110000D01*
X122996487Y-118401111D01*
X123081401Y-118681034D01*
X123219294Y-118939014D01*
X123404866Y-119165134D01*
X123630986Y-119350706D01*
X123685791Y-119380000D01*
X123630986Y-119409294D01*
X123404866Y-119594866D01*
X123219294Y-119820986D01*
X123081401Y-120078966D01*
X122996487Y-120358889D01*
X122967815Y-120650000D01*
X122996487Y-120941111D01*
X123081401Y-121221034D01*
X123219294Y-121479014D01*
X123404866Y-121705134D01*
X123630986Y-121890706D01*
X123685791Y-121920000D01*
X123630986Y-121949294D01*
X123404866Y-122134866D01*
X123219294Y-122360986D01*
X123081401Y-122618966D01*
X122996487Y-122898889D01*
X122967815Y-123190000D01*
X122996487Y-123481111D01*
X123081401Y-123761034D01*
X123219294Y-124019014D01*
X123404866Y-124245134D01*
X123630986Y-124430706D01*
X123685791Y-124460000D01*
X123630986Y-124489294D01*
X123404866Y-124674866D01*
X123219294Y-124900986D01*
X123081401Y-125158966D01*
X122996487Y-125438889D01*
X122967815Y-125730000D01*
X122996487Y-126021111D01*
X123081401Y-126301034D01*
X123219294Y-126559014D01*
X123404866Y-126785134D01*
X123630986Y-126970706D01*
X123685791Y-127000000D01*
X123630986Y-127029294D01*
X123404866Y-127214866D01*
X123219294Y-127440986D01*
X123081401Y-127698966D01*
X122996487Y-127978889D01*
X122967815Y-128270000D01*
X122996487Y-128561111D01*
X123081401Y-128841034D01*
X123219294Y-129099014D01*
X123404866Y-129325134D01*
X123434687Y-129349607D01*
X123365820Y-129370498D01*
X123255506Y-129429463D01*
X123158815Y-129508815D01*
X123079463Y-129605506D01*
X123020498Y-129715820D01*
X122984188Y-129835518D01*
X122971928Y-129960000D01*
X122971928Y-131660000D01*
X122984188Y-131784482D01*
X123020498Y-131904180D01*
X123079463Y-132014494D01*
X123158815Y-132111185D01*
X123255506Y-132190537D01*
X123365820Y-132249502D01*
X123485518Y-132285812D01*
X123610000Y-132298072D01*
X125310000Y-132298072D01*
X125434482Y-132285812D01*
X125554180Y-132249502D01*
X125664494Y-132190537D01*
X125761185Y-132111185D01*
X125840537Y-132014494D01*
X125899502Y-131904180D01*
X125935812Y-131784482D01*
X125944625Y-131695000D01*
X133065546Y-131695000D01*
X133113744Y-131727205D01*
X133302102Y-131805226D01*
X133502061Y-131845000D01*
X133705939Y-131845000D01*
X133905898Y-131805226D01*
X134094256Y-131727205D01*
X134263774Y-131613937D01*
X134407937Y-131469774D01*
X134521205Y-131300256D01*
X134599226Y-131111898D01*
X134639000Y-130911939D01*
X134639000Y-130708061D01*
X134599226Y-130508102D01*
X134521205Y-130319744D01*
X134489000Y-130271546D01*
X134489000Y-129837477D01*
X134493282Y-129794000D01*
X134489000Y-129750523D01*
X134489000Y-114597465D01*
X134493281Y-114553999D01*
X134489000Y-114510533D01*
X134489000Y-114510523D01*
X134476195Y-114380510D01*
X134425589Y-114213687D01*
X134343411Y-114059941D01*
X134232817Y-113925183D01*
X134199050Y-113897471D01*
X133563052Y-113261474D01*
X133585851Y-113030000D01*
X133556916Y-112736223D01*
X133471225Y-112453736D01*
X133332069Y-112193394D01*
X133144797Y-111965203D01*
X132916606Y-111777931D01*
X132656264Y-111638775D01*
X132373777Y-111553084D01*
X132153619Y-111531400D01*
X132006381Y-111531400D01*
X131786223Y-111553084D01*
X131503736Y-111638775D01*
X131243394Y-111777931D01*
X131015203Y-111965203D01*
X131008586Y-111973265D01*
X130993102Y-111922220D01*
X130934137Y-111811906D01*
X130854785Y-111715215D01*
X130758094Y-111635863D01*
X130647780Y-111576898D01*
X130528082Y-111540588D01*
X130403600Y-111528328D01*
X129825750Y-111531400D01*
X129667000Y-111690150D01*
X129667000Y-112903000D01*
X129687000Y-112903000D01*
X129687000Y-113157000D01*
X129667000Y-113157000D01*
X129667000Y-113177000D01*
X129413000Y-113177000D01*
X129413000Y-113157000D01*
X129393000Y-113157000D01*
X129393000Y-112903000D01*
X129413000Y-112903000D01*
X129413000Y-111690150D01*
X129254250Y-111531400D01*
X128676400Y-111528328D01*
X128551918Y-111540588D01*
X128432220Y-111576898D01*
X128395000Y-111596793D01*
X128395000Y-111162322D01*
X128398676Y-111124999D01*
X128395000Y-111087676D01*
X128395000Y-111087667D01*
X128384003Y-110976014D01*
X128340546Y-110832753D01*
X128313549Y-110782246D01*
X128269974Y-110700723D01*
X128198799Y-110613997D01*
X128175001Y-110584999D01*
X128146004Y-110561202D01*
X127187736Y-109602934D01*
X127301898Y-109580226D01*
X127490256Y-109502205D01*
X127659774Y-109388937D01*
X127803937Y-109244774D01*
X127917205Y-109075256D01*
X127995226Y-108886898D01*
X128035000Y-108686939D01*
X128035000Y-108483061D01*
X127995226Y-108283102D01*
X127917205Y-108094744D01*
X127803937Y-107925226D01*
X127659774Y-107781063D01*
X127490256Y-107667795D01*
X127301898Y-107589774D01*
X127101939Y-107550000D01*
X127039802Y-107550000D01*
X127024801Y-107534999D01*
X129798483Y-107534999D01*
X129814774Y-107616898D01*
X129892795Y-107805256D01*
X130006063Y-107974774D01*
X130150226Y-108118937D01*
X130319744Y-108232205D01*
X130508102Y-108310226D01*
X130708061Y-108350000D01*
X130911939Y-108350000D01*
X131111898Y-108310226D01*
X131300256Y-108232205D01*
X131469774Y-108118937D01*
X131613937Y-107974774D01*
X131727205Y-107805256D01*
X131805226Y-107616898D01*
X131845000Y-107416939D01*
X131845000Y-107213061D01*
X131805226Y-107013102D01*
X131727205Y-106824744D01*
X131613937Y-106655226D01*
X131469774Y-106511063D01*
X131300256Y-106397795D01*
X131111898Y-106319774D01*
X130911939Y-106280000D01*
X130849801Y-106280000D01*
X130833802Y-106264001D01*
X130810000Y-106234998D01*
X130694275Y-106140025D01*
X130562246Y-106069453D01*
X130418985Y-106025996D01*
X130307332Y-106014999D01*
X130307321Y-106014999D01*
X130269999Y-106011323D01*
X130232677Y-106014999D01*
X125820444Y-106014999D01*
X125838599Y-105981034D01*
X125923513Y-105701111D01*
X125952185Y-105410000D01*
X125923513Y-105118889D01*
X125838599Y-104838966D01*
X125761308Y-104694364D01*
X128194278Y-102261394D01*
X128287931Y-102436606D01*
X128475203Y-102664797D01*
X128703394Y-102852069D01*
X128963736Y-102991225D01*
X129246223Y-103076916D01*
X129466381Y-103098600D01*
X129613619Y-103098600D01*
X129833777Y-103076916D01*
X129916900Y-103051701D01*
X130881200Y-104016002D01*
X130904999Y-104045001D01*
X131020724Y-104139974D01*
X131152753Y-104210546D01*
X131296014Y-104254003D01*
X131407667Y-104265000D01*
X131407677Y-104265000D01*
X131445000Y-104268676D01*
X131482323Y-104265000D01*
X133670199Y-104265000D01*
X135130001Y-105724803D01*
X135130000Y-131376289D01*
X135086063Y-131420226D01*
X134972795Y-131589744D01*
X134894774Y-131778102D01*
X134855000Y-131978061D01*
X134855000Y-132181939D01*
X134894774Y-132381898D01*
X134972795Y-132570256D01*
X135086063Y-132739774D01*
X135230226Y-132883937D01*
X135399744Y-132997205D01*
X135588102Y-133075226D01*
X135788061Y-133115000D01*
X135991939Y-133115000D01*
X136158039Y-133081961D01*
X136125000Y-133248061D01*
X136125000Y-133451939D01*
X136164774Y-133651898D01*
X136242795Y-133840256D01*
X136356063Y-134009774D01*
X136500226Y-134153937D01*
X136669744Y-134267205D01*
X136858102Y-134345226D01*
X137058061Y-134385000D01*
X137261939Y-134385000D01*
X137461898Y-134345226D01*
X137650256Y-134267205D01*
X137819774Y-134153937D01*
X137963937Y-134009774D01*
X138077205Y-133840256D01*
X138155226Y-133651898D01*
X138195000Y-133451939D01*
X138195000Y-133248061D01*
X138155226Y-133048102D01*
X138077205Y-132859744D01*
X137963937Y-132690226D01*
X137920000Y-132646289D01*
X137920000Y-102272325D01*
X137923676Y-102235000D01*
X137920000Y-102197675D01*
X137920000Y-102197667D01*
X137909003Y-102086014D01*
X137865546Y-101942753D01*
X137794974Y-101810724D01*
X137700001Y-101694999D01*
X137671004Y-101671202D01*
X133360203Y-97360402D01*
X133341937Y-97338145D01*
X133471225Y-97096264D01*
X133556916Y-96813777D01*
X133585851Y-96520000D01*
X133556916Y-96226223D01*
X133471225Y-95943736D01*
X133332069Y-95683394D01*
X133144797Y-95455203D01*
X132916606Y-95267931D01*
X132883060Y-95250000D01*
X132916606Y-95232069D01*
X133144797Y-95044797D01*
X133332069Y-94816606D01*
X133471225Y-94556264D01*
X133556916Y-94273777D01*
X133585851Y-93980000D01*
X133556916Y-93686223D01*
X133471225Y-93403736D01*
X133332069Y-93143394D01*
X133144797Y-92915203D01*
X132916606Y-92727931D01*
X132883060Y-92710000D01*
X132916606Y-92692069D01*
X133144797Y-92504797D01*
X133292353Y-92325000D01*
X138526546Y-92325000D01*
X138574744Y-92357205D01*
X138763102Y-92435226D01*
X138963061Y-92475000D01*
X139166939Y-92475000D01*
X139366898Y-92435226D01*
X139555256Y-92357205D01*
X139724774Y-92243937D01*
X139868937Y-92099774D01*
X139982205Y-91930256D01*
X140060226Y-91741898D01*
X140100000Y-91541939D01*
X140100000Y-91338061D01*
X140060226Y-91138102D01*
X139982205Y-90949744D01*
X139868937Y-90780226D01*
X139724774Y-90636063D01*
X139555256Y-90522795D01*
X139366898Y-90444774D01*
X139166939Y-90405000D01*
X138963061Y-90405000D01*
X138763102Y-90444774D01*
X138574744Y-90522795D01*
X138526546Y-90555000D01*
X133292353Y-90555000D01*
X133144797Y-90375203D01*
X132916606Y-90187931D01*
X132656264Y-90048775D01*
X132373777Y-89963084D01*
X132153619Y-89941400D01*
X132006381Y-89941400D01*
X131786223Y-89963084D01*
X131503736Y-90048775D01*
X131243394Y-90187931D01*
X131015203Y-90375203D01*
X131008586Y-90383265D01*
X130993102Y-90332220D01*
X130934137Y-90221906D01*
X130854785Y-90125215D01*
X130758094Y-90045863D01*
X130647780Y-89986898D01*
X130528082Y-89950588D01*
X130403600Y-89938328D01*
X129825750Y-89941400D01*
X129667000Y-90100150D01*
X129667000Y-91313000D01*
X129687000Y-91313000D01*
X129687000Y-91567000D01*
X129667000Y-91567000D01*
X129667000Y-91587000D01*
X129413000Y-91587000D01*
X129413000Y-91567000D01*
X128200150Y-91567000D01*
X128041400Y-91725750D01*
X128038328Y-92303600D01*
X128050588Y-92428082D01*
X128086898Y-92547780D01*
X128145863Y-92658094D01*
X128225215Y-92754785D01*
X128321906Y-92834137D01*
X128432220Y-92893102D01*
X128483265Y-92908586D01*
X128475203Y-92915203D01*
X128287931Y-93143394D01*
X128148775Y-93403736D01*
X128063084Y-93686223D01*
X128034149Y-93980000D01*
X128063084Y-94273777D01*
X128128674Y-94490000D01*
X127672333Y-94490000D01*
X127635000Y-94486323D01*
X127597667Y-94490000D01*
X127486014Y-94500997D01*
X127342753Y-94544454D01*
X127210724Y-94615026D01*
X127094999Y-94709999D01*
X127071200Y-94738998D01*
X126488998Y-95321201D01*
X126460000Y-95344999D01*
X126436202Y-95373997D01*
X126436201Y-95373998D01*
X126395001Y-95424200D01*
X126395001Y-94723321D01*
X126398677Y-94685998D01*
X126395001Y-94648675D01*
X126395001Y-94648666D01*
X126384004Y-94537013D01*
X126340547Y-94393752D01*
X126269975Y-94261723D01*
X126239004Y-94223985D01*
X126198800Y-94174995D01*
X126198796Y-94174991D01*
X126175002Y-94145998D01*
X126146010Y-94122205D01*
X125638552Y-93614749D01*
X125700706Y-93539014D01*
X125838599Y-93281034D01*
X125923513Y-93001111D01*
X125952185Y-92710000D01*
X125923513Y-92418889D01*
X125900797Y-92344004D01*
X126145998Y-92098803D01*
X126175002Y-92075000D01*
X126269975Y-91959275D01*
X126340547Y-91827246D01*
X126384004Y-91683985D01*
X126395001Y-91572332D01*
X126395001Y-91572323D01*
X126398677Y-91535000D01*
X126395001Y-91497677D01*
X126395001Y-90576400D01*
X128038328Y-90576400D01*
X128041400Y-91154250D01*
X128200150Y-91313000D01*
X129413000Y-91313000D01*
X129413000Y-90100150D01*
X129254250Y-89941400D01*
X128676400Y-89938328D01*
X128551918Y-89950588D01*
X128432220Y-89986898D01*
X128321906Y-90045863D01*
X128225215Y-90125215D01*
X128145863Y-90221906D01*
X128086898Y-90332220D01*
X128050588Y-90451918D01*
X128038328Y-90576400D01*
X126395001Y-90576400D01*
X126395001Y-87103321D01*
X126398677Y-87065998D01*
X126395001Y-87028675D01*
X126395001Y-87028666D01*
X126384004Y-86917013D01*
X126340547Y-86773752D01*
X126269975Y-86641723D01*
X126175002Y-86525998D01*
X126146005Y-86502201D01*
X125495803Y-85852000D01*
X140329452Y-85852000D01*
X140533395Y-85869843D01*
X140725765Y-85921388D01*
X140906260Y-86005555D01*
X141069390Y-86119780D01*
X141210220Y-86260610D01*
X141324445Y-86423740D01*
X141408612Y-86604235D01*
X141460157Y-86796605D01*
X141478000Y-87000548D01*
X141478000Y-137154452D01*
X141460157Y-137358395D01*
X141408612Y-137550765D01*
X141324445Y-137731260D01*
X141210220Y-137894390D01*
X141069390Y-138035220D01*
X140906260Y-138149445D01*
X140725765Y-138233612D01*
X140533395Y-138285157D01*
X140329452Y-138303000D01*
X122179548Y-138303000D01*
X121975605Y-138285157D01*
X121783235Y-138233612D01*
X121602740Y-138149445D01*
X121439610Y-138035220D01*
X121298780Y-137894390D01*
X121184555Y-137731260D01*
X121100388Y-137550765D01*
X121048843Y-137358395D01*
X121031000Y-137154452D01*
X121031000Y-119380000D01*
X121030517Y-119368931D01*
X121011223Y-119148398D01*
X121007379Y-119126597D01*
X120950083Y-118912764D01*
X120942511Y-118891961D01*
X120848953Y-118691327D01*
X120837884Y-118672156D01*
X120710908Y-118490816D01*
X120696679Y-118473857D01*
X120540143Y-118317321D01*
X120523184Y-118303092D01*
X120341844Y-118176116D01*
X120322673Y-118165047D01*
X120122039Y-118071489D01*
X120101236Y-118063917D01*
X119887403Y-118006621D01*
X119865602Y-118002777D01*
X119645069Y-117983483D01*
X119634000Y-117983000D01*
X109860548Y-117983000D01*
X109656605Y-117965157D01*
X109464235Y-117913612D01*
X109283740Y-117829445D01*
X109120610Y-117715220D01*
X108979780Y-117574390D01*
X108865555Y-117411260D01*
X108781388Y-117230765D01*
X108729843Y-117038395D01*
X108712000Y-116834452D01*
X108712000Y-99480000D01*
X110271928Y-99480000D01*
X110275000Y-100044250D01*
X110433750Y-100203000D01*
X111633000Y-100203000D01*
X111633000Y-99003750D01*
X111474250Y-98845000D01*
X110910000Y-98841928D01*
X110785518Y-98854188D01*
X110665820Y-98890498D01*
X110555506Y-98949463D01*
X110458815Y-99028815D01*
X110379463Y-99125506D01*
X110320498Y-99235820D01*
X110284188Y-99355518D01*
X110271928Y-99480000D01*
X108712000Y-99480000D01*
X108712000Y-87000548D01*
X108729843Y-86796605D01*
X108781388Y-86604235D01*
X108865555Y-86423740D01*
X108979780Y-86260610D01*
X109120610Y-86119780D01*
X109283740Y-86005555D01*
X109464235Y-85921388D01*
X109656605Y-85869843D01*
X109860548Y-85852000D01*
X123424195Y-85852000D01*
X116838000Y-92438197D01*
X116838000Y-92438197D01*
G37*
X116838000Y-92438197D02*
X116838000Y-89908882D01*
X117351002Y-89395880D01*
X117380001Y-89372082D01*
X117474974Y-89256357D01*
X117545546Y-89124328D01*
X117589003Y-88981067D01*
X117596031Y-88909716D01*
X117669014Y-88870706D01*
X117895134Y-88685134D01*
X118080706Y-88459014D01*
X118110000Y-88404209D01*
X118139294Y-88459014D01*
X118324866Y-88685134D01*
X118550986Y-88870706D01*
X118808966Y-89008599D01*
X119088889Y-89093513D01*
X119307050Y-89115000D01*
X119452950Y-89115000D01*
X119671111Y-89093513D01*
X119951034Y-89008599D01*
X120209014Y-88870706D01*
X120435134Y-88685134D01*
X120620706Y-88459014D01*
X120758599Y-88201034D01*
X120843513Y-87921111D01*
X120872185Y-87630000D01*
X120843513Y-87338889D01*
X120758599Y-87058966D01*
X120620706Y-86800986D01*
X120435134Y-86574866D01*
X120209014Y-86389294D01*
X119951034Y-86251401D01*
X119671111Y-86166487D01*
X119452950Y-86145000D01*
X119307050Y-86145000D01*
X119088889Y-86166487D01*
X118808966Y-86251401D01*
X118550986Y-86389294D01*
X118324866Y-86574866D01*
X118139294Y-86800986D01*
X118110000Y-86855791D01*
X118080706Y-86800986D01*
X117895134Y-86574866D01*
X117669014Y-86389294D01*
X117411034Y-86251401D01*
X117131111Y-86166487D01*
X116912950Y-86145000D01*
X116767050Y-86145000D01*
X116548889Y-86166487D01*
X116268966Y-86251401D01*
X116010986Y-86389294D01*
X115784866Y-86574866D01*
X115599294Y-86800986D01*
X115570000Y-86855791D01*
X115540706Y-86800986D01*
X115355134Y-86574866D01*
X115129014Y-86389294D01*
X114871034Y-86251401D01*
X114591111Y-86166487D01*
X114372950Y-86145000D01*
X114227050Y-86145000D01*
X114008889Y-86166487D01*
X113728966Y-86251401D01*
X113470986Y-86389294D01*
X113244866Y-86574866D01*
X113220393Y-86604687D01*
X113199502Y-86535820D01*
X113140537Y-86425506D01*
X113061185Y-86328815D01*
X112964494Y-86249463D01*
X112854180Y-86190498D01*
X112734482Y-86154188D01*
X112610000Y-86141928D01*
X110910000Y-86141928D01*
X110785518Y-86154188D01*
X110665820Y-86190498D01*
X110555506Y-86249463D01*
X110458815Y-86328815D01*
X110379463Y-86425506D01*
X110320498Y-86535820D01*
X110284188Y-86655518D01*
X110271928Y-86780000D01*
X110271928Y-88480000D01*
X110284188Y-88604482D01*
X110320498Y-88724180D01*
X110379463Y-88834494D01*
X110458815Y-88931185D01*
X110555506Y-89010537D01*
X110665820Y-89069502D01*
X110785518Y-89105812D01*
X110910000Y-89118072D01*
X112610000Y-89118072D01*
X112734482Y-89105812D01*
X112854180Y-89069502D01*
X112964494Y-89010537D01*
X113061185Y-88931185D01*
X113140537Y-88834494D01*
X113199502Y-88724180D01*
X113220393Y-88655313D01*
X113244866Y-88685134D01*
X113470986Y-88870706D01*
X113728966Y-89008599D01*
X114008889Y-89093513D01*
X114227050Y-89115000D01*
X114372950Y-89115000D01*
X114591111Y-89093513D01*
X114871034Y-89008599D01*
X115129014Y-88870706D01*
X115355134Y-88685134D01*
X115540706Y-88459014D01*
X115570000Y-88404209D01*
X115599294Y-88459014D01*
X115784866Y-88685134D01*
X115854774Y-88742506D01*
X115567002Y-89030278D01*
X115537999Y-89054080D01*
X115495544Y-89105812D01*
X115443026Y-89169805D01*
X115396763Y-89256357D01*
X115372454Y-89301835D01*
X115328997Y-89445096D01*
X115318000Y-89556749D01*
X115318000Y-89556759D01*
X115314324Y-89594081D01*
X115318000Y-89631403D01*
X115318001Y-98514668D01*
X115314324Y-98552000D01*
X115328998Y-98700985D01*
X115372454Y-98844246D01*
X115443026Y-98976276D01*
X115508229Y-99055725D01*
X115538000Y-99092001D01*
X115566998Y-99115799D01*
X116080001Y-99628803D01*
X116080000Y-103436289D01*
X116036063Y-103480226D01*
X115922795Y-103649744D01*
X115844774Y-103838102D01*
X115805000Y-104038061D01*
X115805000Y-104241939D01*
X115844774Y-104441898D01*
X115922795Y-104630256D01*
X116036063Y-104799774D01*
X116180226Y-104943937D01*
X116349744Y-105057205D01*
X116538102Y-105135226D01*
X116642826Y-105156057D01*
X116617815Y-105410000D01*
X116646487Y-105701111D01*
X116669203Y-105775996D01*
X116328998Y-106116201D01*
X116300000Y-106139999D01*
X116276202Y-106168997D01*
X116276201Y-106168998D01*
X116205026Y-106255724D01*
X116134454Y-106387754D01*
X116090998Y-106531015D01*
X116076324Y-106680000D01*
X116080001Y-106717332D01*
X116080000Y-108270198D01*
X115890199Y-108460000D01*
X115697114Y-108460000D01*
X115763513Y-108241111D01*
X115792185Y-107950000D01*
X115763513Y-107658889D01*
X115678599Y-107378966D01*
X115540706Y-107120986D01*
X115355134Y-106894866D01*
X115129014Y-106709294D01*
X115074209Y-106680000D01*
X115129014Y-106650706D01*
X115355134Y-106465134D01*
X115540706Y-106239014D01*
X115678599Y-105981034D01*
X115763513Y-105701111D01*
X115792185Y-105410000D01*
X115763513Y-105118889D01*
X115678599Y-104838966D01*
X115540706Y-104580986D01*
X115355134Y-104354866D01*
X115129014Y-104169294D01*
X115074209Y-104140000D01*
X115129014Y-104110706D01*
X115355134Y-103925134D01*
X115540706Y-103699014D01*
X115678599Y-103441034D01*
X115763513Y-103161111D01*
X115792185Y-102870000D01*
X115763513Y-102578889D01*
X115678599Y-102298966D01*
X115540706Y-102040986D01*
X115355134Y-101814866D01*
X115129014Y-101629294D01*
X115074209Y-101600000D01*
X115129014Y-101570706D01*
X115355134Y-101385134D01*
X115540706Y-101159014D01*
X115678599Y-100901034D01*
X115763513Y-100621111D01*
X115792185Y-100330000D01*
X115763513Y-100038889D01*
X115678599Y-99758966D01*
X115540706Y-99500986D01*
X115355134Y-99274866D01*
X115129014Y-99089294D01*
X114871034Y-98951401D01*
X114591111Y-98866487D01*
X114372950Y-98845000D01*
X114227050Y-98845000D01*
X114008889Y-98866487D01*
X113728966Y-98951401D01*
X113470986Y-99089294D01*
X113244866Y-99274866D01*
X113220393Y-99304687D01*
X113199502Y-99235820D01*
X113140537Y-99125506D01*
X113061185Y-99028815D01*
X112964494Y-98949463D01*
X112854180Y-98890498D01*
X112734482Y-98854188D01*
X112610000Y-98841928D01*
X112045750Y-98845000D01*
X111887000Y-99003750D01*
X111887000Y-100203000D01*
X111907000Y-100203000D01*
X111907000Y-100457000D01*
X111887000Y-100457000D01*
X111887000Y-100477000D01*
X111633000Y-100477000D01*
X111633000Y-100457000D01*
X110433750Y-100457000D01*
X110275000Y-100615750D01*
X110271928Y-101180000D01*
X110284188Y-101304482D01*
X110320498Y-101424180D01*
X110379463Y-101534494D01*
X110458815Y-101631185D01*
X110555506Y-101710537D01*
X110665820Y-101769502D01*
X110734687Y-101790393D01*
X110704866Y-101814866D01*
X110519294Y-102040986D01*
X110381401Y-102298966D01*
X110296487Y-102578889D01*
X110267815Y-102870000D01*
X110296487Y-103161111D01*
X110381401Y-103441034D01*
X110519294Y-103699014D01*
X110704866Y-103925134D01*
X110930986Y-104110706D01*
X110985791Y-104140000D01*
X110930986Y-104169294D01*
X110704866Y-104354866D01*
X110519294Y-104580986D01*
X110381401Y-104838966D01*
X110296487Y-105118889D01*
X110267815Y-105410000D01*
X110296487Y-105701111D01*
X110381401Y-105981034D01*
X110519294Y-106239014D01*
X110704866Y-106465134D01*
X110930986Y-106650706D01*
X110985791Y-106680000D01*
X110930986Y-106709294D01*
X110704866Y-106894866D01*
X110519294Y-107120986D01*
X110381401Y-107378966D01*
X110296487Y-107658889D01*
X110267815Y-107950000D01*
X110296487Y-108241111D01*
X110381401Y-108521034D01*
X110519294Y-108779014D01*
X110704866Y-109005134D01*
X110930986Y-109190706D01*
X110985791Y-109220000D01*
X110930986Y-109249294D01*
X110704866Y-109434866D01*
X110519294Y-109660986D01*
X110381401Y-109918966D01*
X110296487Y-110198889D01*
X110267815Y-110490000D01*
X110296487Y-110781111D01*
X110381401Y-111061034D01*
X110519294Y-111319014D01*
X110704866Y-111545134D01*
X110930986Y-111730706D01*
X110985791Y-111760000D01*
X110930986Y-111789294D01*
X110704866Y-111974866D01*
X110519294Y-112200986D01*
X110381401Y-112458966D01*
X110296487Y-112738889D01*
X110267815Y-113030000D01*
X110296487Y-113321111D01*
X110381401Y-113601034D01*
X110519294Y-113859014D01*
X110704866Y-114085134D01*
X110930986Y-114270706D01*
X111188966Y-114408599D01*
X111468889Y-114493513D01*
X111687050Y-114515000D01*
X111832950Y-114515000D01*
X112051111Y-114493513D01*
X112125995Y-114470797D01*
X112268747Y-114613548D01*
X112226063Y-114656232D01*
X112112795Y-114825750D01*
X112034774Y-115014108D01*
X111995000Y-115214067D01*
X111995000Y-115417945D01*
X112034774Y-115617904D01*
X112112795Y-115806262D01*
X112226063Y-115975780D01*
X112370226Y-116119943D01*
X112539744Y-116233211D01*
X112728102Y-116311232D01*
X112928061Y-116351006D01*
X113131939Y-116351006D01*
X113331898Y-116311232D01*
X113520256Y-116233211D01*
X113568454Y-116201006D01*
X121635555Y-116201006D01*
X121683744Y-116233205D01*
X121872102Y-116311226D01*
X122072061Y-116351000D01*
X122275939Y-116351000D01*
X122475898Y-116311226D01*
X122664256Y-116233205D01*
X122833774Y-116119937D01*
X122977937Y-115975774D01*
X123014617Y-115920878D01*
X123081401Y-116141034D01*
X123219294Y-116399014D01*
X123404866Y-116625134D01*
X123630986Y-116810706D01*
X123685791Y-116840000D01*
X123630986Y-116869294D01*
X123404866Y-117054866D01*
X123219294Y-117280986D01*
X123081401Y-117538966D01*
X122996487Y-117818889D01*
X122967815Y-118110000D01*
X122996487Y-118401111D01*
X123081401Y-118681034D01*
X123219294Y-118939014D01*
X123404866Y-119165134D01*
X123630986Y-119350706D01*
X123685791Y-119380000D01*
X123630986Y-119409294D01*
X123404866Y-119594866D01*
X123219294Y-119820986D01*
X123081401Y-120078966D01*
X122996487Y-120358889D01*
X122967815Y-120650000D01*
X122996487Y-120941111D01*
X123081401Y-121221034D01*
X123219294Y-121479014D01*
X123404866Y-121705134D01*
X123630986Y-121890706D01*
X123685791Y-121920000D01*
X123630986Y-121949294D01*
X123404866Y-122134866D01*
X123219294Y-122360986D01*
X123081401Y-122618966D01*
X122996487Y-122898889D01*
X122967815Y-123190000D01*
X122996487Y-123481111D01*
X123081401Y-123761034D01*
X123219294Y-124019014D01*
X123404866Y-124245134D01*
X123630986Y-124430706D01*
X123685791Y-124460000D01*
X123630986Y-124489294D01*
X123404866Y-124674866D01*
X123219294Y-124900986D01*
X123081401Y-125158966D01*
X122996487Y-125438889D01*
X122967815Y-125730000D01*
X122996487Y-126021111D01*
X123081401Y-126301034D01*
X123219294Y-126559014D01*
X123404866Y-126785134D01*
X123630986Y-126970706D01*
X123685791Y-127000000D01*
X123630986Y-127029294D01*
X123404866Y-127214866D01*
X123219294Y-127440986D01*
X123081401Y-127698966D01*
X122996487Y-127978889D01*
X122967815Y-128270000D01*
X122996487Y-128561111D01*
X123081401Y-128841034D01*
X123219294Y-129099014D01*
X123404866Y-129325134D01*
X123434687Y-129349607D01*
X123365820Y-129370498D01*
X123255506Y-129429463D01*
X123158815Y-129508815D01*
X123079463Y-129605506D01*
X123020498Y-129715820D01*
X122984188Y-129835518D01*
X122971928Y-129960000D01*
X122971928Y-131660000D01*
X122984188Y-131784482D01*
X123020498Y-131904180D01*
X123079463Y-132014494D01*
X123158815Y-132111185D01*
X123255506Y-132190537D01*
X123365820Y-132249502D01*
X123485518Y-132285812D01*
X123610000Y-132298072D01*
X125310000Y-132298072D01*
X125434482Y-132285812D01*
X125554180Y-132249502D01*
X125664494Y-132190537D01*
X125761185Y-132111185D01*
X125840537Y-132014494D01*
X125899502Y-131904180D01*
X125935812Y-131784482D01*
X125944625Y-131695000D01*
X133065546Y-131695000D01*
X133113744Y-131727205D01*
X133302102Y-131805226D01*
X133502061Y-131845000D01*
X133705939Y-131845000D01*
X133905898Y-131805226D01*
X134094256Y-131727205D01*
X134263774Y-131613937D01*
X134407937Y-131469774D01*
X134521205Y-131300256D01*
X134599226Y-131111898D01*
X134639000Y-130911939D01*
X134639000Y-130708061D01*
X134599226Y-130508102D01*
X134521205Y-130319744D01*
X134489000Y-130271546D01*
X134489000Y-129837477D01*
X134493282Y-129794000D01*
X134489000Y-129750523D01*
X134489000Y-114597465D01*
X134493281Y-114553999D01*
X134489000Y-114510533D01*
X134489000Y-114510523D01*
X134476195Y-114380510D01*
X134425589Y-114213687D01*
X134343411Y-114059941D01*
X134232817Y-113925183D01*
X134199050Y-113897471D01*
X133563052Y-113261474D01*
X133585851Y-113030000D01*
X133556916Y-112736223D01*
X133471225Y-112453736D01*
X133332069Y-112193394D01*
X133144797Y-111965203D01*
X132916606Y-111777931D01*
X132656264Y-111638775D01*
X132373777Y-111553084D01*
X132153619Y-111531400D01*
X132006381Y-111531400D01*
X131786223Y-111553084D01*
X131503736Y-111638775D01*
X131243394Y-111777931D01*
X131015203Y-111965203D01*
X131008586Y-111973265D01*
X130993102Y-111922220D01*
X130934137Y-111811906D01*
X130854785Y-111715215D01*
X130758094Y-111635863D01*
X130647780Y-111576898D01*
X130528082Y-111540588D01*
X130403600Y-111528328D01*
X129825750Y-111531400D01*
X129667000Y-111690150D01*
X129667000Y-112903000D01*
X129687000Y-112903000D01*
X129687000Y-113157000D01*
X129667000Y-113157000D01*
X129667000Y-113177000D01*
X129413000Y-113177000D01*
X129413000Y-113157000D01*
X129393000Y-113157000D01*
X129393000Y-112903000D01*
X129413000Y-112903000D01*
X129413000Y-111690150D01*
X129254250Y-111531400D01*
X128676400Y-111528328D01*
X128551918Y-111540588D01*
X128432220Y-111576898D01*
X128395000Y-111596793D01*
X128395000Y-111162322D01*
X128398676Y-111124999D01*
X128395000Y-111087676D01*
X128395000Y-111087667D01*
X128384003Y-110976014D01*
X128340546Y-110832753D01*
X128313549Y-110782246D01*
X128269974Y-110700723D01*
X128198799Y-110613997D01*
X128175001Y-110584999D01*
X128146004Y-110561202D01*
X127187736Y-109602934D01*
X127301898Y-109580226D01*
X127490256Y-109502205D01*
X127659774Y-109388937D01*
X127803937Y-109244774D01*
X127917205Y-109075256D01*
X127995226Y-108886898D01*
X128035000Y-108686939D01*
X128035000Y-108483061D01*
X127995226Y-108283102D01*
X127917205Y-108094744D01*
X127803937Y-107925226D01*
X127659774Y-107781063D01*
X127490256Y-107667795D01*
X127301898Y-107589774D01*
X127101939Y-107550000D01*
X127039802Y-107550000D01*
X127024801Y-107534999D01*
X129798483Y-107534999D01*
X129814774Y-107616898D01*
X129892795Y-107805256D01*
X130006063Y-107974774D01*
X130150226Y-108118937D01*
X130319744Y-108232205D01*
X130508102Y-108310226D01*
X130708061Y-108350000D01*
X130911939Y-108350000D01*
X131111898Y-108310226D01*
X131300256Y-108232205D01*
X131469774Y-108118937D01*
X131613937Y-107974774D01*
X131727205Y-107805256D01*
X131805226Y-107616898D01*
X131845000Y-107416939D01*
X131845000Y-107213061D01*
X131805226Y-107013102D01*
X131727205Y-106824744D01*
X131613937Y-106655226D01*
X131469774Y-106511063D01*
X131300256Y-106397795D01*
X131111898Y-106319774D01*
X130911939Y-106280000D01*
X130849801Y-106280000D01*
X130833802Y-106264001D01*
X130810000Y-106234998D01*
X130694275Y-106140025D01*
X130562246Y-106069453D01*
X130418985Y-106025996D01*
X130307332Y-106014999D01*
X130307321Y-106014999D01*
X130269999Y-106011323D01*
X130232677Y-106014999D01*
X125820444Y-106014999D01*
X125838599Y-105981034D01*
X125923513Y-105701111D01*
X125952185Y-105410000D01*
X125923513Y-105118889D01*
X125838599Y-104838966D01*
X125761308Y-104694364D01*
X128194278Y-102261394D01*
X128287931Y-102436606D01*
X128475203Y-102664797D01*
X128703394Y-102852069D01*
X128963736Y-102991225D01*
X129246223Y-103076916D01*
X129466381Y-103098600D01*
X129613619Y-103098600D01*
X129833777Y-103076916D01*
X129916900Y-103051701D01*
X130881200Y-104016002D01*
X130904999Y-104045001D01*
X131020724Y-104139974D01*
X131152753Y-104210546D01*
X131296014Y-104254003D01*
X131407667Y-104265000D01*
X131407677Y-104265000D01*
X131445000Y-104268676D01*
X131482323Y-104265000D01*
X133670199Y-104265000D01*
X135130001Y-105724803D01*
X135130000Y-131376289D01*
X135086063Y-131420226D01*
X134972795Y-131589744D01*
X134894774Y-131778102D01*
X134855000Y-131978061D01*
X134855000Y-132181939D01*
X134894774Y-132381898D01*
X134972795Y-132570256D01*
X135086063Y-132739774D01*
X135230226Y-132883937D01*
X135399744Y-132997205D01*
X135588102Y-133075226D01*
X135788061Y-133115000D01*
X135991939Y-133115000D01*
X136158039Y-133081961D01*
X136125000Y-133248061D01*
X136125000Y-133451939D01*
X136164774Y-133651898D01*
X136242795Y-133840256D01*
X136356063Y-134009774D01*
X136500226Y-134153937D01*
X136669744Y-134267205D01*
X136858102Y-134345226D01*
X137058061Y-134385000D01*
X137261939Y-134385000D01*
X137461898Y-134345226D01*
X137650256Y-134267205D01*
X137819774Y-134153937D01*
X137963937Y-134009774D01*
X138077205Y-133840256D01*
X138155226Y-133651898D01*
X138195000Y-133451939D01*
X138195000Y-133248061D01*
X138155226Y-133048102D01*
X138077205Y-132859744D01*
X137963937Y-132690226D01*
X137920000Y-132646289D01*
X137920000Y-102272325D01*
X137923676Y-102235000D01*
X137920000Y-102197675D01*
X137920000Y-102197667D01*
X137909003Y-102086014D01*
X137865546Y-101942753D01*
X137794974Y-101810724D01*
X137700001Y-101694999D01*
X137671004Y-101671202D01*
X133360203Y-97360402D01*
X133341937Y-97338145D01*
X133471225Y-97096264D01*
X133556916Y-96813777D01*
X133585851Y-96520000D01*
X133556916Y-96226223D01*
X133471225Y-95943736D01*
X133332069Y-95683394D01*
X133144797Y-95455203D01*
X132916606Y-95267931D01*
X132883060Y-95250000D01*
X132916606Y-95232069D01*
X133144797Y-95044797D01*
X133332069Y-94816606D01*
X133471225Y-94556264D01*
X133556916Y-94273777D01*
X133585851Y-93980000D01*
X133556916Y-93686223D01*
X133471225Y-93403736D01*
X133332069Y-93143394D01*
X133144797Y-92915203D01*
X132916606Y-92727931D01*
X132883060Y-92710000D01*
X132916606Y-92692069D01*
X133144797Y-92504797D01*
X133292353Y-92325000D01*
X138526546Y-92325000D01*
X138574744Y-92357205D01*
X138763102Y-92435226D01*
X138963061Y-92475000D01*
X139166939Y-92475000D01*
X139366898Y-92435226D01*
X139555256Y-92357205D01*
X139724774Y-92243937D01*
X139868937Y-92099774D01*
X139982205Y-91930256D01*
X140060226Y-91741898D01*
X140100000Y-91541939D01*
X140100000Y-91338061D01*
X140060226Y-91138102D01*
X139982205Y-90949744D01*
X139868937Y-90780226D01*
X139724774Y-90636063D01*
X139555256Y-90522795D01*
X139366898Y-90444774D01*
X139166939Y-90405000D01*
X138963061Y-90405000D01*
X138763102Y-90444774D01*
X138574744Y-90522795D01*
X138526546Y-90555000D01*
X133292353Y-90555000D01*
X133144797Y-90375203D01*
X132916606Y-90187931D01*
X132656264Y-90048775D01*
X132373777Y-89963084D01*
X132153619Y-89941400D01*
X132006381Y-89941400D01*
X131786223Y-89963084D01*
X131503736Y-90048775D01*
X131243394Y-90187931D01*
X131015203Y-90375203D01*
X131008586Y-90383265D01*
X130993102Y-90332220D01*
X130934137Y-90221906D01*
X130854785Y-90125215D01*
X130758094Y-90045863D01*
X130647780Y-89986898D01*
X130528082Y-89950588D01*
X130403600Y-89938328D01*
X129825750Y-89941400D01*
X129667000Y-90100150D01*
X129667000Y-91313000D01*
X129687000Y-91313000D01*
X129687000Y-91567000D01*
X129667000Y-91567000D01*
X129667000Y-91587000D01*
X129413000Y-91587000D01*
X129413000Y-91567000D01*
X128200150Y-91567000D01*
X128041400Y-91725750D01*
X128038328Y-92303600D01*
X128050588Y-92428082D01*
X128086898Y-92547780D01*
X128145863Y-92658094D01*
X128225215Y-92754785D01*
X128321906Y-92834137D01*
X128432220Y-92893102D01*
X128483265Y-92908586D01*
X128475203Y-92915203D01*
X128287931Y-93143394D01*
X128148775Y-93403736D01*
X128063084Y-93686223D01*
X128034149Y-93980000D01*
X128063084Y-94273777D01*
X128128674Y-94490000D01*
X127672333Y-94490000D01*
X127635000Y-94486323D01*
X127597667Y-94490000D01*
X127486014Y-94500997D01*
X127342753Y-94544454D01*
X127210724Y-94615026D01*
X127094999Y-94709999D01*
X127071200Y-94738998D01*
X126488998Y-95321201D01*
X126460000Y-95344999D01*
X126436202Y-95373997D01*
X126436201Y-95373998D01*
X126395001Y-95424200D01*
X126395001Y-94723321D01*
X126398677Y-94685998D01*
X126395001Y-94648675D01*
X126395001Y-94648666D01*
X126384004Y-94537013D01*
X126340547Y-94393752D01*
X126269975Y-94261723D01*
X126239004Y-94223985D01*
X126198800Y-94174995D01*
X126198796Y-94174991D01*
X126175002Y-94145998D01*
X126146010Y-94122205D01*
X125638552Y-93614749D01*
X125700706Y-93539014D01*
X125838599Y-93281034D01*
X125923513Y-93001111D01*
X125952185Y-92710000D01*
X125923513Y-92418889D01*
X125900797Y-92344004D01*
X126145998Y-92098803D01*
X126175002Y-92075000D01*
X126269975Y-91959275D01*
X126340547Y-91827246D01*
X126384004Y-91683985D01*
X126395001Y-91572332D01*
X126395001Y-91572323D01*
X126398677Y-91535000D01*
X126395001Y-91497677D01*
X126395001Y-90576400D01*
X128038328Y-90576400D01*
X128041400Y-91154250D01*
X128200150Y-91313000D01*
X129413000Y-91313000D01*
X129413000Y-90100150D01*
X129254250Y-89941400D01*
X128676400Y-89938328D01*
X128551918Y-89950588D01*
X128432220Y-89986898D01*
X128321906Y-90045863D01*
X128225215Y-90125215D01*
X128145863Y-90221906D01*
X128086898Y-90332220D01*
X128050588Y-90451918D01*
X128038328Y-90576400D01*
X126395001Y-90576400D01*
X126395001Y-87103321D01*
X126398677Y-87065998D01*
X126395001Y-87028675D01*
X126395001Y-87028666D01*
X126384004Y-86917013D01*
X126340547Y-86773752D01*
X126269975Y-86641723D01*
X126175002Y-86525998D01*
X126146005Y-86502201D01*
X125495803Y-85852000D01*
X140329452Y-85852000D01*
X140533395Y-85869843D01*
X140725765Y-85921388D01*
X140906260Y-86005555D01*
X141069390Y-86119780D01*
X141210220Y-86260610D01*
X141324445Y-86423740D01*
X141408612Y-86604235D01*
X141460157Y-86796605D01*
X141478000Y-87000548D01*
X141478000Y-137154452D01*
X141460157Y-137358395D01*
X141408612Y-137550765D01*
X141324445Y-137731260D01*
X141210220Y-137894390D01*
X141069390Y-138035220D01*
X140906260Y-138149445D01*
X140725765Y-138233612D01*
X140533395Y-138285157D01*
X140329452Y-138303000D01*
X122179548Y-138303000D01*
X121975605Y-138285157D01*
X121783235Y-138233612D01*
X121602740Y-138149445D01*
X121439610Y-138035220D01*
X121298780Y-137894390D01*
X121184555Y-137731260D01*
X121100388Y-137550765D01*
X121048843Y-137358395D01*
X121031000Y-137154452D01*
X121031000Y-119380000D01*
X121030517Y-119368931D01*
X121011223Y-119148398D01*
X121007379Y-119126597D01*
X120950083Y-118912764D01*
X120942511Y-118891961D01*
X120848953Y-118691327D01*
X120837884Y-118672156D01*
X120710908Y-118490816D01*
X120696679Y-118473857D01*
X120540143Y-118317321D01*
X120523184Y-118303092D01*
X120341844Y-118176116D01*
X120322673Y-118165047D01*
X120122039Y-118071489D01*
X120101236Y-118063917D01*
X119887403Y-118006621D01*
X119865602Y-118002777D01*
X119645069Y-117983483D01*
X119634000Y-117983000D01*
X109860548Y-117983000D01*
X109656605Y-117965157D01*
X109464235Y-117913612D01*
X109283740Y-117829445D01*
X109120610Y-117715220D01*
X108979780Y-117574390D01*
X108865555Y-117411260D01*
X108781388Y-117230765D01*
X108729843Y-117038395D01*
X108712000Y-116834452D01*
X108712000Y-99480000D01*
X110271928Y-99480000D01*
X110275000Y-100044250D01*
X110433750Y-100203000D01*
X111633000Y-100203000D01*
X111633000Y-99003750D01*
X111474250Y-98845000D01*
X110910000Y-98841928D01*
X110785518Y-98854188D01*
X110665820Y-98890498D01*
X110555506Y-98949463D01*
X110458815Y-99028815D01*
X110379463Y-99125506D01*
X110320498Y-99235820D01*
X110284188Y-99355518D01*
X110271928Y-99480000D01*
X108712000Y-99480000D01*
X108712000Y-87000548D01*
X108729843Y-86796605D01*
X108781388Y-86604235D01*
X108865555Y-86423740D01*
X108979780Y-86260610D01*
X109120610Y-86119780D01*
X109283740Y-86005555D01*
X109464235Y-85921388D01*
X109656605Y-85869843D01*
X109860548Y-85852000D01*
X123424195Y-85852000D01*
X116838000Y-92438197D01*
G36*
X118715000Y-93763262D02*
G01*
X118395750Y-93765000D01*
X118237000Y-93923750D01*
X118237000Y-95123000D01*
X118257000Y-95123000D01*
X118257000Y-95377000D01*
X118237000Y-95377000D01*
X118237000Y-95397000D01*
X117983000Y-95397000D01*
X117983000Y-95377000D01*
X117963000Y-95377000D01*
X117963000Y-95123000D01*
X117983000Y-95123000D01*
X117983000Y-93923750D01*
X117824250Y-93765000D01*
X117694999Y-93764296D01*
X117694999Y-93730800D01*
X118715000Y-92710799D01*
X118715000Y-93763262D01*
X118715000Y-93763262D01*
G37*
X118715000Y-93763262D02*
X118395750Y-93765000D01*
X118237000Y-93923750D01*
X118237000Y-95123000D01*
X118257000Y-95123000D01*
X118257000Y-95377000D01*
X118237000Y-95377000D01*
X118237000Y-95397000D01*
X117983000Y-95397000D01*
X117983000Y-95377000D01*
X117963000Y-95377000D01*
X117963000Y-95123000D01*
X117983000Y-95123000D01*
X117983000Y-93923750D01*
X117824250Y-93765000D01*
X117694999Y-93764296D01*
X117694999Y-93730800D01*
X118715000Y-92710799D01*
X118715000Y-93763262D01*
M02*
